{"glyphs":{"0":{"ha":833,"x_min":61,"x_max":772,"o":"m 417 -17 q 258 17 325 -17 q 147 115 190 51 q 82 272 103 179 q 61 485 61 365 q 82 697 61 603 q 147 854 103 790 q 258 952 190 918 q 417 986 325 986 q 576 952 508 986 q 687 854 643 918 q 751 697 731 790 q 772 485 772 603 q 751 272 772 365 q 687 115 731 179 q 576 17 643 51 q 417 -17 508 -17 m 417 111 q 567 190 522 111 q 613 401 613 268 l 613 568 q 567 780 613 701 q 417 858 522 858 q 326 838 364 858 q 265 780 289 818 q 231 688 242 742 q 221 568 221 635 l 221 401 q 231 281 221 335 q 265 190 242 228 q 326 131 289 151 q 417 111 364 111 m 417 403 q 349 422 368 403 q 331 469 331 442 l 331 500 q 349 547 331 528 q 417 567 368 567 q 484 547 465 567 q 503 500 503 528 l 503 469 q 484 422 503 442 q 417 403 465 403 z "},"1":{"ha":833,"x_min":63,"x_max":785,"o":"m 122 0 l 122 129 l 394 129 l 394 856 l 383 856 l 158 615 l 63 701 l 310 969 l 550 969 l 550 129 l 785 129 l 785 0 l 122 0 z "},"2":{"ha":833,"x_min":75,"x_max":757,"o":"m 757 0 l 88 0 l 88 149 l 404 425 q 520 551 479 492 q 561 678 561 611 l 561 693 q 519 810 561 769 q 399 851 478 851 q 274 808 318 851 q 211 699 231 765 l 75 750 q 115 838 89 796 q 183 914 142 881 q 280 967 224 947 q 410 986 336 986 q 544 965 485 986 q 643 906 603 943 q 704 816 683 868 q 725 701 725 764 q 708 594 725 643 q 659 499 690 544 q 585 413 628 454 q 490 329 542 371 l 256 132 l 757 132 l 757 0 z "},"3":{"ha":833,"x_min":53,"x_max":742,"o":"m 376 569 q 515 609 469 569 q 560 708 560 649 l 560 718 q 516 820 560 785 q 399 856 472 856 q 278 824 328 856 q 196 736 229 792 l 90 826 q 142 888 113 858 q 208 938 171 917 q 294 973 246 960 q 404 986 343 986 q 531 969 472 986 q 632 920 589 953 q 699 841 675 888 q 722 736 722 794 q 708 653 722 690 q 667 587 693 615 q 607 540 642 558 q 533 514 572 522 l 533 507 q 613 480 575 499 q 679 431 650 461 q 725 360 708 401 q 742 267 742 319 q 717 151 742 203 q 645 61 692 99 q 533 3 599 24 q 388 -17 468 -17 q 267 -2 319 -17 q 175 37 215 13 q 105 92 135 61 q 53 157 75 124 l 168 246 q 253 151 204 188 q 389 114 303 114 q 529 156 481 114 q 578 274 578 199 l 578 285 q 527 399 578 360 q 381 439 476 439 l 276 439 l 276 569 l 376 569 z "},"4":{"ha":833,"x_min":42,"x_max":788,"o":"m 503 0 l 503 189 l 42 189 l 42 322 l 447 969 l 651 969 l 651 311 l 788 311 l 788 189 l 651 189 l 651 0 l 503 0 m 174 311 l 503 311 l 503 826 l 494 826 l 174 311 z "},"5":{"ha":833,"x_min":83,"x_max":760,"o":"m 710 835 l 269 835 l 244 490 l 256 490 q 336 581 289 547 q 465 615 383 615 q 581 594 528 615 q 674 535 635 574 q 737 440 714 496 q 760 313 760 383 q 736 180 760 240 q 668 76 713 119 q 558 8 624 32 q 410 -17 493 -17 q 294 -2 344 -17 q 203 37 243 13 q 135 92 164 61 q 83 157 106 124 l 197 246 q 235 194 215 218 q 281 151 256 169 q 338 124 306 133 q 413 114 371 114 q 550 163 503 114 q 597 297 597 213 l 597 308 q 549 440 597 393 q 413 488 501 488 q 310 464 347 488 q 244 411 272 440 l 115 429 l 151 969 l 710 969 l 710 835 z "},"6":{"ha":833,"x_min":74,"x_max":764,"o":"m 419 -17 q 274 10 338 -17 q 165 85 210 36 q 97 204 121 135 q 74 361 74 274 q 106 560 74 467 q 189 731 138 653 q 303 869 240 808 q 426 969 365 929 l 635 969 q 485 854 551 910 q 369 740 418 799 q 286 617 319 682 q 235 474 253 553 l 244 471 q 281 526 260 500 q 329 571 301 551 q 393 601 357 590 q 475 613 429 613 q 590 592 538 613 q 682 531 643 571 q 742 436 721 492 q 764 311 764 381 q 740 178 764 239 q 670 75 715 118 q 561 8 625 32 q 419 -17 497 -17 m 418 108 q 556 156 507 108 q 604 292 604 204 l 604 306 q 556 441 604 393 q 418 489 507 489 q 282 441 331 489 q 233 306 233 393 l 233 292 q 282 156 233 204 q 418 108 331 108 z "},"7":{"ha":833,"x_min":82,"x_max":750,"o":"m 235 0 l 594 840 l 217 840 l 217 661 l 82 661 l 82 969 l 750 969 l 750 833 l 400 0 l 235 0 z "},"8":{"ha":833,"x_min":65,"x_max":768,"o":"m 417 -17 q 265 5 331 -17 q 156 64 200 26 q 88 153 111 101 q 65 265 65 204 q 119 421 65 363 q 261 503 174 479 l 261 514 q 140 597 186 540 q 94 738 94 654 q 178 918 94 850 q 417 986 263 986 q 655 918 571 986 q 739 738 739 850 q 693 597 739 654 q 572 514 647 540 l 572 503 q 714 421 660 479 q 768 265 768 363 q 745 153 768 204 q 678 64 722 101 q 568 5 633 26 q 417 -17 503 -17 m 417 107 q 558 147 508 107 q 607 261 607 188 l 607 290 q 558 404 607 364 q 417 444 508 444 q 276 404 325 444 q 226 290 226 364 l 226 261 q 276 147 226 188 q 417 107 325 107 m 417 564 q 544 601 500 564 q 588 704 588 638 l 588 722 q 544 826 588 789 q 417 863 500 863 q 290 826 333 863 q 246 722 246 789 l 246 704 q 290 601 246 638 q 417 564 333 564 z "},"9":{"ha":833,"x_min":69,"x_max":760,"o":"m 760 608 q 728 410 760 503 q 644 239 696 317 q 531 100 593 161 q 407 0 468 39 l 199 0 q 349 115 282 60 q 465 229 415 171 q 547 352 514 288 q 599 496 581 417 l 589 499 q 553 444 574 469 q 504 399 532 418 q 440 368 476 379 q 358 357 404 357 q 243 378 296 357 q 151 438 190 399 q 91 533 113 478 q 69 658 69 589 q 94 791 69 731 q 163 894 118 851 q 272 962 208 938 q 414 986 336 986 q 559 960 494 986 q 668 884 624 933 q 736 765 713 835 q 760 608 760 696 m 415 481 q 551 528 503 481 q 600 664 600 576 l 600 678 q 551 813 600 765 q 415 861 503 861 q 278 813 326 861 q 229 678 229 765 l 229 664 q 278 528 229 576 q 415 481 326 481 z "},"a":{"ha":833,"x_min":83,"x_max":776,"o":"m 683 0 q 585 33 618 0 q 546 121 553 67 l 539 121 q 463 19 518 56 q 324 -17 408 -17 q 149 41 214 -17 q 83 200 83 99 q 160 359 83 304 q 397 414 238 414 l 535 414 l 535 469 q 381 615 535 615 q 268 588 311 615 q 196 517 225 561 l 106 590 q 208 691 136 649 q 394 733 281 733 q 608 668 531 733 q 686 479 686 603 l 686 119 l 776 119 l 776 0 l 683 0 m 367 94 q 488 128 440 94 q 535 214 535 161 l 535 318 l 400 318 q 236 219 236 318 l 236 192 q 271 119 236 143 q 367 94 306 94 z "},"b":{"ha":833,"x_min":110,"x_max":763,"o":"m 110 1028 l 261 1028 l 261 594 l 269 594 q 354 697 301 660 q 486 733 407 733 q 688 639 613 733 q 763 358 763 544 q 688 78 763 172 q 486 -17 613 -17 q 354 20 407 -17 q 269 122 301 57 l 261 122 l 261 0 l 110 0 l 110 1028 m 424 107 q 556 160 510 107 q 603 300 603 213 l 603 417 q 556 557 603 504 q 424 610 510 610 q 361 601 390 610 q 310 576 332 593 q 274 535 288 560 q 261 478 261 511 l 261 239 q 274 181 261 206 q 310 140 288 157 q 361 115 332 124 q 424 107 390 107 z "},"c":{"ha":833,"x_min":103,"x_max":732,"o":"m 443 -17 q 299 10 363 -17 q 192 85 236 36 q 126 203 149 133 q 103 358 103 272 q 126 514 103 444 q 192 632 149 583 q 299 707 236 681 q 442 733 363 733 q 620 686 553 733 q 721 564 688 639 l 603 500 q 544 579 583 550 q 442 608 504 608 q 308 556 356 608 q 261 418 261 504 l 261 299 q 308 161 261 214 q 444 108 356 108 q 553 139 511 108 q 621 222 596 169 l 732 154 q 626 31 697 79 q 443 -17 556 -17 z "},"d":{"ha":833,"x_min":71,"x_max":724,"o":"m 572 122 l 564 122 q 479 20 532 57 q 347 -17 426 -17 q 146 78 221 -17 q 71 358 71 172 q 146 639 71 544 q 347 733 221 733 q 479 697 426 733 q 564 594 532 660 l 572 594 l 572 1028 l 724 1028 l 724 0 l 572 0 l 572 122 m 410 107 q 472 115 443 107 q 524 140 501 124 q 559 181 546 157 q 572 239 572 206 l 572 478 q 559 535 572 511 q 524 576 546 560 q 472 601 501 593 q 410 610 443 610 q 277 557 324 610 q 231 417 231 504 l 231 300 q 277 160 231 213 q 410 107 324 107 z "},"e":{"ha":833,"x_min":83,"x_max":750,"o":"m 432 -17 q 285 10 350 -17 q 175 85 219 36 q 107 202 131 133 q 83 357 83 271 q 108 513 83 443 q 176 631 132 582 q 282 707 219 681 q 421 733 344 733 q 557 708 496 733 q 661 635 618 682 q 727 522 704 588 q 750 378 750 457 l 750 321 l 236 321 l 236 297 q 289 159 236 213 q 435 106 342 106 q 553 135 504 106 q 633 215 603 165 l 728 132 q 617 26 692 69 q 432 -17 543 -17 m 421 618 q 347 604 381 618 q 288 565 313 590 q 250 504 264 539 q 236 428 236 469 l 236 418 l 596 418 l 596 432 q 548 567 596 517 q 421 618 500 618 z "},"f":{"ha":833,"x_min":94,"x_max":763,"o":"m 108 122 l 338 122 l 338 594 l 94 594 l 94 717 l 338 717 l 338 846 q 382 977 338 926 q 521 1028 426 1028 l 763 1028 l 763 906 l 489 906 l 489 717 l 763 717 l 763 594 l 489 594 l 489 122 l 731 122 l 731 0 l 108 0 l 108 122 z "},"g":{"ha":833,"x_min":82,"x_max":792,"o":"m 792 -78 q 699 -242 792 -189 q 415 -294 606 -294 q 259 -283 322 -294 q 156 -249 196 -271 q 99 -194 117 -226 q 82 -122 82 -162 q 115 -31 82 -64 q 207 17 147 1 l 207 31 q 149 69 171 44 q 128 135 128 94 q 164 215 128 188 q 257 256 200 242 l 257 263 q 156 349 192 293 q 119 482 119 404 q 140 585 119 539 q 199 665 161 632 q 291 715 238 697 q 411 733 344 733 q 546 710 486 733 l 546 733 q 569 803 546 775 q 642 831 593 831 l 772 831 l 772 711 l 606 711 l 606 678 q 678 597 653 646 q 703 482 703 547 q 682 378 703 425 q 623 299 661 332 q 531 249 585 267 q 411 232 478 232 q 322 240 364 232 q 272 217 297 233 q 247 171 247 200 q 279 129 247 138 q 358 121 311 121 l 519 121 q 728 66 664 121 q 792 -78 792 11 m 650 -87 q 621 -30 650 -51 q 515 -8 592 -8 l 267 -8 q 214 -89 214 -33 q 248 -158 214 -129 q 361 -187 282 -187 l 474 -187 q 605 -162 560 -187 q 650 -87 650 -136 m 411 336 q 519 371 485 336 q 554 464 554 406 l 554 501 q 519 594 554 560 q 411 629 485 629 q 303 594 338 629 q 268 501 268 560 l 268 464 q 303 371 268 406 q 411 336 338 336 z "},"h":{"ha":833,"x_min":117,"x_max":724,"o":"m 117 1028 l 268 1028 l 268 594 l 275 594 q 303 648 286 622 q 346 692 321 674 q 404 722 371 711 q 482 733 438 733 q 657 663 590 733 q 724 461 724 592 l 724 0 l 572 0 l 572 439 q 424 610 572 610 q 367 602 394 610 q 317 579 339 594 q 281 540 294 564 q 268 486 268 517 l 268 0 l 117 0 l 117 1028 z "},"i":{"ha":833,"x_min":140,"x_max":765,"o":"m 461 847 q 380 871 403 847 q 357 929 357 894 l 357 958 q 380 1017 357 993 q 460 1040 403 1040 q 541 1017 518 1040 q 564 958 564 993 l 564 929 q 541 871 564 894 q 461 847 518 847 m 140 122 l 385 122 l 385 594 l 140 594 l 140 717 l 536 717 l 536 122 l 765 122 l 765 0 l 140 0 l 140 122 z "},"j":{"ha":833,"x_min":128,"x_max":632,"o":"m 136 -156 l 453 -156 l 453 594 l 128 594 l 128 717 l 604 717 l 604 -96 q 559 -227 604 -176 q 419 -278 514 -278 l 136 -278 l 136 -156 m 529 847 q 448 871 471 847 q 425 929 425 894 l 425 958 q 448 1017 425 993 q 528 1040 471 1040 q 609 1017 586 1040 q 632 958 632 993 l 632 929 q 609 871 632 894 q 529 847 586 847 z "},"k":{"ha":833,"x_min":122,"x_max":806,"o":"m 122 1028 l 274 1028 l 274 407 l 281 407 l 393 522 l 594 717 l 774 717 l 483 435 l 806 0 l 624 0 l 374 349 l 274 256 l 274 0 l 122 0 l 122 1028 z "},"l":{"ha":833,"x_min":104,"x_max":731,"o":"m 104 122 l 342 122 l 342 906 l 104 906 l 104 1028 l 493 1028 l 493 122 l 731 122 l 731 0 l 104 0 l 104 122 z "},"m":{"ha":833,"x_min":61,"x_max":771,"o":"m 61 0 l 61 717 l 190 717 l 190 624 l 197 624 q 245 701 214 669 q 335 733 276 733 q 423 702 392 733 q 463 617 454 671 l 468 617 q 522 699 488 665 q 622 733 557 733 q 738 675 706 733 q 771 504 771 617 l 771 0 l 642 0 l 642 485 q 624 588 642 560 q 565 617 606 617 q 505 592 529 617 q 481 519 481 568 l 481 0 l 351 0 l 351 485 q 334 588 351 560 q 276 617 317 617 q 215 592 239 617 q 190 519 190 568 l 190 0 l 61 0 z "},"n":{"ha":833,"x_min":117,"x_max":724,"o":"m 117 0 l 117 717 l 268 717 l 268 594 l 275 594 q 303 648 286 622 q 346 692 321 674 q 404 722 371 711 q 482 733 438 733 q 657 663 590 733 q 724 461 724 592 l 724 0 l 572 0 l 572 439 q 424 610 572 610 q 367 602 394 610 q 317 579 339 594 q 281 540 294 564 q 268 486 268 517 l 268 0 l 117 0 z "},"o":{"ha":833,"x_min":76,"x_max":757,"o":"m 417 -17 q 274 10 338 -17 q 167 85 211 36 q 100 203 124 133 q 76 358 76 272 q 100 514 76 444 q 167 632 124 583 q 274 707 211 681 q 417 733 338 733 q 559 707 496 733 q 666 632 622 681 q 733 514 710 583 q 757 358 757 444 q 733 203 757 272 q 666 85 710 133 q 559 10 622 36 q 417 -17 496 -17 m 417 103 q 549 153 500 103 q 599 304 599 204 l 599 413 q 549 563 599 513 q 417 614 500 614 q 284 563 333 614 q 235 413 235 513 l 235 304 q 284 153 235 204 q 417 103 333 103 z "},"p":{"ha":833,"x_min":110,"x_max":763,"o":"m 110 717 l 261 717 l 261 594 l 269 594 q 354 697 301 660 q 486 733 407 733 q 688 639 613 733 q 763 358 763 544 q 688 78 763 172 q 486 -17 613 -17 q 354 20 407 -17 q 269 122 301 57 l 261 122 l 261 -278 l 110 -278 l 110 717 m 424 107 q 556 160 510 107 q 603 300 603 213 l 603 417 q 556 557 603 504 q 424 610 510 610 q 361 601 390 610 q 310 576 332 593 q 274 535 288 560 q 261 478 261 511 l 261 239 q 274 181 261 206 q 310 140 288 157 q 361 115 332 124 q 424 107 390 107 z "},"q":{"ha":833,"x_min":71,"x_max":724,"o":"m 572 122 l 564 122 q 479 20 532 57 q 347 -17 426 -17 q 146 78 221 -17 q 71 358 71 172 q 146 639 71 544 q 347 733 221 733 q 479 697 426 733 q 564 594 532 660 l 572 594 l 572 717 l 724 717 l 724 -278 l 572 -278 l 572 122 m 410 107 q 472 115 443 107 q 524 140 501 124 q 559 181 546 157 q 572 239 572 206 l 572 478 q 559 535 572 511 q 524 576 546 560 q 472 601 501 593 q 410 610 443 610 q 277 557 324 610 q 231 417 231 504 l 231 300 q 277 160 231 213 q 410 107 324 107 z "},"r":{"ha":833,"x_min":106,"x_max":778,"o":"m 106 122 l 296 122 l 296 594 l 106 594 l 106 717 l 447 717 l 447 526 l 456 526 q 483 599 465 564 q 529 659 501 633 q 597 701 557 685 q 692 717 638 717 l 778 717 l 778 572 l 636 572 q 500 523 553 572 q 447 390 447 474 l 447 122 l 707 122 l 707 0 l 106 0 l 106 122 z "},"s":{"ha":833,"x_min":82,"x_max":733,"o":"m 418 -17 q 217 21 301 -17 q 82 121 133 58 l 175 204 q 281 126 222 153 q 421 99 340 99 q 540 124 494 99 q 585 201 585 149 q 576 239 585 224 q 553 264 568 254 q 517 279 538 274 q 475 288 497 285 l 361 306 q 276 324 319 311 q 199 359 233 336 q 144 418 165 382 q 122 510 122 454 q 206 676 122 619 q 428 733 290 733 q 601 703 528 733 q 722 621 674 674 l 638 532 q 558 591 610 564 q 422 618 507 618 q 271 522 271 618 q 303 459 271 476 q 381 436 336 442 l 494 418 q 580 400 538 411 q 656 366 622 389 q 712 307 690 343 q 733 215 733 271 q 649 45 733 107 q 418 -17 565 -17 z "},"t":{"ha":833,"x_min":56,"x_max":733,"o":"m 460 0 q 321 51 365 0 q 276 182 276 101 l 276 594 l 56 594 l 56 717 l 213 717 q 269 733 253 717 q 286 790 286 749 l 286 969 l 428 969 l 428 717 l 733 717 l 733 594 l 428 594 l 428 122 l 733 122 l 733 0 l 460 0 z "},"u":{"ha":833,"x_min":110,"x_max":717,"o":"m 565 122 l 558 122 q 530 69 547 94 q 488 24 513 43 q 429 -6 463 6 q 351 -17 396 -17 q 176 54 243 -17 q 110 256 110 125 l 110 717 l 261 717 l 261 278 q 410 107 261 107 q 467 115 439 107 q 517 138 494 122 q 552 176 539 153 q 565 231 565 199 l 565 717 l 717 717 l 717 0 l 565 0 l 565 122 z "},"v":{"ha":833,"x_min":67,"x_max":767,"o":"m 324 0 l 67 717 l 224 717 l 322 414 l 415 126 l 424 126 l 517 414 l 615 717 l 767 717 l 510 0 l 324 0 z "},"w":{"ha":833,"x_min":28,"x_max":806,"o":"m 28 717 l 157 717 l 226 114 l 239 114 l 346 717 l 493 717 l 599 114 l 611 114 l 682 717 l 806 717 l 706 0 l 519 0 l 424 556 l 411 556 l 314 0 l 128 0 l 28 717 z "},"x":{"ha":833,"x_min":63,"x_max":772,"o":"m 63 0 l 329 364 l 74 717 l 250 717 l 344 581 l 419 472 l 428 472 l 501 581 l 596 717 l 760 717 l 503 369 l 772 0 l 594 0 l 488 154 l 414 260 l 406 260 l 333 154 l 228 0 l 63 0 z "},"y":{"ha":833,"x_min":54,"x_max":779,"o":"m 626 717 l 779 717 l 432 -139 q 359 -243 404 -208 q 229 -278 314 -278 l 108 -278 l 108 -156 l 278 -156 l 343 10 l 54 717 l 213 717 l 326 417 l 415 171 l 424 171 l 513 417 l 626 717 z "},"z":{"ha":833,"x_min":107,"x_max":726,"o":"m 107 0 l 107 133 l 543 594 l 122 594 l 122 717 l 713 717 l 713 583 l 276 122 l 726 122 l 726 0 l 107 0 z "},"A":{"ha":833,"x_min":28,"x_max":807,"o":"m 642 0 l 568 258 l 260 258 l 186 0 l 28 0 l 311 969 l 524 969 l 807 0 l 642 0 m 419 813 l 408 813 l 289 388 l 539 388 l 419 813 z "},"B":{"ha":833,"x_min":115,"x_max":761,"o":"m 115 969 l 450 969 q 655 901 582 969 q 728 715 728 833 q 686 581 728 631 q 574 510 644 531 l 574 503 q 710 428 658 483 q 761 274 761 374 q 742 164 761 214 q 686 77 722 114 q 599 20 650 40 q 488 0 549 0 l 115 0 l 115 969 m 440 119 q 560 151 518 119 q 601 254 601 183 l 601 304 q 560 407 601 375 q 440 439 518 439 l 268 439 l 268 119 l 440 119 m 418 553 q 530 581 492 553 q 568 676 568 610 l 568 726 q 530 822 568 793 q 418 850 492 850 l 268 850 l 268 553 l 418 553 z "},"C":{"ha":833,"x_min":81,"x_max":763,"o":"m 444 -17 q 170 114 260 -17 q 81 485 81 244 q 170 856 81 725 q 444 986 260 986 q 567 967 515 986 q 657 916 619 949 q 720 840 694 883 q 763 746 746 796 l 622 699 q 597 761 611 732 q 563 811 583 790 q 513 844 542 832 q 443 857 485 857 q 293 778 340 857 q 246 567 246 700 l 246 403 q 293 191 246 269 q 443 113 340 113 q 513 125 485 113 q 563 158 542 138 q 597 208 583 179 q 622 271 611 238 l 763 224 q 720 130 746 174 q 657 53 694 86 q 567 2 619 21 q 444 -17 515 -17 z "},"D":{"ha":833,"x_min":114,"x_max":768,"o":"m 114 969 l 403 969 q 678 846 589 969 q 768 485 768 722 q 678 124 768 247 q 403 0 589 0 l 114 0 l 114 969 m 393 128 q 552 199 500 128 q 604 404 604 271 l 604 565 q 552 770 604 699 q 393 842 500 842 l 268 842 l 268 128 l 393 128 z "},"E":{"ha":833,"x_min":119,"x_max":726,"o":"m 119 0 l 119 969 l 726 969 l 726 839 l 275 839 l 275 557 l 710 557 l 710 426 l 275 426 l 275 131 l 726 131 l 726 0 l 119 0 z "},"F":{"ha":833,"x_min":119,"x_max":743,"o":"m 119 0 l 119 969 l 743 969 l 743 839 l 275 839 l 275 557 l 700 557 l 700 426 l 275 426 l 275 0 l 119 0 z "},"G":{"ha":833,"x_min":65,"x_max":739,"o":"m 597 133 l 588 133 q 558 77 575 104 q 515 29 540 50 q 453 -4 489 8 q 369 -17 417 -17 q 142 113 218 -17 q 65 478 65 242 q 153 856 65 725 q 421 986 240 986 q 545 967 492 986 q 636 915 599 947 q 699 838 674 882 q 739 746 724 794 l 599 699 q 574 759 588 731 q 540 810 560 788 q 491 844 519 832 q 422 857 463 857 q 276 778 321 857 q 231 567 231 700 l 231 413 q 240 290 231 346 q 273 195 250 235 q 333 133 296 156 q 422 111 369 111 q 552 162 507 111 q 597 292 597 213 l 597 379 l 410 379 l 410 496 l 739 496 l 739 0 l 597 0 l 597 133 z "},"H":{"ha":833,"x_min":100,"x_max":733,"o":"m 578 426 l 256 426 l 256 0 l 100 0 l 100 969 l 256 969 l 256 557 l 578 557 l 578 969 l 733 969 l 733 0 l 578 0 l 578 426 z "},"I":{"ha":833,"x_min":111,"x_max":722,"o":"m 111 0 l 111 118 l 339 118 l 339 851 l 111 851 l 111 969 l 722 969 l 722 851 l 494 851 l 494 118 l 722 118 l 722 0 l 111 0 z "},"J":{"ha":833,"x_min":82,"x_max":685,"o":"m 685 969 l 685 260 q 663 146 685 197 q 602 58 642 94 q 507 3 563 22 q 383 -17 451 -17 q 180 47 256 -17 q 82 224 104 111 l 229 254 q 276 154 242 194 q 385 114 311 114 q 491 155 453 114 q 529 281 529 196 l 529 839 l 192 839 l 192 969 l 685 969 z "},"K":{"ha":833,"x_min":108,"x_max":818,"o":"m 381 446 l 264 300 l 264 0 l 108 0 l 108 969 l 264 969 l 264 506 l 271 506 l 389 667 l 626 969 l 806 969 l 486 561 l 818 0 l 640 0 l 381 446 z "},"L":{"ha":833,"x_min":150,"x_max":747,"o":"m 150 0 l 150 969 l 306 969 l 306 131 l 747 131 l 747 0 l 150 0 z "},"M":{"ha":833,"x_min":78,"x_max":756,"o":"m 618 464 l 622 756 l 611 756 l 417 257 l 222 756 l 211 756 l 215 464 l 215 0 l 78 0 l 78 969 l 268 969 l 417 585 l 426 585 l 576 969 l 756 969 l 756 0 l 618 0 l 618 464 z "},"N":{"ha":833,"x_min":100,"x_max":733,"o":"m 249 746 l 236 746 l 236 0 l 100 0 l 100 969 l 300 969 l 585 224 l 597 224 l 597 969 l 733 969 l 733 0 l 533 0 l 249 746 z "},"O":{"ha":833,"x_min":61,"x_max":772,"o":"m 417 -17 q 258 17 325 -17 q 147 115 190 51 q 82 272 103 179 q 61 485 61 365 q 82 697 61 603 q 147 854 103 790 q 258 952 190 918 q 417 986 325 986 q 576 952 508 986 q 687 854 643 918 q 751 697 731 790 q 772 485 772 603 q 751 272 772 365 q 687 115 731 179 q 576 17 643 51 q 417 -17 508 -17 m 417 113 q 564 191 521 113 q 607 404 607 269 l 607 567 q 564 778 607 700 q 417 857 521 857 q 269 778 313 857 q 226 567 226 700 l 226 403 q 269 191 226 269 q 417 113 313 113 z "},"P":{"ha":833,"x_min":117,"x_max":764,"o":"m 117 0 l 117 969 l 479 969 q 691 892 618 969 q 764 678 764 814 q 691 464 764 542 q 479 386 618 386 l 272 386 l 272 0 l 117 0 m 272 515 l 456 515 q 600 649 600 515 l 600 708 q 456 840 600 840 l 272 840 l 272 515 z "},"Q":{"ha":833,"x_min":61,"x_max":772,"o":"m 703 -243 l 525 -243 q 389 -194 431 -243 q 347 -64 347 -144 l 347 -11 q 219 40 274 1 q 130 142 165 79 q 78 292 94 206 q 61 485 61 378 q 82 697 61 603 q 147 854 103 790 q 258 952 190 918 q 417 986 325 986 q 576 952 508 986 q 687 854 643 918 q 751 697 731 790 q 772 485 772 603 q 703 142 772 271 q 486 -11 633 13 l 486 -126 l 703 -126 l 703 -243 m 417 113 q 564 191 521 113 q 607 404 607 269 l 607 567 q 564 778 607 700 q 417 857 521 857 q 269 778 313 857 q 226 567 226 700 l 226 403 q 269 191 226 269 q 417 113 313 113 z "},"R":{"ha":833,"x_min":117,"x_max":778,"o":"m 271 0 l 117 0 l 117 969 l 479 969 q 691 892 618 969 q 764 678 764 814 q 710 494 764 567 q 554 406 656 422 l 778 0 l 606 0 l 400 392 l 271 392 l 271 0 m 457 517 q 601 649 601 517 l 601 708 q 457 840 601 840 l 271 840 l 271 517 l 457 517 z "},"S":{"ha":833,"x_min":54,"x_max":761,"o":"m 408 -17 q 196 28 282 -17 q 54 146 110 72 l 154 242 q 272 144 210 175 q 414 113 335 113 q 555 154 506 113 q 604 274 604 196 q 568 370 604 336 q 444 419 532 404 l 339 436 q 222 473 269 447 q 146 534 175 499 q 103 613 117 569 q 90 706 90 657 q 179 915 90 843 q 424 986 268 986 q 620 949 539 986 q 751 846 701 913 l 654 749 q 559 827 614 797 q 424 857 504 857 q 292 820 338 857 q 247 713 247 783 q 283 619 247 653 q 408 569 318 585 l 511 551 q 701 456 642 528 q 761 282 761 385 q 738 160 761 215 q 670 65 715 104 q 559 5 625 26 q 408 -17 493 -17 z "},"T":{"ha":833,"x_min":35,"x_max":799,"o":"m 494 839 l 494 0 l 339 0 l 339 839 l 35 839 l 35 969 l 799 969 l 799 839 l 494 839 z "},"U":{"ha":833,"x_min":96,"x_max":738,"o":"m 251 969 l 251 374 q 255 265 251 314 q 275 183 258 217 q 325 131 292 149 q 417 113 358 113 q 508 131 475 113 q 558 183 542 149 q 578 265 575 217 q 582 374 582 314 l 582 969 l 738 969 l 738 401 q 726 219 738 297 q 679 88 714 140 q 581 10 644 36 q 417 -17 518 -17 q 252 10 315 -17 q 154 88 189 36 q 108 219 119 140 q 96 401 96 297 l 96 969 l 251 969 z "},"V":{"ha":833,"x_min":35,"x_max":799,"o":"m 308 0 l 35 969 l 203 969 l 331 481 l 415 151 l 424 151 l 508 481 l 638 969 l 799 969 l 525 0 l 308 0 z "},"W":{"ha":833,"x_min":35,"x_max":799,"o":"m 104 0 l 35 969 l 171 969 l 206 406 l 221 157 l 232 157 l 342 735 l 496 735 l 606 157 l 617 157 l 632 406 l 668 969 l 799 969 l 729 0 l 521 0 l 422 561 l 411 561 l 313 0 l 104 0 z "},"X":{"ha":833,"x_min":26,"x_max":808,"o":"m 808 0 l 632 0 l 522 192 l 419 375 l 411 375 l 306 192 l 192 0 l 26 0 l 324 497 l 44 969 l 221 969 l 319 796 l 419 617 l 426 617 l 526 796 l 629 969 l 794 969 l 514 497 l 808 0 z "},"Y":{"ha":833,"x_min":17,"x_max":817,"o":"m 339 0 l 339 365 l 17 969 l 190 969 l 314 728 l 414 521 l 422 521 l 524 728 l 647 969 l 817 969 l 494 365 l 494 0 l 339 0 z "},"Z":{"ha":833,"x_min":67,"x_max":767,"o":"m 767 0 l 67 0 l 67 138 l 576 839 l 86 839 l 86 969 l 747 969 l 747 832 l 238 131 l 767 131 l 767 0 z "},"&":{"ha":833,"x_min":28,"x_max":810,"o":"m 296 -17 q 182 5 232 -17 q 98 64 132 26 q 46 151 64 101 q 28 257 28 200 q 67 408 28 336 q 201 532 106 481 q 135 638 160 586 q 111 747 111 689 q 131 844 111 800 q 186 919 151 888 q 269 969 221 951 q 371 986 317 986 q 460 972 419 986 q 531 936 500 958 q 583 885 563 914 q 615 828 604 857 l 503 769 q 451 840 486 813 q 368 867 417 867 q 283 834 315 867 q 250 750 250 801 l 250 740 q 256 700 250 719 q 274 658 261 681 q 306 609 286 636 q 356 544 326 582 l 461 414 l 549 299 l 556 299 q 568 417 565 350 q 572 542 571 483 l 790 542 l 790 424 l 689 424 q 670 316 681 365 q 636 208 660 267 l 810 0 l 642 0 l 525 139 l 517 139 q 444 26 501 68 q 296 -17 386 -17 m 335 107 q 420 126 382 107 q 482 185 458 144 l 267 450 q 194 367 214 413 q 175 271 175 322 l 175 258 q 219 147 175 188 q 335 107 263 107 z "},"@":{"ha":833,"x_min":72,"x_max":746,"o":"m 626 -156 l 465 -156 q 281 -120 356 -156 q 159 -13 206 -85 q 92 167 113 58 q 72 419 72 275 q 95 688 72 579 q 162 863 118 796 q 270 958 206 929 q 418 986 335 986 q 566 960 504 986 q 668 888 628 933 q 727 778 708 842 q 746 643 746 715 l 746 126 l 626 126 l 626 208 l 618 208 q 571 138 603 165 q 482 111 539 111 q 351 183 400 111 q 303 408 303 254 q 351 634 303 563 q 482 706 400 706 q 571 678 539 706 q 618 608 603 650 l 626 608 l 626 643 q 424 879 626 879 q 324 859 367 879 q 253 793 281 839 q 211 674 225 747 q 197 497 197 601 l 197 318 q 210 170 197 238 q 253 54 222 103 q 335 -22 283 6 q 465 -49 388 -49 l 626 -49 l 626 -156 m 529 208 q 600 233 574 208 q 626 306 626 258 l 626 511 q 600 583 626 558 q 529 608 574 608 q 454 574 481 608 q 428 453 428 540 l 428 364 q 454 242 428 276 q 529 208 481 208 z "},"-":{"ha":833,"x_min":207,"x_max":626,"o":"m 207 347 l 207 499 l 626 499 l 626 347 l 207 347 z "},"­":{"ha":833,"x_min":207,"x_max":626,"o":"m 207 347 l 207 499 l 626 499 l 626 347 l 207 347 z "},"–":{"ha":833,"x_min":83,"x_max":750,"o":"m 83 357 l 83 488 l 750 488 l 750 357 l 83 357 z "},"—":{"ha":833,"x_min":0,"x_max":833,"o":"m 0 357 l 0 488 l 833 488 l 833 357 l 0 357 z "},"_":{"ha":833,"x_min":83,"x_max":750,"o":"m 83 -249 l 83 -118 l 750 -118 l 750 -249 l 83 -249 z "},".":{"ha":833,"x_min":296,"x_max":538,"o":"m 417 -14 q 323 14 350 -14 q 296 82 296 42 l 296 118 q 323 186 296 158 q 417 214 350 214 q 510 186 483 214 q 538 118 538 158 l 538 82 q 510 14 538 42 q 417 -14 483 -14 z "},"…":{"ha":833,"x_min":53,"x_max":781,"o":"m 146 -7 q 74 14 96 -7 q 53 65 53 35 l 53 115 q 74 167 53 146 q 146 188 96 188 q 217 167 194 188 q 239 115 239 146 l 239 65 q 217 14 239 35 q 146 -7 194 -7 m 417 -7 q 346 14 368 -7 q 324 65 324 35 l 324 115 q 346 167 324 146 q 417 188 368 188 q 488 167 465 188 q 510 115 510 146 l 510 65 q 488 14 510 35 q 417 -7 465 -7 m 688 -7 q 617 14 639 -7 q 594 65 594 35 l 594 115 q 617 167 594 146 q 688 188 639 188 q 758 167 736 188 q 781 115 781 146 l 781 65 q 758 14 781 35 q 688 -7 736 -7 z "},":":{"ha":833,"x_min":296,"x_max":538,"o":"m 417 -14 q 323 14 350 -14 q 296 82 296 42 l 296 118 q 323 186 296 158 q 417 214 350 214 q 510 186 483 214 q 538 118 538 158 l 538 82 q 510 14 538 42 q 417 -14 483 -14 m 417 503 q 323 531 350 503 q 296 599 296 558 l 296 635 q 323 703 296 675 q 417 731 350 731 q 510 703 483 731 q 538 635 538 675 l 538 599 q 510 531 538 558 q 417 503 483 503 z "},",":{"ha":833,"x_min":264,"x_max":554,"o":"m 339 211 l 554 211 l 382 -201 l 264 -201 l 339 211 z "},";":{"ha":833,"x_min":264,"x_max":554,"o":"m 339 211 l 554 211 l 382 -201 l 264 -201 l 339 211 m 417 503 q 323 531 350 503 q 296 599 296 558 l 296 635 q 323 703 296 675 q 417 731 350 731 q 510 703 483 731 q 538 635 538 675 l 538 599 q 510 531 538 558 q 417 503 483 503 z "},"'":{"ha":833,"x_min":347,"x_max":486,"o":"m 347 614 l 347 1028 l 486 1028 l 486 614 l 347 614 z "},"\"":{"ha":833,"x_min":211,"x_max":624,"o":"m 211 614 l 211 1028 l 350 1028 l 350 614 l 211 614 m 485 614 l 485 1028 l 624 1028 l 624 614 l 485 614 z "},"‘":{"ha":833,"x_min":251,"x_max":542,"o":"m 425 1028 l 542 1028 l 467 614 l 251 614 l 425 1028 z "},"’":{"ha":833,"x_min":292,"x_max":582,"o":"m 367 1028 l 582 1028 l 408 614 l 292 614 l 367 1028 z "},"“":{"ha":833,"x_min":86,"x_max":718,"o":"m 260 1028 l 376 1028 l 301 614 l 86 614 l 260 1028 m 601 1028 l 718 1028 l 643 614 l 428 614 l 601 1028 z "},"”":{"ha":833,"x_min":126,"x_max":758,"o":"m 201 1028 l 417 1028 l 243 614 l 126 614 l 201 1028 m 543 1028 l 758 1028 l 585 614 l 468 614 l 543 1028 z "},"‚":{"ha":833,"x_min":264,"x_max":554,"o":"m 339 211 l 554 211 l 382 -201 l 264 -201 l 339 211 z "},"„":{"ha":833,"x_min":115,"x_max":747,"o":"m 190 211 l 406 211 l 233 -201 l 115 -201 l 190 211 m 532 211 l 747 211 l 575 -201 l 457 -201 l 532 211 z "},"‹":{"ha":833,"x_min":238,"x_max":567,"o":"m 521 65 l 238 304 l 238 446 l 521 685 l 567 583 l 372 375 l 567 167 l 521 65 z "},"›":{"ha":833,"x_min":267,"x_max":596,"o":"m 267 167 l 461 375 l 267 583 l 313 685 l 596 446 l 596 304 l 313 65 l 267 167 z "},"«":{"ha":833,"x_min":94,"x_max":751,"o":"m 378 65 l 94 304 l 94 446 l 378 685 l 424 583 l 229 375 l 424 167 l 378 65 m 706 65 l 422 304 l 422 446 l 706 685 l 751 583 l 557 375 l 751 167 l 706 65 z "},"»":{"ha":833,"x_min":83,"x_max":740,"o":"m 83 167 l 278 375 l 83 583 l 129 685 l 413 446 l 413 304 l 129 65 l 83 167 m 411 167 l 606 375 l 411 583 l 457 685 l 740 446 l 740 304 l 457 65 l 411 167 z "},"¡":{"ha":833,"x_min":300,"x_max":533,"o":"m 333 -253 l 333 29 l 390 388 l 443 388 l 500 29 l 500 -253 l 333 -253 m 417 511 q 326 538 353 511 q 300 604 300 564 l 300 638 q 326 704 300 678 q 417 731 353 731 q 507 704 481 731 q 533 638 533 678 l 533 604 q 507 538 533 564 q 417 511 481 511 z "},"!":{"ha":833,"x_min":300,"x_max":533,"o":"m 390 329 l 333 688 l 333 969 l 500 969 l 500 688 l 443 329 l 390 329 m 417 -14 q 326 13 353 -14 q 300 79 300 39 l 300 113 q 326 179 300 153 q 417 206 353 206 q 507 179 481 206 q 533 113 533 153 l 533 79 q 507 13 533 39 q 417 -14 481 -14 z "},"¿":{"ha":833,"x_min":115,"x_max":736,"o":"m 421 -269 q 295 -250 351 -269 q 199 -195 239 -231 q 137 -109 158 -160 q 115 3 115 -58 q 138 114 115 65 q 196 197 160 163 q 278 254 232 232 q 374 285 325 276 l 374 407 l 519 407 l 519 192 q 342 147 407 188 q 276 18 276 106 l 276 -1 q 317 -104 276 -71 q 426 -137 358 -137 q 543 -97 499 -137 q 604 7 588 -56 l 736 -46 q 698 -131 724 -90 q 634 -201 672 -171 q 542 -251 596 -232 q 421 -269 489 -269 m 443 511 q 353 538 379 511 q 326 604 326 564 l 326 638 q 353 704 326 678 q 443 731 379 731 q 533 704 507 731 q 560 638 560 678 l 560 604 q 533 538 560 564 q 443 511 507 511 z "},"?":{"ha":833,"x_min":97,"x_max":718,"o":"m 314 310 l 314 525 q 492 570 426 529 q 557 699 557 611 l 557 718 q 516 821 557 788 q 407 854 475 854 q 290 813 335 854 q 229 710 246 772 l 97 763 q 135 847 110 806 q 199 918 161 888 q 290 967 238 949 q 413 986 343 986 q 538 967 482 986 q 635 912 594 947 q 697 826 675 876 q 718 714 718 775 q 696 603 718 651 q 638 519 674 554 q 555 463 601 485 q 460 432 508 440 l 460 310 l 314 310 m 390 -14 q 300 13 326 -14 q 274 79 274 39 l 274 113 q 300 179 274 153 q 390 206 326 206 q 481 179 454 206 q 507 113 507 153 l 507 79 q 481 13 507 39 q 390 -14 454 -14 z "},"(":{"ha":833,"x_min":267,"x_max":707,"o":"m 267 432 q 290 627 267 533 q 352 801 313 721 q 444 947 392 882 q 556 1056 497 1011 l 707 1056 q 589 951 644 1011 q 492 819 533 892 q 425 666 450 747 q 400 496 400 585 l 400 368 q 425 198 400 279 q 492 44 450 117 q 589 -87 533 -28 q 707 -192 644 -147 l 556 -192 q 444 -83 497 -149 q 352 63 392 -18 q 290 237 313 143 q 267 432 267 331 z "},")":{"ha":833,"x_min":126,"x_max":567,"o":"m 567 432 q 544 237 567 331 q 481 63 521 143 q 389 -83 442 -18 q 278 -192 336 -149 l 126 -192 q 244 -87 189 -147 q 342 44 300 -28 q 408 198 383 117 q 433 368 433 279 l 433 496 q 408 666 433 585 q 342 819 383 747 q 244 951 300 892 q 126 1056 189 1011 l 278 1056 q 389 947 336 1011 q 481 801 442 882 q 544 627 521 721 q 567 432 567 533 z "},"[":{"ha":833,"x_min":288,"x_max":703,"o":"m 288 -192 l 288 1056 l 703 1056 l 703 947 l 413 947 l 413 -83 l 703 -83 l 703 -192 l 288 -192 z "},"]":{"ha":833,"x_min":131,"x_max":546,"o":"m 546 1056 l 546 -192 l 131 -192 l 131 -83 l 421 -83 l 421 947 l 131 947 l 131 1056 l 546 1056 z "},"{":{"ha":833,"x_min":139,"x_max":694,"o":"m 450 -192 q 342 -155 376 -192 q 308 -62 308 -118 l 308 14 q 315 78 308 50 q 334 127 322 106 q 360 165 346 149 q 386 197 374 182 q 419 245 410 225 q 428 288 428 265 q 254 378 428 378 l 139 378 l 139 486 l 254 486 q 428 576 428 486 q 419 619 428 599 q 386 667 410 639 q 360 699 374 682 q 335 738 346 717 q 316 786 324 758 q 308 850 308 814 l 308 926 q 342 1019 308 982 q 450 1056 376 1056 l 694 1056 l 694 947 l 433 947 l 433 858 q 438 810 433 831 q 449 774 442 790 q 467 743 457 757 q 489 715 478 729 q 533 653 513 686 q 554 575 554 619 q 513 481 554 517 q 397 436 472 446 l 397 428 q 513 383 472 418 q 554 289 554 347 q 533 211 554 244 q 489 149 513 178 q 467 121 478 135 q 449 90 457 107 q 438 53 442 74 q 433 6 433 33 l 433 -83 l 694 -83 l 694 -192 l 450 -192 z "},"}":{"ha":833,"x_min":139,"x_max":694,"o":"m 383 1056 q 491 1019 457 1056 q 525 926 525 982 l 525 850 q 517 786 525 814 q 499 738 510 758 q 474 699 488 717 q 447 667 460 682 q 415 619 424 639 q 406 576 406 599 q 579 486 406 486 l 694 486 l 694 378 l 579 378 q 406 288 406 378 q 415 245 406 265 q 447 197 424 225 q 474 164 460 181 q 499 126 488 147 q 518 77 511 104 q 525 14 525 50 l 525 -62 q 491 -155 525 -118 q 383 -192 457 -192 l 139 -192 l 139 -83 l 400 -83 l 400 6 q 383 91 400 61 q 344 149 367 121 q 300 211 321 178 q 279 289 279 244 q 320 383 279 347 q 436 428 361 418 l 436 436 q 320 481 361 446 q 279 575 279 517 q 300 653 279 619 q 344 715 321 686 q 383 773 367 743 q 400 858 400 803 l 400 947 l 139 947 l 139 1056 l 383 1056 z "},"/":{"ha":833,"x_min":115,"x_max":718,"o":"m 115 -192 l 583 1056 l 718 1056 l 250 -192 l 115 -192 z "},"\\":{"ha":833,"x_min":115,"x_max":718,"o":"m 583 -192 l 115 1056 l 250 1056 l 718 -192 l 583 -192 z "},"⁄":{"ha":833,"x_min":15,"x_max":818,"o":"m 700 969 l 818 969 l 589 553 l 471 553 l 700 969 m 244 417 l 363 417 l 133 0 l 15 0 l 244 417 z "},"∕":{"ha":833,"x_min":15,"x_max":818,"o":"m 700 969 l 818 969 l 589 553 l 471 553 l 700 969 m 244 417 l 363 417 l 133 0 l 15 0 l 244 417 z "},"%":{"ha":833,"x_min":15,"x_max":818,"o":"m 232 483 q 78 548 136 483 q 21 735 21 613 q 78 922 21 857 q 232 986 136 986 q 385 922 328 986 q 443 735 443 857 q 385 548 443 613 q 232 483 328 483 m 232 578 q 303 610 278 578 q 328 701 328 643 l 328 768 q 303 859 328 826 q 232 892 278 892 q 161 859 186 892 q 136 768 136 826 l 136 701 q 161 610 136 643 q 232 578 186 578 m 693 969 l 818 969 l 600 553 l 476 553 l 693 969 m 233 417 l 357 417 l 140 0 l 15 0 l 233 417 m 601 -17 q 448 48 506 -17 q 390 235 390 113 q 448 422 390 357 q 601 486 506 486 q 755 422 697 486 q 813 235 813 357 q 755 48 813 113 q 601 -17 697 -17 m 601 78 q 672 110 647 78 q 697 201 697 143 l 697 268 q 672 359 697 326 q 601 392 647 392 q 531 359 556 392 q 506 268 506 326 l 506 201 q 531 110 506 143 q 601 78 556 78 z "},"‰":{"ha":833,"x_min":0,"x_max":833,"o":"m 199 556 q 52 611 104 556 q 0 771 0 667 q 52 931 0 875 q 199 986 104 986 q 345 931 293 986 q 397 771 397 875 q 345 611 397 667 q 199 556 293 556 m 199 642 q 263 670 240 642 q 285 742 285 699 l 285 800 q 263 872 285 843 q 199 900 240 900 q 135 872 157 900 q 113 800 113 843 l 113 742 q 135 670 113 699 q 199 642 157 642 m 83 464 l 715 689 l 743 610 l 111 385 l 83 464 m 347 -17 q 203 40 256 -17 q 151 199 151 96 q 203 358 151 303 q 347 414 256 414 q 428 397 392 414 q 489 347 465 379 l 497 347 q 557 397 521 379 q 638 414 593 414 q 781 358 729 414 q 833 199 833 301 q 781 39 833 94 q 638 -17 729 -17 q 556 1 593 -17 q 496 50 519 18 l 488 50 q 428 1 464 18 q 347 -17 392 -17 m 350 69 q 414 98 392 69 q 436 169 436 126 l 436 228 q 414 299 436 271 q 350 328 392 328 q 286 299 308 328 q 264 228 264 271 l 264 169 q 286 98 264 126 q 350 69 308 69 m 635 69 q 699 98 676 69 q 721 169 721 126 l 721 228 q 699 299 721 271 q 635 328 676 328 q 571 299 593 328 q 549 228 549 271 l 549 169 q 571 98 549 126 q 635 69 593 69 z "},"|":{"ha":833,"x_min":351,"x_max":482,"o":"m 351 -192 l 351 1056 l 482 1056 l 482 -192 l 351 -192 z "},"¦":{"ha":833,"x_min":351,"x_max":482,"o":"m 351 557 l 351 1056 l 482 1056 l 482 557 l 351 557 m 351 -192 l 351 307 l 482 307 l 482 -192 l 351 -192 z "},"§":{"ha":833,"x_min":103,"x_max":738,"o":"m 690 4 q 669 -92 690 -49 q 610 -165 649 -135 q 517 -212 571 -196 q 399 -228 464 -228 q 265 -208 332 -228 q 144 -140 199 -189 l 225 -44 q 303 -94 260 -76 q 400 -111 347 -111 q 512 -81 471 -111 q 553 0 553 -51 q 518 73 553 46 q 417 118 483 100 l 319 146 q 153 234 203 178 q 103 358 103 290 q 142 472 103 422 q 257 553 182 522 l 257 567 q 176 649 201 601 q 150 754 150 697 q 171 850 150 807 q 231 923 192 893 q 323 969 269 953 q 442 986 376 986 q 575 967 508 986 q 696 899 642 947 l 615 803 q 537 852 581 835 q 440 869 493 869 q 328 840 369 869 q 288 758 288 810 q 322 685 288 713 q 424 640 357 658 l 521 613 q 688 524 638 581 q 738 400 738 468 q 699 286 738 336 q 583 206 660 236 l 583 192 q 665 109 639 157 q 690 4 690 61 m 601 358 q 569 442 601 408 q 457 497 536 475 l 361 522 q 338 529 349 525 q 315 538 326 533 q 259 476 279 510 q 239 400 239 442 q 272 317 239 350 q 383 261 304 283 l 479 236 q 503 229 492 233 q 525 221 514 225 q 581 283 561 249 q 601 358 601 317 z "},"¶":{"ha":833,"x_min":49,"x_max":728,"o":"m 361 342 q 240 365 296 342 q 140 431 183 389 q 73 530 97 472 q 49 656 49 588 q 73 781 49 724 q 140 881 97 839 q 240 946 183 922 q 361 969 296 969 l 728 969 l 728 -207 l 600 -207 l 600 850 l 489 850 l 489 -207 l 361 -207 l 361 342 z "},"©":{"ha":833,"x_min":0,"x_max":833,"o":"m 417 25 q 253 57 329 25 q 122 149 178 89 q 33 293 65 208 q 0 485 0 378 q 33 676 0 590 q 122 821 65 761 q 253 913 178 881 q 417 944 329 944 q 580 913 504 944 q 712 821 656 881 q 801 676 768 761 q 833 485 833 590 q 801 293 833 378 q 712 149 768 208 q 580 57 656 89 q 417 25 504 25 m 417 101 q 548 128 488 101 q 652 201 608 154 q 721 310 696 247 q 746 443 746 372 l 746 526 q 721 660 746 597 q 652 769 696 722 q 548 842 608 815 q 417 868 488 868 q 285 842 346 868 q 181 769 225 815 q 113 660 138 722 q 88 526 88 597 l 88 443 q 113 310 88 372 q 181 201 138 247 q 285 128 225 154 q 417 101 346 101 m 426 226 q 256 297 318 226 q 194 485 194 367 q 258 673 194 603 q 426 743 321 743 q 547 708 501 743 q 617 618 593 674 l 525 569 q 487 622 510 603 q 428 642 464 642 q 351 610 379 642 q 324 528 324 579 l 324 440 q 351 359 324 390 q 429 328 378 328 q 494 349 469 328 q 535 401 518 369 l 625 351 q 553 263 601 299 q 426 226 506 226 z "},"®":{"ha":833,"x_min":163,"x_max":671,"o":"m 417 481 q 317 500 364 481 q 236 553 271 519 q 182 633 201 586 q 163 733 163 679 q 182 834 163 788 q 236 914 201 881 q 317 967 271 947 q 417 986 364 986 q 516 967 469 986 q 597 914 563 947 q 651 834 631 881 q 671 733 671 788 q 651 633 671 679 q 597 553 631 586 q 516 500 563 519 q 417 481 469 481 m 417 538 q 491 551 457 538 q 550 588 525 564 q 590 644 575 611 q 604 719 604 678 l 604 747 q 590 822 604 789 q 550 879 575 856 q 491 916 525 903 q 417 929 457 929 q 342 916 376 929 q 283 879 308 903 q 244 822 258 856 q 229 747 229 789 l 229 719 q 244 644 229 678 q 283 588 258 611 q 342 551 308 564 q 417 538 376 538 m 379 606 l 315 606 l 315 863 l 438 863 q 504 840 482 863 q 526 779 526 817 q 513 733 526 751 q 476 704 500 714 l 536 606 l 465 606 l 415 693 l 379 693 l 379 606 m 422 740 q 458 771 458 740 l 458 782 q 422 813 458 813 l 379 813 l 379 740 l 422 740 z "},"™":{"ha":833,"x_min":21,"x_max":758,"o":"m 131 576 l 131 897 l 21 897 l 21 969 l 332 969 l 332 897 l 222 897 l 222 576 l 131 576 m 378 576 l 378 969 l 483 969 l 568 799 l 574 799 l 660 969 l 758 969 l 758 576 l 678 576 l 678 735 l 683 856 l 678 856 l 568 646 l 458 856 l 453 856 l 458 735 l 458 576 l 378 576 z "},"ª":{"ha":833,"x_min":185,"x_max":658,"o":"m 596 486 q 528 507 551 486 q 501 565 504 528 l 496 565 q 442 501 481 526 q 342 475 404 475 q 226 513 267 475 q 185 618 185 551 q 240 730 185 693 q 400 767 296 767 l 493 767 l 493 799 q 393 900 493 900 q 315 881 346 900 q 267 832 285 861 l 200 889 q 272 957 222 928 q 403 986 322 986 q 551 940 497 986 q 604 804 604 893 l 604 575 l 658 575 l 658 486 l 596 486 m 400 696 q 323 681 350 696 q 296 633 296 665 l 296 617 q 317 570 296 585 q 375 556 338 556 q 458 577 424 556 q 493 639 493 599 l 493 696 l 400 696 z "},"º":{"ha":833,"x_min":182,"x_max":651,"o":"m 417 475 q 244 543 307 475 q 182 731 182 611 q 244 918 182 850 q 417 986 307 986 q 589 918 526 986 q 651 731 651 850 q 589 543 651 611 q 417 475 526 475 m 417 563 q 503 597 474 563 q 533 690 533 632 l 533 771 q 503 864 533 829 q 417 899 474 899 q 330 864 360 899 q 300 771 300 829 l 300 690 q 330 597 300 632 q 417 563 360 563 z "},"°":{"ha":833,"x_min":169,"x_max":664,"o":"m 417 492 q 319 510 364 492 q 240 563 274 529 q 188 641 207 596 q 169 739 169 686 q 188 837 169 792 q 240 915 207 882 q 319 967 274 949 q 417 986 364 986 q 513 967 468 986 q 592 915 558 949 q 644 837 625 882 q 664 739 664 792 q 644 641 664 686 q 592 563 625 596 q 513 510 558 529 q 417 492 468 492 m 417 599 q 513 639 476 599 q 549 739 549 679 q 513 839 549 799 q 417 879 476 879 q 321 839 357 879 q 285 739 285 799 q 321 639 285 679 q 417 599 357 599 z "},"′":{"ha":833,"x_min":306,"x_max":526,"o":"m 306 508 l 388 969 l 526 969 l 444 508 l 306 508 z "},"″":{"ha":833,"x_min":169,"x_max":664,"o":"m 169 508 l 251 969 l 390 969 l 308 508 l 169 508 m 443 508 l 525 969 l 664 969 l 582 508 l 443 508 z "},"*":{"ha":833,"x_min":53,"x_max":781,"o":"m 253 67 l 146 140 l 313 365 l 53 453 l 92 572 l 350 485 l 350 763 l 483 763 l 483 485 l 742 572 l 781 453 l 521 365 l 688 140 l 581 67 l 417 292 l 253 67 z "},"†":{"ha":833,"x_min":92,"x_max":742,"o":"m 351 -278 l 351 603 l 92 603 l 92 717 l 351 717 l 351 1028 l 482 1028 l 482 717 l 742 717 l 742 603 l 482 603 l 482 -278 l 351 -278 z "},"‡":{"ha":833,"x_min":92,"x_max":742,"o":"m 351 -278 l 351 33 l 92 33 l 92 147 l 351 147 l 351 603 l 92 603 l 92 717 l 351 717 l 351 1028 l 482 1028 l 482 717 l 742 717 l 742 603 l 482 603 l 482 147 l 742 147 l 742 33 l 482 33 l 482 -278 l 351 -278 z "},"#":{"ha":833,"x_min":18,"x_max":815,"o":"m 188 288 l 18 288 l 18 404 l 208 404 l 236 565 l 69 565 l 69 682 l 257 682 l 308 969 l 435 969 l 264 0 l 138 0 l 188 288 m 569 969 l 696 969 l 646 682 l 815 682 l 815 565 l 625 565 l 597 404 l 764 404 l 764 288 l 576 288 l 525 0 l 399 0 l 569 969 z "},"^":{"ha":833,"x_min":51,"x_max":782,"o":"m 660 371 l 418 835 l 408 835 l 167 371 l 51 426 l 335 969 l 499 969 l 782 426 l 660 371 z "},"~":{"ha":833,"x_min":63,"x_max":771,"o":"m 553 260 q 461 287 501 260 q 386 361 421 314 q 328 434 353 407 q 276 461 303 461 q 213 412 236 461 q 174 275 189 363 l 63 297 q 138 515 85 442 q 281 588 192 588 q 372 560 332 588 q 447 486 413 533 q 506 413 481 440 q 557 386 531 386 q 621 435 597 386 q 660 572 644 485 l 771 550 q 695 333 749 406 q 553 260 642 260 z "},"+":{"ha":833,"x_min":86,"x_max":747,"o":"m 349 86 l 349 363 l 86 363 l 86 486 l 349 486 l 349 763 l 485 763 l 485 486 l 747 486 l 747 363 l 485 363 l 485 86 l 349 86 z "},"−":{"ha":833,"x_min":86,"x_max":747,"o":"m 86 363 l 86 486 l 747 486 l 747 363 l 86 363 z "},"±":{"ha":833,"x_min":86,"x_max":747,"o":"m 349 228 l 349 486 l 86 486 l 86 610 l 349 610 l 349 868 l 485 868 l 485 610 l 747 610 l 747 486 l 485 486 l 485 228 l 349 228 m 86 0 l 86 124 l 747 124 l 747 0 l 86 0 z "},"×":{"ha":833,"x_min":111,"x_max":722,"o":"m 417 335 l 201 118 l 111 208 l 328 424 l 111 639 l 201 729 l 417 513 l 632 729 l 722 639 l 506 424 l 722 208 l 632 118 l 417 335 z "},"÷":{"ha":833,"x_min":86,"x_max":747,"o":"m 86 363 l 86 486 l 747 486 l 747 363 l 86 363 m 417 58 q 338 81 361 58 q 315 138 315 104 l 315 169 q 338 226 315 203 q 417 249 361 249 q 495 226 472 249 q 518 169 518 203 l 518 138 q 495 81 518 104 q 417 58 472 58 m 417 600 q 338 623 361 600 q 315 679 315 646 l 315 711 q 338 767 315 744 q 417 790 361 790 q 495 767 472 790 q 518 711 518 744 l 518 679 q 495 623 518 646 q 417 600 472 600 z "},"=":{"ha":833,"x_min":86,"x_max":747,"o":"m 86 510 l 86 633 l 747 633 l 747 510 l 86 510 m 86 215 l 86 339 l 747 339 l 747 215 l 86 215 z "},"≈":{"ha":833,"x_min":63,"x_max":771,"o":"m 567 460 q 486 474 524 460 q 407 508 449 488 q 338 541 371 526 q 275 556 306 556 q 215 530 238 556 q 174 460 192 504 l 63 503 q 134 632 82 582 q 267 682 186 682 q 347 668 310 682 q 426 633 385 654 q 495 601 463 615 q 558 586 528 586 q 619 612 596 586 q 660 682 642 638 l 771 639 q 699 510 751 560 q 567 460 647 460 m 567 165 q 486 179 524 165 q 407 214 449 193 q 338 247 371 232 q 275 261 306 261 q 215 235 238 261 q 174 165 192 210 l 63 208 q 134 338 82 288 q 267 388 186 388 q 347 374 310 388 q 426 339 385 360 q 495 306 463 321 q 558 292 528 292 q 619 317 596 292 q 660 388 642 343 l 771 344 q 699 215 751 265 q 567 165 647 165 z "},"≠":{"ha":833,"x_min":86,"x_max":747,"o":"m 164 79 l 239 215 l 86 215 l 86 339 l 307 339 l 400 510 l 86 510 l 86 633 l 464 633 l 539 769 l 669 769 l 594 633 l 747 633 l 747 510 l 526 510 l 433 339 l 747 339 l 747 215 l 369 215 l 294 79 l 164 79 z "},"<":{"ha":833,"x_min":118,"x_max":715,"o":"m 118 351 l 118 496 l 715 831 l 715 683 l 256 429 l 256 418 l 715 165 l 715 17 l 118 351 z "},">":{"ha":833,"x_min":118,"x_max":715,"o":"m 118 164 l 578 418 l 578 429 l 118 682 l 118 831 l 715 496 l 715 351 l 118 17 l 118 164 z "},"≤":{"ha":833,"x_min":118,"x_max":715,"o":"m 118 0 l 118 122 l 715 122 l 715 0 l 118 0 m 715 688 l 261 508 l 261 499 l 715 319 l 715 181 l 118 426 l 118 579 l 715 825 l 715 688 z "},"≥":{"ha":833,"x_min":118,"x_max":715,"o":"m 118 318 l 572 497 l 572 507 l 118 686 l 118 825 l 715 579 l 715 426 l 118 181 l 118 318 m 118 122 l 715 122 l 715 0 l 118 0 l 118 122 z "},"·":{"ha":833,"x_min":296,"x_max":538,"o":"m 417 308 q 323 336 350 308 q 296 404 296 364 l 296 440 q 323 508 296 481 q 417 536 350 536 q 510 508 483 536 q 538 440 538 481 l 538 404 q 510 336 538 364 q 417 308 483 308 z "},"•":{"ha":833,"x_min":229,"x_max":604,"o":"m 417 240 q 272 286 314 240 q 229 401 229 332 l 229 443 q 239 507 229 478 q 271 558 249 536 q 329 592 293 579 q 417 604 365 604 q 504 592 468 604 q 563 558 540 579 q 594 507 585 536 q 604 443 604 478 l 604 401 q 562 286 604 332 q 417 240 519 240 z "},"◊":{"ha":833,"x_min":50,"x_max":783,"o":"m 353 0 l 50 485 l 353 969 l 481 969 l 783 485 l 481 0 l 353 0 m 421 132 l 639 485 l 421 838 l 413 838 l 194 485 l 413 132 l 421 132 z "},"¬":{"ha":833,"x_min":86,"x_max":725,"o":"m 599 94 l 599 363 l 86 363 l 86 486 l 725 486 l 725 94 l 599 94 z "},"√":{"ha":833,"x_min":28,"x_max":808,"o":"m 328 0 l 157 593 l 28 593 l 28 717 l 261 717 l 331 469 l 424 115 l 432 115 l 531 469 l 674 969 l 808 969 l 524 0 l 328 0 z "},"∫":{"ha":833,"x_min":44,"x_max":753,"o":"m 44 -156 l 324 -156 l 324 846 q 368 977 324 926 q 507 1028 413 1028 l 753 1028 l 753 906 l 474 906 l 474 -96 q 429 -227 474 -176 q 290 -278 385 -278 l 44 -278 l 44 -156 z "},"∞":{"ha":833,"x_min":15,"x_max":818,"o":"m 221 175 q 69 240 122 175 q 15 424 15 306 q 72 607 15 542 q 232 672 129 672 q 356 629 304 672 q 439 490 408 586 l 444 490 q 506 628 460 583 q 613 672 553 672 q 765 607 711 672 q 818 424 818 542 q 761 240 818 306 q 601 175 704 175 q 477 218 529 175 q 394 357 425 261 l 389 357 q 327 219 374 264 q 221 175 281 175 m 235 285 q 315 322 282 285 q 367 418 347 358 q 314 522 346 482 q 235 563 282 563 q 169 533 194 563 q 144 450 144 504 l 144 397 q 169 314 144 343 q 235 285 194 285 m 599 285 q 664 314 639 285 q 689 397 689 343 l 689 450 q 664 533 689 504 q 599 563 639 563 q 519 526 551 563 q 467 429 486 489 q 519 325 488 365 q 599 285 551 285 z "},"℮":{"ha":833,"x_min":36,"x_max":797,"o":"m 225 138 q 304 78 254 103 q 417 53 354 53 q 587 106 521 53 q 697 242 653 160 l 760 207 q 703 120 735 161 q 629 49 671 79 q 535 1 588 19 q 417 -17 482 -17 q 260 22 331 -17 q 140 126 190 60 q 63 285 90 193 q 36 485 36 376 q 63 685 36 593 q 140 843 90 776 q 260 948 190 910 q 417 986 331 986 q 573 948 503 986 q 693 843 643 910 q 770 685 743 776 q 797 485 797 593 l 225 485 l 225 138 m 608 547 l 608 839 q 528 897 576 875 q 417 919 479 919 q 306 897 354 919 q 225 839 257 875 l 225 547 l 608 547 z "},"ℓ":{"ha":833,"x_min":75,"x_max":735,"o":"m 453 -17 q 275 48 340 -17 q 210 221 210 113 l 210 240 q 174 217 194 229 q 139 194 154 204 l 75 299 q 143 341 108 318 q 206 383 178 364 l 206 765 q 222 894 206 840 q 269 981 239 947 q 341 1029 300 1014 q 432 1044 382 1044 q 595 981 539 1044 q 651 799 651 917 q 632 669 651 731 q 575 549 613 608 q 481 432 538 490 q 350 311 425 374 l 350 253 q 378 144 350 176 q 456 113 407 113 q 503 121 482 113 q 544 147 525 129 q 581 193 563 165 q 618 258 599 221 l 735 194 q 691 110 717 149 q 631 44 665 72 q 553 -1 597 15 q 453 -17 508 -17 m 435 914 q 374 883 399 914 q 350 774 350 853 l 350 468 q 469 620 426 543 q 511 783 511 697 l 511 803 q 490 889 511 864 q 435 914 468 914 z "},"№":{"ha":833,"x_min":44,"x_max":822,"o":"m 667 468 q 511 725 511 468 q 549 918 511 856 q 667 981 588 981 q 784 918 746 981 q 822 725 822 856 q 667 468 822 468 m 44 0 l 44 969 l 249 969 l 306 493 l 346 131 l 357 131 l 357 969 l 464 969 l 464 0 l 260 0 l 203 476 l 163 839 l 151 839 l 151 0 l 44 0 m 667 557 q 714 587 703 557 q 725 672 725 617 l 725 776 q 714 862 725 832 q 667 892 703 892 q 619 862 631 892 q 608 776 608 832 l 608 672 q 619 587 608 617 q 667 557 631 557 m 518 338 l 518 429 l 815 429 l 815 338 l 518 338 z "},"∂":{"ha":833,"x_min":78,"x_max":757,"o":"m 757 379 q 733 203 757 278 q 665 80 708 129 q 559 7 621 31 q 421 -17 497 -17 q 276 9 340 -17 q 169 82 213 35 q 101 197 125 129 q 78 347 78 264 q 99 493 78 428 q 158 604 119 558 q 249 675 196 650 q 365 700 301 700 q 502 663 449 700 q 590 567 556 625 l 599 571 q 440 793 554 696 q 169 969 326 890 l 401 969 q 522 885 460 935 q 637 764 585 835 q 723 599 689 693 q 757 379 757 504 m 417 103 q 549 151 500 103 q 599 296 599 200 l 599 386 q 549 531 599 482 q 417 579 500 579 q 284 531 333 579 q 235 386 235 482 l 235 296 q 284 151 235 200 q 417 103 333 103 z "},"¤":{"ha":833,"x_min":88,"x_max":746,"o":"m 417 158 q 288 182 346 158 l 196 26 l 88 89 l 186 256 q 131 356 150 299 q 113 485 113 414 q 131 613 113 556 q 186 714 150 671 l 88 881 l 196 943 l 288 788 q 417 811 346 811 q 546 788 488 811 l 638 943 l 746 881 l 647 714 q 702 613 683 671 q 721 485 721 556 q 702 356 721 414 q 647 256 683 299 l 746 89 l 638 26 l 546 182 q 417 158 488 158 m 417 275 q 525 317 485 275 q 565 443 565 360 l 565 526 q 525 652 565 610 q 417 694 485 694 q 308 652 349 694 q 268 526 268 610 l 268 443 q 308 317 268 360 q 417 275 349 275 z "},"¢":{"ha":833,"x_min":103,"x_max":732,"o":"m 375 -158 l 375 -11 q 174 108 244 10 q 103 358 103 206 q 174 609 103 511 q 375 728 244 707 l 375 875 l 492 875 l 492 731 q 635 675 579 719 q 721 564 692 631 l 607 503 q 561 571 592 543 q 486 608 531 599 l 486 107 q 569 146 535 117 q 625 219 604 175 l 732 154 q 642 42 701 88 q 492 -14 583 -3 l 492 -158 l 375 -158 m 254 299 q 287 178 254 228 q 382 111 319 128 l 382 606 q 287 539 319 589 q 254 418 254 489 l 254 299 z "},"€":{"ha":833,"x_min":83,"x_max":768,"o":"m 456 -17 q 178 113 272 -17 q 83 485 83 243 q 178 856 83 726 q 456 986 272 986 q 574 969 524 986 q 660 926 624 953 q 723 863 697 899 q 768 792 749 828 l 647 722 q 578 822 619 783 q 460 860 536 860 q 317 804 368 860 q 250 651 265 749 l 563 651 l 563 543 l 243 543 l 243 426 l 563 426 l 563 318 l 250 318 q 317 165 265 221 q 460 110 368 110 q 578 148 536 110 q 647 247 619 186 l 768 178 q 723 106 749 142 q 660 44 697 71 q 574 0 624 17 q 456 -17 524 -17 z "},"ƒ":{"ha":833,"x_min":-65,"x_max":851,"o":"m -44 -156 l 235 -156 l 342 486 l 97 486 l 117 608 l 361 608 l 393 797 q 454 924 407 878 q 596 969 501 969 l 851 969 l 831 847 l 551 847 l 513 608 l 761 608 l 742 486 l 492 486 l 393 -106 q 332 -232 379 -186 q 190 -278 285 -278 l -65 -278 l -44 -156 z "},"£":{"ha":833,"x_min":68,"x_max":769,"o":"m 100 0 l 100 164 q 186 233 158 188 q 214 340 214 278 q 210 388 214 364 l 68 388 l 68 507 l 174 507 q 143 597 157 551 q 129 696 129 642 q 153 813 129 760 q 220 906 176 867 q 325 965 264 944 q 463 986 386 986 q 646 945 571 986 q 769 833 721 904 l 661 743 q 578 822 625 793 q 461 851 532 851 q 335 810 382 851 q 288 678 288 768 q 300 588 288 629 q 328 507 313 547 l 592 507 l 592 388 l 364 388 q 366 369 365 378 q 367 351 367 361 q 356 279 367 311 q 330 222 346 247 q 294 178 314 197 q 254 149 274 160 l 254 139 l 756 139 l 756 0 l 100 0 z "},"$":{"ha":833,"x_min":60,"x_max":776,"o":"m 372 -15 q 185 36 261 -7 q 60 146 108 79 l 160 242 q 260 153 207 185 q 379 115 313 122 l 379 433 l 347 439 q 229 476 278 451 q 150 538 181 501 q 106 617 119 574 q 92 711 92 661 q 165 899 92 829 q 372 983 239 969 l 372 1126 l 489 1126 l 489 983 q 647 938 581 974 q 763 839 714 901 l 661 747 q 584 817 628 790 q 482 850 540 843 l 482 556 l 519 550 q 638 513 589 538 q 717 452 686 488 q 763 372 749 417 q 776 278 776 328 q 702 82 776 158 q 489 -11 628 6 l 489 -157 l 372 -157 l 372 -15 m 239 715 q 272 624 239 657 q 379 575 304 592 l 379 853 q 239 715 239 836 m 629 271 q 595 366 629 333 q 482 414 561 399 l 482 117 q 592 167 554 128 q 629 271 629 206 z "},"¥":{"ha":833,"x_min":18,"x_max":815,"o":"m 93 121 l 343 121 l 343 335 l 93 335 l 93 456 l 267 456 l 18 969 l 183 969 l 414 456 l 424 456 l 654 969 l 815 969 l 567 456 l 740 456 l 740 335 l 490 335 l 490 121 l 740 121 l 740 0 l 93 0 l 93 121 z "},"฿":{"ha":833,"x_min":108,"x_max":765,"o":"m 471 -157 l 356 -157 l 356 0 l 108 0 l 108 969 l 356 969 l 356 1126 l 471 1126 l 471 969 l 474 969 q 585 951 535 969 q 670 900 635 933 q 724 819 706 867 q 743 715 743 772 q 701 578 743 628 q 585 506 658 528 l 585 500 q 715 424 665 478 q 765 274 765 371 q 745 164 765 214 q 689 77 725 114 q 603 20 653 40 q 492 0 553 0 l 471 0 l 471 -157 m 361 551 l 361 851 l 253 851 l 253 551 l 361 551 m 465 554 q 592 676 592 561 l 592 726 q 465 849 592 842 l 465 554 m 361 118 l 361 440 l 253 440 l 253 118 l 361 118 m 465 118 q 613 250 613 122 l 613 308 q 465 440 613 436 l 465 118 z "},"₡":{"ha":833,"x_min":81,"x_max":765,"o":"m 425 -15 l 421 -15 q 349 -4 382 -15 l 335 -157 l 244 -157 l 261 32 q 125 201 169 86 q 81 485 81 315 q 146 817 81 692 q 346 975 211 942 l 360 1126 l 450 1126 l 438 986 q 515 981 488 986 l 528 1126 l 618 1126 l 603 954 q 700 878 661 926 q 765 767 739 829 l 644 711 q 589 808 622 772 l 524 121 q 598 173 571 136 q 644 258 625 210 l 765 203 q 672 63 731 121 q 515 -11 613 4 l 503 -157 l 413 -157 l 425 -15 m 444 865 q 435 865 439 865 q 425 864 432 865 l 358 122 q 391 110 374 115 q 428 106 408 106 l 436 106 l 506 858 q 476 863 490 861 q 444 865 461 865 m 231 403 q 242 284 231 338 q 278 192 253 231 l 336 838 q 256 733 281 803 q 231 567 231 664 l 231 403 z "},"₤":{"ha":833,"x_min":71,"x_max":769,"o":"m 756 0 l 100 0 l 100 164 q 169 213 144 182 q 204 285 194 244 l 71 285 l 71 389 l 210 389 q 197 443 206 417 q 179 494 189 469 l 71 494 l 71 600 l 142 600 q 133 646 136 622 q 129 696 129 669 q 153 813 129 760 q 220 906 176 867 q 325 965 264 944 q 463 986 386 986 q 646 945 571 986 q 769 833 721 904 l 661 743 q 578 822 625 793 q 461 851 532 851 q 335 810 382 851 q 288 678 288 768 q 290 637 288 656 q 297 600 293 618 l 582 600 l 582 494 l 333 494 q 351 443 343 469 q 364 389 360 417 l 582 389 l 582 285 l 356 285 q 313 201 342 235 q 254 149 285 167 l 254 139 l 756 139 l 756 0 z "},"₦":{"ha":833,"x_min":35,"x_max":799,"o":"m 403 339 l 235 339 l 235 0 l 114 0 l 114 332 l 35 332 l 35 439 l 114 439 l 114 531 l 35 531 l 35 638 l 114 638 l 114 969 l 324 969 l 431 631 l 599 631 l 599 969 l 719 969 l 719 638 l 799 638 l 799 531 l 719 531 l 719 439 l 799 439 l 799 332 l 719 332 l 719 0 l 510 0 l 403 339 m 374 431 l 246 831 l 235 831 l 235 431 l 374 431 m 588 139 l 599 139 l 599 539 l 460 539 l 588 139 z "},"₨":{"ha":833,"x_min":61,"x_max":821,"o":"m 61 0 l 61 969 l 253 969 q 438 902 378 969 q 497 713 497 835 q 466 565 497 628 q 367 475 435 503 l 472 201 q 522 122 492 149 q 601 94 551 94 q 689 171 689 94 q 685 200 689 188 q 673 224 681 213 q 653 249 665 236 q 626 276 642 261 l 601 300 q 531 388 557 344 q 504 488 504 431 q 553 613 504 565 q 686 661 601 661 q 756 651 721 661 q 821 619 790 642 l 774 525 q 737 545 756 538 q 696 553 718 553 q 633 490 633 553 q 648 440 633 461 q 696 383 663 418 l 717 363 q 758 319 739 340 q 790 276 776 299 q 810 229 803 254 q 818 172 818 204 q 763 35 818 88 q 590 -17 708 -17 q 440 20 501 -17 q 347 150 379 57 l 238 447 l 194 447 l 194 0 l 61 0 m 249 560 q 334 588 307 560 q 361 675 361 617 l 361 738 q 334 824 361 796 q 249 853 307 853 l 194 853 l 194 560 l 249 560 z "},"₩":{"ha":833,"x_min":25,"x_max":808,"o":"m 111 357 l 25 357 l 25 463 l 108 463 l 104 576 l 25 576 l 25 682 l 101 682 l 92 969 l 226 969 l 228 674 l 608 674 l 611 969 l 742 969 l 732 682 l 808 682 l 808 576 l 729 576 l 725 463 l 808 463 l 808 357 l 722 357 l 710 0 l 500 0 l 431 585 l 403 585 l 333 0 l 124 0 l 111 357 m 257 114 l 315 585 l 225 585 l 229 114 l 257 114 m 607 114 l 613 585 l 521 585 l 579 114 l 607 114 z "},"₪":{"ha":833,"x_min":68,"x_max":771,"o":"m 265 754 l 382 754 l 382 104 l 499 104 q 555 113 528 104 q 603 140 582 121 q 638 188 625 158 q 650 263 650 218 l 650 969 l 771 969 l 771 275 q 751 154 771 206 q 697 68 732 103 q 615 17 663 33 q 510 0 567 0 l 265 0 l 265 754 m 68 0 l 68 969 l 314 969 q 419 953 371 969 q 501 901 467 936 q 554 815 535 867 q 574 694 574 764 l 574 215 l 457 215 l 457 707 q 444 781 457 750 q 412 830 432 811 q 365 857 392 849 q 308 865 338 865 l 189 865 l 189 0 l 68 0 z "},"₫":{"ha":833,"x_min":108,"x_max":779,"o":"m 553 315 l 546 315 q 472 229 518 263 q 350 196 425 196 q 174 267 240 196 q 108 482 108 339 q 174 697 108 625 q 350 769 240 769 q 472 736 425 769 q 546 650 518 703 l 553 650 l 553 839 l 356 839 l 356 950 l 553 950 l 553 1028 l 694 1028 l 694 950 l 779 950 l 779 839 l 694 839 l 694 208 l 553 208 l 553 315 m 410 308 q 513 340 472 308 q 553 419 553 372 l 553 546 q 513 625 553 593 q 410 657 472 657 q 296 618 335 657 q 257 515 257 579 l 257 450 q 296 347 257 386 q 410 308 335 308 m 114 0 l 114 117 l 733 117 l 733 0 l 114 0 z "},"₭":{"ha":833,"x_min":33,"x_max":803,"o":"m 276 0 l 121 0 l 121 436 l 33 436 l 33 561 l 121 561 l 121 969 l 276 969 l 276 561 l 343 561 l 611 969 l 781 969 l 506 561 l 764 561 l 764 436 l 517 436 l 803 0 l 624 0 l 344 436 l 276 436 l 276 0 z "},"₮":{"ha":833,"x_min":35,"x_max":799,"o":"m 493 279 l 493 0 l 340 0 l 340 210 l 153 125 l 153 239 l 340 324 l 340 446 l 153 361 l 153 475 l 340 560 l 340 843 l 35 843 l 35 969 l 799 969 l 799 843 l 493 843 l 493 629 l 681 714 l 681 600 l 493 515 l 493 393 l 681 478 l 681 364 l 493 279 z "},"₱":{"ha":833,"x_min":38,"x_max":800,"o":"m 260 0 l 111 0 l 111 460 l 38 460 l 38 567 l 111 567 l 111 660 l 38 660 l 38 767 l 111 767 l 111 969 l 446 969 q 621 918 556 969 q 711 767 686 867 l 800 767 l 800 660 l 726 660 l 726 567 l 800 567 l 800 460 l 711 460 q 621 308 686 360 q 446 257 556 257 l 260 257 l 260 0 m 260 763 l 571 763 q 526 835 560 811 q 431 860 493 860 l 260 860 l 260 763 m 576 563 l 576 664 l 260 664 l 260 563 l 576 563 m 431 367 q 526 391 493 367 q 571 464 560 415 l 260 464 l 260 367 l 431 367 z "},"₲":{"ha":833,"x_min":65,"x_max":739,"o":"m 285 7 q 119 173 174 51 q 65 485 65 294 q 153 855 65 724 q 421 986 240 986 q 431 986 426 986 q 442 985 435 986 l 464 1126 l 583 1126 l 557 964 q 669 883 628 936 q 736 760 711 829 l 615 711 q 582 782 601 750 q 529 835 563 814 l 474 496 l 739 496 l 739 333 q 719 192 739 256 q 660 82 700 128 q 563 10 621 36 q 426 -17 504 -17 q 413 -17 419 -17 q 399 -15 406 -17 l 375 -157 l 257 -157 l 285 7 m 429 864 l 418 864 q 267 785 315 864 q 219 567 219 706 l 219 403 q 310 140 219 210 l 429 864 m 431 106 q 559 163 517 106 q 601 311 601 219 l 601 382 l 456 382 l 411 107 q 431 106 417 106 z "},"₴":{"ha":833,"x_min":38,"x_max":796,"o":"m 425 -17 q 301 3 356 -17 q 210 59 247 24 q 153 142 172 94 q 133 244 133 189 q 139 297 133 274 q 153 339 144 319 l 38 339 l 38 439 l 222 439 l 425 558 l 425 564 l 38 564 l 38 664 l 529 664 q 546 729 546 690 q 508 829 546 796 q 403 863 471 863 q 222 776 299 863 l 136 868 q 261 957 190 928 q 413 986 332 986 q 528 968 476 986 q 615 919 579 950 q 669 844 650 888 q 689 749 689 800 q 674 664 689 699 l 796 664 l 796 564 l 611 564 l 408 444 l 408 439 l 796 439 l 796 339 l 301 339 q 278 254 278 306 q 318 145 278 183 q 433 107 358 107 q 537 130 486 107 q 643 211 588 153 l 728 118 q 597 19 675 54 q 425 -17 518 -17 z "},"₵":{"ha":833,"x_min":81,"x_max":763,"o":"m 293 13 q 133 179 185 60 q 81 485 81 299 q 170 856 81 726 q 443 986 260 986 l 450 986 l 472 1126 l 590 1126 l 564 968 q 688 885 643 942 q 758 760 733 828 l 635 714 q 597 789 619 754 q 538 843 575 824 l 417 107 q 431 104 424 104 q 444 104 438 104 q 517 117 486 104 q 569 153 547 131 q 605 205 590 175 q 631 268 619 235 l 763 224 q 720 130 746 174 q 657 53 694 86 q 567 2 619 21 q 444 -17 515 -17 q 424 -16 433 -17 q 406 -14 415 -15 l 382 -157 l 265 -157 l 293 13 m 436 865 q 285 783 335 858 q 235 567 235 708 l 235 403 q 256 249 235 315 q 319 147 276 183 l 436 865 z "},"₸":{"ha":833,"x_min":63,"x_max":771,"o":"m 63 853 l 63 969 l 771 969 l 771 853 l 63 853 m 494 621 l 494 0 l 339 0 l 339 621 l 63 621 l 63 738 l 771 738 l 771 621 l 494 621 z "},"₹":{"ha":833,"x_min":72,"x_max":775,"o":"m 531 0 l 244 378 l 72 378 l 72 497 l 281 497 q 401 528 354 497 q 451 628 449 558 l 72 628 l 72 738 l 449 738 q 395 822 442 794 q 281 850 349 850 l 72 850 l 72 969 l 775 969 l 775 850 l 499 850 l 499 843 q 552 808 526 833 q 592 738 578 783 l 775 738 l 775 628 l 603 628 q 547 481 596 540 q 411 397 497 421 l 717 0 l 531 0 z "},"₺":{"ha":833,"x_min":68,"x_max":783,"o":"m 189 315 l 68 260 l 68 375 l 189 432 l 189 543 l 68 488 l 68 604 l 189 660 l 189 969 l 338 969 l 338 729 l 578 840 l 578 724 l 338 613 l 338 500 l 578 613 l 578 496 l 338 385 l 338 131 l 406 131 q 576 203 517 131 q 635 424 635 276 l 783 424 q 761 258 783 335 q 694 123 739 181 q 581 33 650 65 q 421 0 513 0 l 189 0 l 189 315 z "},"₽":{"ha":833,"x_min":56,"x_max":776,"o":"m 313 174 l 313 0 l 157 0 l 157 174 l 56 174 l 56 293 l 157 293 l 157 397 l 56 397 l 56 517 l 157 517 l 157 969 l 492 969 q 703 892 631 969 q 776 682 776 815 q 703 472 776 547 q 492 397 631 397 l 313 397 l 313 293 l 615 293 l 615 174 l 313 174 m 313 517 l 469 517 q 615 647 615 517 l 615 715 q 469 846 615 846 l 313 846 l 313 517 z "},"₿":{"ha":833,"x_min":115,"x_max":761,"o":"m 439 0 l 349 0 l 349 -157 l 249 -157 l 249 0 l 115 0 l 115 969 l 249 969 l 249 1126 l 349 1126 l 349 969 l 439 969 l 439 1126 l 539 1126 l 539 960 q 678 874 629 938 q 728 715 728 811 q 688 583 728 632 q 574 510 647 533 l 574 503 q 711 427 661 481 q 761 274 761 374 q 745 174 761 219 q 700 93 729 128 q 630 35 671 58 q 539 4 589 13 l 539 -157 l 439 -157 l 439 0 m 268 551 l 418 551 q 530 581 492 551 q 568 678 568 611 l 568 726 q 530 823 568 793 q 418 853 492 853 l 268 853 l 268 551 m 268 117 l 442 117 q 560 149 519 117 q 601 253 601 182 l 601 304 q 560 408 601 375 q 442 440 519 440 l 268 440 l 268 117 z "},"ﬁ":{"ha":833,"x_min":49,"x_max":744,"o":"m 131 594 l 49 594 l 49 717 l 131 717 l 131 846 q 175 977 131 926 q 314 1028 219 1028 l 461 1028 l 461 906 l 282 906 l 282 717 l 717 717 l 717 0 l 565 0 l 565 594 l 282 594 l 282 0 l 131 0 l 131 594 m 642 847 q 562 871 585 847 q 539 929 539 894 l 539 958 q 562 1017 539 993 q 642 1040 585 1040 q 722 1017 699 1040 q 744 958 744 993 l 744 929 q 722 871 744 894 q 642 847 699 847 z "},"ﬂ":{"ha":833,"x_min":49,"x_max":717,"o":"m 131 594 l 49 594 l 49 717 l 131 717 l 131 846 q 175 977 131 926 q 314 1028 219 1028 l 471 1028 l 471 906 l 282 906 l 282 717 l 471 717 l 471 594 l 282 594 l 282 0 l 131 0 l 131 594 m 565 1028 l 717 1028 l 717 0 l 565 0 l 565 1028 z "},"á":{"ha":833,"x_min":83,"x_max":776,"o":"m 683 0 q 585 33 618 0 q 546 121 553 67 l 539 121 q 463 19 518 56 q 324 -17 408 -17 q 149 41 214 -17 q 83 200 83 99 q 160 359 83 304 q 397 414 238 414 l 535 414 l 535 469 q 381 615 535 615 q 268 588 311 615 q 196 517 225 561 l 106 590 q 208 691 136 649 q 394 733 281 733 q 608 668 531 733 q 686 479 686 603 l 686 119 l 776 119 l 776 0 l 683 0 m 367 94 q 488 128 440 94 q 535 214 535 161 l 535 318 l 400 318 q 236 219 236 318 l 236 192 q 271 119 236 143 q 367 94 306 94 m 415 804 l 322 849 l 449 1099 l 579 1035 l 415 804 z "},"ă":{"ha":833,"x_min":83,"x_max":776,"o":"m 683 0 q 585 33 618 0 q 546 121 553 67 l 539 121 q 463 19 518 56 q 324 -17 408 -17 q 149 41 214 -17 q 83 200 83 99 q 160 359 83 304 q 397 414 238 414 l 535 414 l 535 469 q 381 615 535 615 q 268 588 311 615 q 196 517 225 561 l 106 590 q 208 691 136 649 q 394 733 281 733 q 608 668 531 733 q 686 479 686 603 l 686 119 l 776 119 l 776 0 l 683 0 m 367 94 q 488 128 440 94 q 535 214 535 161 l 535 318 l 400 318 q 236 219 236 318 l 236 192 q 271 119 236 143 q 367 94 306 94 m 400 813 q 301 834 342 813 q 231 888 260 856 q 185 960 203 921 q 157 1032 168 999 l 247 1075 l 276 1029 q 306 984 293 1004 q 333 951 319 964 q 362 931 346 938 q 400 924 378 924 q 467 951 443 924 q 524 1029 492 978 l 553 1075 l 643 1032 q 614 960 632 999 q 568 888 596 921 q 499 834 540 856 q 400 813 458 813 z "},"ǎ":{"ha":833,"x_min":83,"x_max":776,"o":"m 683 0 q 585 33 618 0 q 546 121 553 67 l 539 121 q 463 19 518 56 q 324 -17 408 -17 q 149 41 214 -17 q 83 200 83 99 q 160 359 83 304 q 397 414 238 414 l 535 414 l 535 469 q 381 615 535 615 q 268 588 311 615 q 196 517 225 561 l 106 590 q 208 691 136 649 q 394 733 281 733 q 608 668 531 733 q 686 479 686 603 l 686 119 l 776 119 l 776 0 l 683 0 m 367 94 q 488 128 440 94 q 535 214 535 161 l 535 318 l 400 318 q 236 219 236 318 l 236 192 q 271 119 236 143 q 367 94 306 94 m 324 819 l 157 1028 l 238 1086 l 403 925 l 568 1086 l 643 1028 l 476 819 l 324 819 z "},"â":{"ha":833,"x_min":83,"x_max":776,"o":"m 683 0 q 585 33 618 0 q 546 121 553 67 l 539 121 q 463 19 518 56 q 324 -17 408 -17 q 149 41 214 -17 q 83 200 83 99 q 160 359 83 304 q 397 414 238 414 l 535 414 l 535 469 q 381 615 535 615 q 268 588 311 615 q 196 517 225 561 l 106 590 q 208 691 136 649 q 394 733 281 733 q 608 668 531 733 q 686 479 686 603 l 686 119 l 776 119 l 776 0 l 683 0 m 367 94 q 488 128 440 94 q 535 214 535 161 l 535 318 l 400 318 q 236 219 236 318 l 236 192 q 271 119 236 143 q 367 94 306 94 m 476 1075 l 643 867 l 563 808 l 399 969 l 233 808 l 157 867 l 324 1075 l 476 1075 z "},"ä":{"ha":833,"x_min":83,"x_max":776,"o":"m 683 0 q 585 33 618 0 q 546 121 553 67 l 539 121 q 463 19 518 56 q 324 -17 408 -17 q 149 41 214 -17 q 83 200 83 99 q 160 359 83 304 q 397 414 238 414 l 535 414 l 535 469 q 381 615 535 615 q 268 588 311 615 q 196 517 225 561 l 106 590 q 208 691 136 649 q 394 733 281 733 q 608 668 531 733 q 686 479 686 603 l 686 119 l 776 119 l 776 0 l 683 0 m 367 94 q 488 128 440 94 q 535 214 535 161 l 535 318 l 400 318 q 236 219 236 318 l 236 192 q 271 119 236 143 q 367 94 306 94 m 261 843 q 189 864 210 843 q 168 917 168 885 l 168 943 q 189 996 168 975 q 261 1017 210 1017 q 333 996 313 1017 q 354 943 354 975 l 354 917 q 333 864 354 885 q 261 843 313 843 m 539 843 q 467 864 488 843 q 446 917 446 885 l 446 943 q 467 996 446 975 q 539 1017 488 1017 q 611 996 590 1017 q 632 943 632 975 l 632 917 q 611 864 632 885 q 539 843 590 843 z "},"ạ":{"ha":833,"x_min":83,"x_max":776,"o":"m 683 0 q 585 33 618 0 q 546 121 553 67 l 539 121 q 463 19 518 56 q 324 -17 408 -17 q 149 41 214 -17 q 83 200 83 99 q 160 359 83 304 q 397 414 238 414 l 535 414 l 535 469 q 381 615 535 615 q 268 588 311 615 q 196 517 225 561 l 106 590 q 208 691 136 649 q 394 733 281 733 q 608 668 531 733 q 686 479 686 603 l 686 119 l 776 119 l 776 0 l 683 0 m 367 94 q 488 128 440 94 q 535 214 535 161 l 535 318 l 400 318 q 236 219 236 318 l 236 192 q 271 119 236 143 q 367 94 306 94 m 397 -257 q 325 -236 346 -257 q 304 -183 304 -215 l 304 -157 q 325 -104 304 -125 q 397 -83 346 -83 q 469 -104 449 -83 q 490 -157 490 -125 l 490 -183 q 469 -236 490 -215 q 397 -257 449 -257 z "},"à":{"ha":833,"x_min":83,"x_max":776,"o":"m 683 0 q 585 33 618 0 q 546 121 553 67 l 539 121 q 463 19 518 56 q 324 -17 408 -17 q 149 41 214 -17 q 83 200 83 99 q 160 359 83 304 q 397 414 238 414 l 535 414 l 535 469 q 381 615 535 615 q 268 588 311 615 q 196 517 225 561 l 106 590 q 208 691 136 649 q 394 733 281 733 q 608 668 531 733 q 686 479 686 603 l 686 119 l 776 119 l 776 0 l 683 0 m 367 94 q 488 128 440 94 q 535 214 535 161 l 535 318 l 400 318 q 236 219 236 318 l 236 192 q 271 119 236 143 q 367 94 306 94 m 221 1035 l 351 1099 l 478 849 l 385 804 l 221 1035 z "},"ả":{"ha":833,"x_min":83,"x_max":776,"o":"m 683 0 q 585 33 618 0 q 546 121 553 67 l 539 121 q 463 19 518 56 q 324 -17 408 -17 q 149 41 214 -17 q 83 200 83 99 q 160 359 83 304 q 397 414 238 414 l 535 414 l 535 469 q 381 615 535 615 q 268 588 311 615 q 196 517 225 561 l 106 590 q 208 691 136 649 q 394 733 281 733 q 608 668 531 733 q 686 479 686 603 l 686 119 l 776 119 l 776 0 l 683 0 m 367 94 q 488 128 440 94 q 535 214 535 161 l 535 318 l 400 318 q 236 219 236 318 l 236 192 q 271 119 236 143 q 367 94 306 94 m 260 1079 l 431 1079 q 519 1053 494 1079 q 544 992 544 1028 q 524 917 544 957 q 472 836 504 876 l 436 792 l 356 831 l 426 968 l 260 968 l 260 1079 z "},"ā":{"ha":833,"x_min":83,"x_max":776,"o":"m 683 0 q 585 33 618 0 q 546 121 553 67 l 539 121 q 463 19 518 56 q 324 -17 408 -17 q 149 41 214 -17 q 83 200 83 99 q 160 359 83 304 q 397 414 238 414 l 535 414 l 535 469 q 381 615 535 615 q 268 588 311 615 q 196 517 225 561 l 106 590 q 208 691 136 649 q 394 733 281 733 q 608 668 531 733 q 686 479 686 603 l 686 119 l 776 119 l 776 0 l 683 0 m 367 94 q 488 128 440 94 q 535 214 535 161 l 535 318 l 400 318 q 236 219 236 318 l 236 192 q 271 119 236 143 q 367 94 306 94 m 199 986 l 601 986 l 601 872 l 199 872 l 199 986 z "},"ą":{"ha":833,"x_min":83,"x_max":813,"o":"m 776 0 q 692 -57 724 -33 q 645 -99 661 -81 q 624 -129 629 -117 q 619 -153 619 -142 q 636 -192 619 -181 q 675 -203 653 -203 q 717 -192 699 -203 q 749 -165 735 -182 l 813 -228 q 760 -273 797 -256 q 665 -290 724 -290 q 603 -284 632 -290 q 553 -264 575 -278 q 518 -228 531 -250 q 506 -176 506 -207 q 547 -83 506 -124 q 668 -4 589 -42 l 667 0 q 582 36 613 4 q 546 121 551 68 l 539 121 q 463 19 518 56 q 324 -17 408 -17 q 149 41 214 -17 q 83 200 83 99 q 160 359 83 304 q 397 414 238 414 l 535 414 l 535 469 q 381 615 535 615 q 268 588 311 615 q 196 517 225 561 l 106 590 q 208 691 136 649 q 394 733 281 733 q 608 668 531 733 q 686 479 686 603 l 686 119 l 776 119 l 776 0 m 400 318 q 236 219 236 318 l 236 192 q 271 119 236 143 q 367 94 306 94 q 488 128 440 94 q 535 214 535 161 l 535 318 l 400 318 z "},"å":{"ha":833,"x_min":83,"x_max":776,"o":"m 683 0 q 585 33 618 0 q 546 121 553 67 l 539 121 q 463 19 518 56 q 324 -17 408 -17 q 149 41 214 -17 q 83 200 83 99 q 160 359 83 304 q 397 414 238 414 l 535 414 l 535 469 q 381 615 535 615 q 268 588 311 615 q 196 517 225 561 l 106 590 q 208 691 136 649 q 394 733 281 733 q 608 668 531 733 q 686 479 686 603 l 686 119 l 776 119 l 776 0 l 683 0 m 367 94 q 488 128 440 94 q 535 214 535 161 l 535 318 l 400 318 q 236 219 236 318 l 236 192 q 271 119 236 143 q 367 94 306 94 m 400 785 q 329 798 363 785 q 272 834 296 811 q 235 890 249 857 q 221 960 221 922 q 235 1031 221 999 q 272 1086 249 1063 q 329 1123 296 1110 q 400 1136 363 1136 q 471 1123 438 1136 q 528 1086 504 1110 q 565 1031 551 1063 q 579 960 579 999 q 565 890 579 922 q 528 834 551 857 q 471 798 504 811 q 400 785 438 785 m 400 868 q 476 942 476 868 l 476 979 q 400 1053 476 1053 q 324 979 324 1053 l 324 942 q 400 868 324 868 z "},"ǻ":{"ha":833,"x_min":83,"x_max":776,"o":"m 683 0 q 585 33 618 0 q 546 121 553 67 l 539 121 q 463 19 518 56 q 324 -17 408 -17 q 149 41 214 -17 q 83 200 83 99 q 160 359 83 304 q 397 414 238 414 l 535 414 l 535 469 q 381 615 535 615 q 268 588 311 615 q 196 517 225 561 l 106 590 q 208 691 136 649 q 394 733 281 733 q 608 668 531 733 q 686 479 686 603 l 686 119 l 776 119 l 776 0 l 683 0 m 367 94 q 488 128 440 94 q 535 214 535 161 l 535 318 l 400 318 q 236 219 236 318 l 236 192 q 271 119 236 143 q 367 94 306 94 m 404 1126 l 340 1181 l 476 1342 l 568 1265 l 404 1126 m 400 779 q 329 791 363 779 q 271 824 296 803 q 232 876 246 846 q 218 942 218 906 q 232 1009 218 979 q 271 1060 246 1039 q 329 1094 296 1082 q 400 1106 363 1106 q 471 1094 438 1106 q 529 1060 504 1082 q 568 1009 554 1039 q 582 942 582 979 q 568 876 582 906 q 529 824 554 846 q 471 791 504 803 q 400 779 438 779 m 400 860 q 458 877 438 860 q 479 931 479 894 l 479 954 q 458 1008 479 990 q 400 1025 438 1025 q 342 1008 363 1025 q 321 954 321 990 l 321 931 q 342 877 321 894 q 400 860 363 860 z "},"ã":{"ha":833,"x_min":83,"x_max":776,"o":"m 683 0 q 585 33 618 0 q 546 121 553 67 l 539 121 q 463 19 518 56 q 324 -17 408 -17 q 149 41 214 -17 q 83 200 83 99 q 160 359 83 304 q 397 414 238 414 l 535 414 l 535 469 q 381 615 535 615 q 268 588 311 615 q 196 517 225 561 l 106 590 q 208 691 136 649 q 394 733 281 733 q 608 668 531 733 q 686 479 686 603 l 686 119 l 776 119 l 776 0 l 683 0 m 367 94 q 488 128 440 94 q 535 214 535 161 l 535 318 l 400 318 q 236 219 236 318 l 236 192 q 271 119 236 143 q 367 94 306 94 m 503 839 q 443 849 468 839 q 394 871 418 860 q 338 894 363 886 q 292 903 314 903 q 250 894 268 903 q 211 867 232 885 l 154 939 q 210 994 175 971 q 297 1018 246 1018 q 357 1008 332 1018 q 406 986 382 997 q 462 963 438 971 q 508 954 486 954 q 550 963 532 954 q 589 990 568 972 l 646 918 q 590 863 625 886 q 503 839 554 839 z "},"ắ":{"ha":833,"x_min":83,"x_max":776,"o":"m 683 0 q 585 33 618 0 q 546 121 553 67 l 539 121 q 463 19 518 56 q 324 -17 408 -17 q 149 41 214 -17 q 83 200 83 99 q 160 359 83 304 q 397 414 238 414 l 535 414 l 535 469 q 381 615 535 615 q 268 588 311 615 q 196 517 225 561 l 106 590 q 208 691 136 649 q 394 733 281 733 q 608 668 531 733 q 686 479 686 603 l 686 119 l 776 119 l 776 0 l 683 0 m 367 94 q 488 128 440 94 q 535 214 535 161 l 535 318 l 400 318 q 236 219 236 318 l 236 192 q 271 119 236 143 q 367 94 306 94 m 397 800 q 297 818 339 800 q 226 865 256 836 q 177 928 196 893 q 146 999 158 964 l 228 1044 l 257 1003 q 323 930 293 950 q 397 910 353 910 q 472 930 442 910 q 538 1003 501 950 l 567 1044 l 649 999 q 617 928 636 964 q 569 865 599 893 q 497 818 539 836 q 397 800 456 800 m 414 993 l 328 1033 l 454 1285 l 578 1224 l 414 993 z "},"ặ":{"ha":833,"x_min":83,"x_max":776,"o":"m 683 0 q 585 33 618 0 q 546 121 553 67 l 539 121 q 463 19 518 56 q 324 -17 408 -17 q 149 41 214 -17 q 83 200 83 99 q 160 359 83 304 q 397 414 238 414 l 535 414 l 535 469 q 381 615 535 615 q 268 588 311 615 q 196 517 225 561 l 106 590 q 208 691 136 649 q 394 733 281 733 q 608 668 531 733 q 686 479 686 603 l 686 119 l 776 119 l 776 0 l 683 0 m 367 94 q 488 128 440 94 q 535 214 535 161 l 535 318 l 400 318 q 236 219 236 318 l 236 192 q 271 119 236 143 q 367 94 306 94 m 400 813 q 301 834 342 813 q 231 888 260 856 q 185 960 203 921 q 157 1032 168 999 l 247 1075 l 276 1029 q 306 984 293 1004 q 333 951 319 964 q 362 931 346 938 q 400 924 378 924 q 467 951 443 924 q 524 1029 492 978 l 553 1075 l 643 1032 q 614 960 632 999 q 568 888 596 921 q 499 834 540 856 q 400 813 458 813 m 397 -257 q 325 -236 346 -257 q 304 -183 304 -215 l 304 -157 q 325 -104 304 -125 q 397 -83 346 -83 q 469 -104 449 -83 q 490 -157 490 -125 l 490 -183 q 469 -236 490 -215 q 397 -257 449 -257 z "},"ằ":{"ha":833,"x_min":83,"x_max":776,"o":"m 683 0 q 585 33 618 0 q 546 121 553 67 l 539 121 q 463 19 518 56 q 324 -17 408 -17 q 149 41 214 -17 q 83 200 83 99 q 160 359 83 304 q 397 414 238 414 l 535 414 l 535 469 q 381 615 535 615 q 268 588 311 615 q 196 517 225 561 l 106 590 q 208 691 136 649 q 394 733 281 733 q 608 668 531 733 q 686 479 686 603 l 686 119 l 776 119 l 776 0 l 683 0 m 367 94 q 488 128 440 94 q 535 214 535 161 l 535 318 l 400 318 q 236 219 236 318 l 236 192 q 271 119 236 143 q 367 94 306 94 m 397 800 q 297 818 339 800 q 226 865 256 836 q 177 928 196 893 q 146 999 158 964 l 228 1044 l 257 1003 q 323 930 293 950 q 397 910 353 910 q 472 930 442 910 q 538 1003 501 950 l 567 1044 l 649 999 q 617 928 636 964 q 569 865 599 893 q 497 818 539 836 q 397 800 456 800 m 217 1224 l 340 1285 l 467 1033 l 381 993 l 217 1224 z "},"ẳ":{"ha":833,"x_min":83,"x_max":776,"o":"m 683 0 q 585 33 618 0 q 546 121 553 67 l 539 121 q 463 19 518 56 q 324 -17 408 -17 q 149 41 214 -17 q 83 200 83 99 q 160 359 83 304 q 397 414 238 414 l 535 414 l 535 469 q 381 615 535 615 q 268 588 311 615 q 196 517 225 561 l 106 590 q 208 691 136 649 q 394 733 281 733 q 608 668 531 733 q 686 479 686 603 l 686 119 l 776 119 l 776 0 l 683 0 m 367 94 q 488 128 440 94 q 535 214 535 161 l 535 318 l 400 318 q 236 219 236 318 l 236 192 q 271 119 236 143 q 367 94 306 94 m 397 800 q 297 818 339 800 q 226 865 256 836 q 177 928 196 893 q 146 999 158 964 l 228 1044 l 257 1003 q 323 930 293 950 q 397 910 353 910 q 472 930 442 910 q 538 1003 501 950 l 567 1044 l 649 999 q 617 928 636 964 q 569 865 599 893 q 497 818 539 836 q 397 800 456 800 m 253 1267 l 408 1267 q 497 1241 472 1267 q 522 1181 522 1215 q 501 1106 522 1146 q 446 1024 479 1065 l 411 981 l 335 1018 l 407 1158 l 253 1158 l 253 1267 z "},"ẵ":{"ha":833,"x_min":83,"x_max":776,"o":"m 683 0 q 585 33 618 0 q 546 121 553 67 l 539 121 q 463 19 518 56 q 324 -17 408 -17 q 149 41 214 -17 q 83 200 83 99 q 160 359 83 304 q 397 414 238 414 l 535 414 l 535 469 q 381 615 535 615 q 268 588 311 615 q 196 517 225 561 l 106 590 q 208 691 136 649 q 394 733 281 733 q 608 668 531 733 q 686 479 686 603 l 686 119 l 776 119 l 776 0 l 683 0 m 367 94 q 488 128 440 94 q 535 214 535 161 l 535 318 l 400 318 q 236 219 236 318 l 236 192 q 271 119 236 143 q 367 94 306 94 m 397 800 q 297 818 339 800 q 226 865 256 836 q 177 928 196 893 q 146 999 158 964 l 228 1044 l 257 1003 q 323 930 293 950 q 397 910 353 910 q 472 930 442 910 q 538 1003 501 950 l 567 1044 l 649 999 q 617 928 636 964 q 569 865 599 893 q 497 818 539 836 q 397 800 456 800 m 499 1074 q 439 1085 464 1074 q 390 1107 414 1096 q 334 1131 358 1122 q 288 1139 310 1139 q 246 1130 264 1139 q 207 1103 228 1121 l 153 1168 q 209 1224 174 1200 q 296 1249 244 1249 q 356 1238 331 1249 q 404 1215 381 1226 q 460 1192 436 1200 q 507 1183 485 1183 q 549 1192 531 1183 q 588 1219 567 1201 l 642 1154 q 585 1098 621 1122 q 499 1074 550 1074 z "},"ấ":{"ha":833,"x_min":83,"x_max":786,"o":"m 683 0 q 585 33 618 0 q 546 121 553 67 l 539 121 q 463 19 518 56 q 324 -17 408 -17 q 149 41 214 -17 q 83 200 83 99 q 160 359 83 304 q 397 414 238 414 l 535 414 l 535 469 q 381 615 535 615 q 268 588 311 615 q 196 517 225 561 l 106 590 q 208 691 136 649 q 394 733 281 733 q 608 668 531 733 q 686 479 686 603 l 686 119 l 776 119 l 776 0 l 683 0 m 367 94 q 488 128 440 94 q 535 214 535 161 l 535 318 l 400 318 q 236 219 236 318 l 236 192 q 271 119 236 143 q 367 94 306 94 m 622 996 l 536 1038 l 663 1288 l 786 1226 l 622 996 m 465 1058 l 638 857 l 563 796 l 396 951 l 229 796 l 157 857 l 329 1058 l 465 1058 z "},"ậ":{"ha":833,"x_min":83,"x_max":776,"o":"m 683 0 q 585 33 618 0 q 546 121 553 67 l 539 121 q 463 19 518 56 q 324 -17 408 -17 q 149 41 214 -17 q 83 200 83 99 q 160 359 83 304 q 397 414 238 414 l 535 414 l 535 469 q 381 615 535 615 q 268 588 311 615 q 196 517 225 561 l 106 590 q 208 691 136 649 q 394 733 281 733 q 608 668 531 733 q 686 479 686 603 l 686 119 l 776 119 l 776 0 l 683 0 m 367 94 q 488 128 440 94 q 535 214 535 161 l 535 318 l 400 318 q 236 219 236 318 l 236 192 q 271 119 236 143 q 367 94 306 94 m 476 1075 l 643 867 l 563 808 l 399 969 l 233 808 l 157 867 l 324 1075 l 476 1075 m 397 -257 q 325 -236 346 -257 q 304 -183 304 -215 l 304 -157 q 325 -104 304 -125 q 397 -83 346 -83 q 469 -104 449 -83 q 490 -157 490 -125 l 490 -183 q 469 -236 490 -215 q 397 -257 449 -257 z "},"ầ":{"ha":833,"x_min":8,"x_max":776,"o":"m 683 0 q 585 33 618 0 q 546 121 553 67 l 539 121 q 463 19 518 56 q 324 -17 408 -17 q 149 41 214 -17 q 83 200 83 99 q 160 359 83 304 q 397 414 238 414 l 535 414 l 535 469 q 381 615 535 615 q 268 588 311 615 q 196 517 225 561 l 106 590 q 208 691 136 649 q 394 733 281 733 q 608 668 531 733 q 686 479 686 603 l 686 119 l 776 119 l 776 0 l 683 0 m 367 94 q 488 128 440 94 q 535 214 535 161 l 535 318 l 400 318 q 236 219 236 318 l 236 192 q 271 119 236 143 q 367 94 306 94 m 8 1226 l 132 1288 l 258 1038 l 172 996 l 8 1226 m 465 1058 l 638 857 l 563 796 l 396 951 l 229 796 l 157 857 l 329 1058 l 465 1058 z "},"ẩ":{"ha":833,"x_min":83,"x_max":776,"o":"m 683 0 q 585 33 618 0 q 546 121 553 67 l 539 121 q 463 19 518 56 q 324 -17 408 -17 q 149 41 214 -17 q 83 200 83 99 q 160 359 83 304 q 397 414 238 414 l 535 414 l 535 469 q 381 615 535 615 q 268 588 311 615 q 196 517 225 561 l 106 590 q 208 691 136 649 q 394 733 281 733 q 608 668 531 733 q 686 479 686 603 l 686 119 l 776 119 l 776 0 l 683 0 m 367 94 q 488 128 440 94 q 535 214 535 161 l 535 318 l 400 318 q 236 219 236 318 l 236 192 q 271 119 236 143 q 367 94 306 94 m 463 1271 l 628 1271 q 717 1245 692 1271 q 742 1183 742 1219 q 720 1108 742 1149 q 665 1026 699 1068 l 631 983 l 554 1022 l 626 1163 l 463 1163 l 463 1271 m 465 1058 l 638 857 l 563 796 l 396 951 l 229 796 l 157 857 l 329 1058 l 465 1058 z "},"ẫ":{"ha":833,"x_min":83,"x_max":776,"o":"m 683 0 q 585 33 618 0 q 546 121 553 67 l 539 121 q 463 19 518 56 q 324 -17 408 -17 q 149 41 214 -17 q 83 200 83 99 q 160 359 83 304 q 397 414 238 414 l 535 414 l 535 469 q 381 615 535 615 q 268 588 311 615 q 196 517 225 561 l 106 590 q 208 691 136 649 q 394 733 281 733 q 608 668 531 733 q 686 479 686 603 l 686 119 l 776 119 l 776 0 l 683 0 m 367 94 q 488 128 440 94 q 535 214 535 161 l 535 318 l 400 318 q 236 219 236 318 l 236 192 q 271 119 236 143 q 367 94 306 94 m 296 1263 q 356 1251 331 1263 q 404 1229 381 1240 q 460 1206 436 1214 q 507 1197 485 1197 q 549 1206 531 1197 q 588 1233 567 1215 l 642 1168 q 585 1112 621 1136 q 499 1088 550 1088 q 439 1099 464 1088 q 390 1121 414 1110 q 334 1144 358 1136 q 288 1153 310 1153 q 246 1144 264 1153 q 207 1117 228 1135 l 153 1182 q 209 1238 174 1214 q 296 1263 244 1263 m 465 1043 l 638 857 l 563 796 l 396 940 l 229 796 l 157 857 l 329 1043 l 465 1043 z "},"æ":{"ha":833,"x_min":10,"x_max":810,"o":"m 193 -17 q 63 37 115 -17 q 10 193 10 90 q 74 360 10 304 q 260 415 138 415 l 335 415 l 335 492 q 309 598 335 565 q 235 631 283 631 q 164 603 189 631 q 122 528 139 575 l 25 574 q 101 689 49 644 q 238 733 154 733 q 343 706 300 733 q 410 628 386 679 l 415 628 q 487 709 443 685 q 585 733 531 733 q 751 649 693 733 q 810 408 810 564 l 810 325 l 463 325 l 463 296 q 493 148 463 204 q 582 92 524 92 q 655 126 629 92 q 696 204 681 160 l 800 167 q 771 98 789 131 q 726 40 753 65 q 663 -1 699 14 q 581 -17 626 -17 q 455 24 510 -17 q 372 143 400 64 l 367 143 q 306 22 351 60 q 193 -17 260 -17 m 224 86 q 308 126 282 86 q 335 229 335 167 l 335 325 l 275 325 q 173 299 208 325 q 138 214 138 272 l 138 190 q 158 114 138 142 q 224 86 178 86 m 578 633 q 492 591 521 633 q 463 469 463 549 l 463 415 l 692 415 l 692 469 q 663 591 692 549 q 578 633 633 633 z "},"ǽ":{"ha":833,"x_min":10,"x_max":810,"o":"m 432 804 l 339 849 l 465 1099 l 596 1035 l 432 804 m 193 -17 q 63 37 115 -17 q 10 193 10 90 q 74 360 10 304 q 260 415 138 415 l 335 415 l 335 492 q 309 598 335 565 q 235 631 283 631 q 164 603 189 631 q 122 528 139 575 l 25 574 q 101 689 49 644 q 238 733 154 733 q 343 706 300 733 q 410 628 386 679 l 415 628 q 487 709 443 685 q 585 733 531 733 q 751 649 693 733 q 810 408 810 564 l 810 325 l 463 325 l 463 296 q 493 148 463 204 q 582 92 524 92 q 655 126 629 92 q 696 204 681 160 l 800 167 q 771 98 789 131 q 726 40 753 65 q 663 -1 699 14 q 581 -17 626 -17 q 455 24 510 -17 q 372 143 400 64 l 367 143 q 306 22 351 60 q 193 -17 260 -17 m 224 86 q 308 126 282 86 q 335 229 335 167 l 335 325 l 275 325 q 173 299 208 325 q 138 214 138 272 l 138 190 q 158 114 138 142 q 224 86 178 86 m 578 633 q 492 591 521 633 q 463 469 463 549 l 463 415 l 692 415 l 692 469 q 663 591 692 549 q 578 633 633 633 z "},"ć":{"ha":833,"x_min":103,"x_max":732,"o":"m 450 797 l 357 842 l 483 1092 l 614 1028 l 450 797 m 443 -17 q 299 10 363 -17 q 192 85 236 36 q 126 203 149 133 q 103 358 103 272 q 126 514 103 444 q 192 632 149 583 q 299 707 236 681 q 442 733 363 733 q 620 686 553 733 q 721 564 688 639 l 603 500 q 544 579 583 550 q 442 608 504 608 q 308 556 356 608 q 261 418 261 504 l 261 299 q 308 161 261 214 q 444 108 356 108 q 553 139 511 108 q 621 222 596 169 l 732 154 q 626 31 697 79 q 443 -17 556 -17 z "},"č":{"ha":833,"x_min":103,"x_max":732,"o":"m 358 819 l 192 1028 l 272 1086 l 438 925 l 603 1086 l 678 1028 l 511 819 l 358 819 m 443 -17 q 299 10 363 -17 q 192 85 236 36 q 126 203 149 133 q 103 358 103 272 q 126 514 103 444 q 192 632 149 583 q 299 707 236 681 q 442 733 363 733 q 620 686 553 733 q 721 564 688 639 l 603 500 q 544 579 583 550 q 442 608 504 608 q 308 556 356 608 q 261 418 261 504 l 261 299 q 308 161 261 214 q 444 108 356 108 q 553 139 511 108 q 621 222 596 169 l 732 154 q 626 31 697 79 q 443 -17 556 -17 z "},"ç":{"ha":833,"x_min":103,"x_max":732,"o":"m 442 733 q 620 686 553 733 q 721 564 688 639 l 603 500 q 544 579 583 550 q 442 608 504 608 q 308 556 356 608 q 261 418 261 504 l 261 299 q 308 161 261 214 q 444 108 356 108 q 553 139 511 108 q 621 222 596 169 l 732 154 q 631 33 699 79 q 456 -17 564 -14 l 442 -81 l 447 -86 q 477 -79 463 -82 q 507 -76 492 -76 q 576 -99 547 -76 q 604 -171 604 -122 q 590 -225 604 -203 q 553 -262 576 -247 q 501 -283 531 -276 q 438 -290 471 -290 q 338 -271 375 -290 q 286 -232 301 -251 l 343 -167 q 377 -194 356 -182 q 431 -206 399 -206 q 474 -196 457 -206 q 492 -165 492 -186 q 473 -133 492 -149 q 393 -110 454 -117 l 358 -106 l 378 -11 q 175 107 247 8 q 103 358 103 206 q 126 514 103 444 q 192 632 149 583 q 299 707 236 681 q 442 733 363 733 z "},"ĉ":{"ha":833,"x_min":103,"x_max":732,"o":"m 511 1075 l 678 867 l 597 808 l 433 969 l 268 808 l 192 867 l 358 1075 l 511 1075 m 443 -17 q 299 10 363 -17 q 192 85 236 36 q 126 203 149 133 q 103 358 103 272 q 126 514 103 444 q 192 632 149 583 q 299 707 236 681 q 442 733 363 733 q 620 686 553 733 q 721 564 688 639 l 603 500 q 544 579 583 550 q 442 608 504 608 q 308 556 356 608 q 261 418 261 504 l 261 299 q 308 161 261 214 q 444 108 356 108 q 553 139 511 108 q 621 222 596 169 l 732 154 q 626 31 697 79 q 443 -17 556 -17 z "},"ċ":{"ha":833,"x_min":103,"x_max":732,"o":"m 443 -17 q 299 10 363 -17 q 192 85 236 36 q 126 203 149 133 q 103 358 103 272 q 126 514 103 444 q 192 632 149 583 q 299 707 236 681 q 442 733 363 733 q 620 686 553 733 q 721 564 688 639 l 603 500 q 544 579 583 550 q 442 608 504 608 q 308 556 356 608 q 261 418 261 504 l 261 299 q 308 161 261 214 q 444 108 356 108 q 553 139 511 108 q 621 222 596 169 l 732 154 q 626 31 697 79 q 443 -17 556 -17 m 435 832 q 355 856 378 832 q 332 914 332 879 l 332 944 q 355 1003 332 979 q 435 1026 378 1026 q 515 1003 492 1026 q 538 944 538 979 l 538 914 q 515 856 538 879 q 435 832 492 832 z "},"ď":{"ha":833,"x_min":51,"x_max":893,"o":"m 299 -17 q 117 78 182 -17 q 51 358 51 174 q 117 638 51 543 q 299 733 182 733 q 415 697 369 733 q 489 594 461 661 l 497 594 l 497 1028 l 644 1028 l 644 0 l 497 0 l 497 122 l 489 122 q 415 19 461 56 q 299 -17 369 -17 m 354 104 q 455 138 413 104 q 497 238 497 171 l 497 479 q 455 579 497 546 q 354 613 413 613 q 244 565 282 613 q 207 428 207 518 l 207 289 q 244 151 207 199 q 354 104 282 104 m 735 1028 l 893 1028 l 822 753 l 729 753 l 735 1028 z "},"đ":{"ha":833,"x_min":71,"x_max":807,"o":"m 572 122 l 564 122 q 479 20 532 57 q 347 -17 426 -17 q 146 78 221 -17 q 71 358 71 172 q 146 639 71 544 q 347 733 221 733 q 479 697 426 733 q 564 594 532 660 l 572 594 l 572 828 l 367 828 l 367 942 l 572 942 l 572 1028 l 724 1028 l 724 942 l 807 942 l 807 828 l 724 828 l 724 0 l 572 0 l 572 122 m 410 107 q 472 115 443 107 q 524 140 501 124 q 559 181 546 157 q 572 239 572 206 l 572 478 q 559 535 572 511 q 524 576 546 560 q 472 601 501 593 q 410 610 443 610 q 277 558 324 610 q 231 417 231 506 l 231 300 q 277 160 231 213 q 410 107 324 107 z "},"ð":{"ha":833,"x_min":76,"x_max":757,"o":"m 651 975 l 538 900 q 622 801 582 856 q 692 682 661 747 q 740 540 722 617 q 757 376 757 464 q 733 202 757 276 q 666 79 710 128 q 560 7 622 31 q 421 -17 497 -17 q 275 9 339 -17 q 167 81 211 35 q 100 195 124 128 q 76 346 76 263 q 97 491 76 426 q 157 601 118 556 q 249 672 196 647 q 367 697 301 697 q 504 660 450 697 q 592 564 558 622 l 600 568 q 528 709 572 644 q 425 829 483 774 l 292 742 l 232 813 l 353 892 q 253 964 306 931 q 143 1028 201 997 l 376 1028 q 420 999 397 1014 q 467 964 443 983 l 592 1046 l 651 975 m 418 103 q 551 151 501 103 q 600 296 600 200 l 600 383 q 550 528 600 479 q 417 576 500 576 q 284 528 333 576 q 235 383 235 479 l 235 296 q 285 151 235 200 q 418 103 335 103 z "},"é":{"ha":833,"x_min":83,"x_max":750,"o":"m 433 804 l 340 849 l 467 1099 l 597 1035 l 433 804 m 432 -17 q 285 10 350 -17 q 175 85 219 36 q 107 202 131 133 q 83 357 83 271 q 108 513 83 443 q 176 631 132 582 q 282 707 219 681 q 421 733 344 733 q 557 708 496 733 q 661 635 618 682 q 727 522 704 588 q 750 378 750 457 l 750 321 l 236 321 l 236 297 q 289 159 236 213 q 435 106 342 106 q 553 135 504 106 q 633 215 603 165 l 728 132 q 617 26 692 69 q 432 -17 543 -17 m 421 618 q 347 604 381 618 q 288 565 313 590 q 250 504 264 539 q 236 428 236 469 l 236 418 l 596 418 l 596 432 q 548 567 596 517 q 421 618 500 618 z "},"ĕ":{"ha":833,"x_min":83,"x_max":750,"o":"m 432 -17 q 285 10 350 -17 q 175 85 219 36 q 107 202 131 133 q 83 357 83 271 q 108 513 83 443 q 176 631 132 582 q 282 707 219 681 q 421 733 344 733 q 557 708 496 733 q 661 635 618 682 q 727 522 704 588 q 750 378 750 457 l 750 321 l 236 321 l 236 297 q 289 159 236 213 q 435 106 342 106 q 553 135 504 106 q 633 215 603 165 l 728 132 q 617 26 692 69 q 432 -17 543 -17 m 421 618 q 347 604 381 618 q 288 565 313 590 q 250 504 264 539 q 236 428 236 469 l 236 418 l 596 418 l 596 432 q 548 567 596 517 q 421 618 500 618 m 418 813 q 319 834 360 813 q 249 888 278 856 q 203 960 221 921 q 175 1032 186 999 l 265 1075 l 294 1029 q 324 984 311 1004 q 351 951 338 964 q 380 931 364 938 q 418 924 396 924 q 485 951 461 924 q 542 1029 510 978 l 571 1075 l 661 1032 q 632 960 650 999 q 586 888 614 921 q 517 834 558 856 q 418 813 476 813 z "},"ě":{"ha":833,"x_min":83,"x_max":750,"o":"m 342 819 l 175 1028 l 256 1086 l 421 925 l 586 1086 l 661 1028 l 494 819 l 342 819 m 432 -17 q 285 10 350 -17 q 175 85 219 36 q 107 202 131 133 q 83 357 83 271 q 108 513 83 443 q 176 631 132 582 q 282 707 219 681 q 421 733 344 733 q 557 708 496 733 q 661 635 618 682 q 727 522 704 588 q 750 378 750 457 l 750 321 l 236 321 l 236 297 q 289 159 236 213 q 435 106 342 106 q 553 135 504 106 q 633 215 603 165 l 728 132 q 617 26 692 69 q 432 -17 543 -17 m 421 618 q 347 604 381 618 q 288 565 313 590 q 250 504 264 539 q 236 428 236 469 l 236 418 l 596 418 l 596 432 q 548 567 596 517 q 421 618 500 618 z "},"ê":{"ha":833,"x_min":83,"x_max":750,"o":"m 494 1075 l 661 867 l 581 808 l 417 969 l 251 808 l 175 867 l 342 1075 l 494 1075 m 432 -17 q 285 10 350 -17 q 175 85 219 36 q 107 202 131 133 q 83 357 83 271 q 108 513 83 443 q 176 631 132 582 q 282 707 219 681 q 421 733 344 733 q 557 708 496 733 q 661 635 618 682 q 727 522 704 588 q 750 378 750 457 l 750 321 l 236 321 l 236 297 q 289 159 236 213 q 435 106 342 106 q 553 135 504 106 q 633 215 603 165 l 728 132 q 617 26 692 69 q 432 -17 543 -17 m 421 618 q 347 604 381 618 q 288 565 313 590 q 250 504 264 539 q 236 428 236 469 l 236 418 l 596 418 l 596 432 q 548 567 596 517 q 421 618 500 618 z "},"ë":{"ha":833,"x_min":83,"x_max":750,"o":"m 279 843 q 207 864 228 843 q 186 917 186 885 l 186 943 q 207 996 186 975 q 279 1017 228 1017 q 351 996 331 1017 q 372 943 372 975 l 372 917 q 351 864 372 885 q 279 843 331 843 m 557 843 q 485 864 506 843 q 464 917 464 885 l 464 943 q 485 996 464 975 q 557 1017 506 1017 q 629 996 608 1017 q 650 943 650 975 l 650 917 q 629 864 650 885 q 557 843 608 843 m 432 -17 q 285 10 350 -17 q 175 85 219 36 q 107 202 131 133 q 83 357 83 271 q 108 513 83 443 q 176 631 132 582 q 282 707 219 681 q 421 733 344 733 q 557 708 496 733 q 661 635 618 682 q 727 522 704 588 q 750 378 750 457 l 750 321 l 236 321 l 236 297 q 289 159 236 213 q 435 106 342 106 q 553 135 504 106 q 633 215 603 165 l 728 132 q 617 26 692 69 q 432 -17 543 -17 m 421 618 q 347 604 381 618 q 288 565 313 590 q 250 504 264 539 q 236 428 236 469 l 236 418 l 596 418 l 596 432 q 548 567 596 517 q 421 618 500 618 z "},"ė":{"ha":833,"x_min":83,"x_max":750,"o":"m 432 -17 q 285 10 350 -17 q 175 85 219 36 q 107 202 131 133 q 83 357 83 271 q 108 513 83 443 q 176 631 132 582 q 282 707 219 681 q 421 733 344 733 q 557 708 496 733 q 661 635 618 682 q 727 522 704 588 q 750 378 750 457 l 750 321 l 236 321 l 236 297 q 289 159 236 213 q 435 106 342 106 q 553 135 504 106 q 633 215 603 165 l 728 132 q 617 26 692 69 q 432 -17 543 -17 m 421 618 q 347 604 381 618 q 288 565 313 590 q 250 504 264 539 q 236 428 236 469 l 236 418 l 596 418 l 596 432 q 548 567 596 517 q 421 618 500 618 m 418 832 q 338 856 361 832 q 315 914 315 879 l 315 944 q 338 1003 315 979 q 418 1026 361 1026 q 498 1003 475 1026 q 521 944 521 979 l 521 914 q 498 856 521 879 q 418 832 475 832 z "},"ẹ":{"ha":833,"x_min":83,"x_max":750,"o":"m 432 -17 q 285 10 350 -17 q 175 85 219 36 q 107 202 131 133 q 83 357 83 271 q 108 513 83 443 q 176 631 132 582 q 282 707 219 681 q 421 733 344 733 q 557 708 496 733 q 661 635 618 682 q 727 522 704 588 q 750 378 750 457 l 750 321 l 236 321 l 236 297 q 289 159 236 213 q 435 106 342 106 q 553 135 504 106 q 633 215 603 165 l 728 132 q 617 26 692 69 q 432 -17 543 -17 m 421 618 q 347 604 381 618 q 288 565 313 590 q 250 504 264 539 q 236 428 236 469 l 236 418 l 596 418 l 596 432 q 548 567 596 517 q 421 618 500 618 m 426 -257 q 354 -236 375 -257 q 333 -183 333 -215 l 333 -157 q 354 -104 333 -125 q 426 -83 375 -83 q 499 -104 478 -83 q 519 -157 519 -125 l 519 -183 q 499 -236 519 -215 q 426 -257 478 -257 z "},"è":{"ha":833,"x_min":83,"x_max":750,"o":"m 432 -17 q 285 10 350 -17 q 175 85 219 36 q 107 202 131 133 q 83 357 83 271 q 108 513 83 443 q 176 631 132 582 q 282 707 219 681 q 421 733 344 733 q 557 708 496 733 q 661 635 618 682 q 727 522 704 588 q 750 378 750 457 l 750 321 l 236 321 l 236 297 q 289 159 236 213 q 435 106 342 106 q 553 135 504 106 q 633 215 603 165 l 728 132 q 617 26 692 69 q 432 -17 543 -17 m 421 618 q 347 604 381 618 q 288 565 313 590 q 250 504 264 539 q 236 428 236 469 l 236 418 l 596 418 l 596 432 q 548 567 596 517 q 421 618 500 618 m 239 1035 l 369 1099 l 496 849 l 403 804 l 239 1035 z "},"ẻ":{"ha":833,"x_min":83,"x_max":750,"o":"m 432 -17 q 285 10 350 -17 q 175 85 219 36 q 107 202 131 133 q 83 357 83 271 q 108 513 83 443 q 176 631 132 582 q 282 707 219 681 q 421 733 344 733 q 557 708 496 733 q 661 635 618 682 q 727 522 704 588 q 750 378 750 457 l 750 321 l 236 321 l 236 297 q 289 159 236 213 q 435 106 342 106 q 553 135 504 106 q 633 215 603 165 l 728 132 q 617 26 692 69 q 432 -17 543 -17 m 421 618 q 347 604 381 618 q 288 565 313 590 q 250 504 264 539 q 236 428 236 469 l 236 418 l 596 418 l 596 432 q 548 567 596 517 q 421 618 500 618 m 281 1079 l 451 1079 q 540 1053 515 1079 q 565 992 565 1028 q 545 917 565 957 q 493 836 525 876 l 457 792 l 376 831 l 447 968 l 281 968 l 281 1079 z "},"ē":{"ha":833,"x_min":83,"x_max":750,"o":"m 432 -17 q 285 10 350 -17 q 175 85 219 36 q 107 202 131 133 q 83 357 83 271 q 108 513 83 443 q 176 631 132 582 q 282 707 219 681 q 421 733 344 733 q 557 708 496 733 q 661 635 618 682 q 727 522 704 588 q 750 378 750 457 l 750 321 l 236 321 l 236 297 q 289 159 236 213 q 435 106 342 106 q 553 135 504 106 q 633 215 603 165 l 728 132 q 617 26 692 69 q 432 -17 543 -17 m 421 618 q 347 604 381 618 q 288 565 313 590 q 250 504 264 539 q 236 428 236 469 l 236 418 l 596 418 l 596 432 q 548 567 596 517 q 421 618 500 618 m 217 986 l 619 986 l 619 872 l 217 872 l 217 986 z "},"ę":{"ha":833,"x_min":83,"x_max":750,"o":"m 501 -290 q 440 -284 468 -290 q 389 -264 411 -278 q 354 -228 367 -250 q 342 -176 342 -207 q 383 -85 342 -124 q 503 -12 425 -47 l 500 -7 q 468 -14 488 -11 q 425 -17 449 -17 q 285 9 349 -17 q 178 83 222 35 q 108 201 133 132 q 83 357 83 269 q 108 513 83 443 q 176 631 132 582 q 282 707 219 681 q 421 733 344 733 q 557 708 496 733 q 661 635 618 682 q 727 522 704 588 q 750 378 750 457 l 750 321 l 236 321 l 236 297 q 289 159 236 213 q 435 106 342 106 q 553 135 504 106 q 633 215 603 165 l 728 132 q 667 61 706 96 q 578 -14 629 26 q 521 -61 544 -42 q 483 -96 497 -81 q 462 -125 468 -111 q 456 -153 456 -139 q 473 -192 456 -181 q 511 -203 490 -203 q 553 -192 535 -203 q 585 -165 571 -182 l 649 -228 q 597 -273 633 -256 q 501 -290 560 -290 m 596 418 l 596 432 q 548 567 596 517 q 421 618 500 618 q 347 604 381 618 q 288 565 313 590 q 250 504 264 539 q 236 428 236 469 l 236 418 l 596 418 z "},"ẽ":{"ha":833,"x_min":83,"x_max":750,"o":"m 432 -17 q 285 10 350 -17 q 175 85 219 36 q 107 202 131 133 q 83 357 83 271 q 108 513 83 443 q 176 631 132 582 q 282 707 219 681 q 421 733 344 733 q 557 708 496 733 q 661 635 618 682 q 727 522 704 588 q 750 378 750 457 l 750 321 l 236 321 l 236 297 q 289 159 236 213 q 435 106 342 106 q 553 135 504 106 q 633 215 603 165 l 728 132 q 617 26 692 69 q 432 -17 543 -17 m 421 618 q 347 604 381 618 q 288 565 313 590 q 250 504 264 539 q 236 428 236 469 l 236 418 l 596 418 l 596 432 q 548 567 596 517 q 421 618 500 618 m 521 839 q 461 849 486 839 q 413 871 436 860 q 356 894 381 886 q 310 903 332 903 q 268 894 286 903 q 229 867 250 885 l 172 939 q 228 994 193 971 q 315 1018 264 1018 q 375 1008 350 1018 q 424 986 400 997 q 480 963 456 971 q 526 954 504 954 q 568 963 550 954 q 607 990 586 972 l 664 918 q 608 863 643 886 q 521 839 572 839 z "},"ế":{"ha":833,"x_min":83,"x_max":807,"o":"m 643 996 l 557 1038 l 683 1288 l 807 1226 l 643 996 m 486 1058 l 658 857 l 583 796 l 417 951 l 250 796 l 178 857 l 350 1058 l 486 1058 m 432 -17 q 285 10 350 -17 q 175 85 219 36 q 107 202 131 133 q 83 357 83 271 q 108 513 83 443 q 176 631 132 582 q 282 707 219 681 q 421 733 344 733 q 557 708 496 733 q 661 635 618 682 q 727 522 704 588 q 750 378 750 457 l 750 321 l 236 321 l 236 297 q 289 159 236 213 q 435 106 342 106 q 553 135 504 106 q 633 215 603 165 l 728 132 q 617 26 692 69 q 432 -17 543 -17 m 421 618 q 347 604 381 618 q 288 565 313 590 q 250 504 264 539 q 236 428 236 469 l 236 418 l 596 418 l 596 432 q 548 567 596 517 q 421 618 500 618 z "},"ệ":{"ha":833,"x_min":83,"x_max":750,"o":"m 494 1075 l 661 867 l 581 808 l 417 969 l 251 808 l 175 867 l 342 1075 l 494 1075 m 432 -17 q 285 10 350 -17 q 175 85 219 36 q 107 202 131 133 q 83 357 83 271 q 108 513 83 443 q 176 631 132 582 q 282 707 219 681 q 421 733 344 733 q 557 708 496 733 q 661 635 618 682 q 727 522 704 588 q 750 378 750 457 l 750 321 l 236 321 l 236 297 q 289 159 236 213 q 435 106 342 106 q 553 135 504 106 q 633 215 603 165 l 728 132 q 617 26 692 69 q 432 -17 543 -17 m 421 618 q 347 604 381 618 q 288 565 313 590 q 250 504 264 539 q 236 428 236 469 l 236 418 l 596 418 l 596 432 q 548 567 596 517 q 421 618 500 618 m 426 -257 q 354 -236 375 -257 q 333 -183 333 -215 l 333 -157 q 354 -104 333 -125 q 426 -83 375 -83 q 499 -104 478 -83 q 519 -157 519 -125 l 519 -183 q 499 -236 519 -215 q 426 -257 478 -257 z "},"ề":{"ha":833,"x_min":29,"x_max":750,"o":"m 29 1226 l 153 1288 l 279 1038 l 193 996 l 29 1226 m 486 1058 l 658 857 l 583 796 l 417 951 l 250 796 l 178 857 l 350 1058 l 486 1058 m 432 -17 q 285 10 350 -17 q 175 85 219 36 q 107 202 131 133 q 83 357 83 271 q 108 513 83 443 q 176 631 132 582 q 282 707 219 681 q 421 733 344 733 q 557 708 496 733 q 661 635 618 682 q 727 522 704 588 q 750 378 750 457 l 750 321 l 236 321 l 236 297 q 289 159 236 213 q 435 106 342 106 q 553 135 504 106 q 633 215 603 165 l 728 132 q 617 26 692 69 q 432 -17 543 -17 m 421 618 q 347 604 381 618 q 288 565 313 590 q 250 504 264 539 q 236 428 236 469 l 236 418 l 596 418 l 596 432 q 548 567 596 517 q 421 618 500 618 z "},"ể":{"ha":833,"x_min":83,"x_max":763,"o":"m 432 -17 q 285 10 350 -17 q 175 85 219 36 q 107 202 131 133 q 83 357 83 271 q 108 513 83 443 q 176 631 132 582 q 282 707 219 681 q 421 733 344 733 q 557 708 496 733 q 661 635 618 682 q 727 522 704 588 q 750 378 750 457 l 750 321 l 236 321 l 236 297 q 289 159 236 213 q 435 106 342 106 q 553 135 504 106 q 633 215 603 165 l 728 132 q 617 26 692 69 q 432 -17 543 -17 m 421 618 q 347 604 381 618 q 288 565 313 590 q 250 504 264 539 q 236 428 236 469 l 236 418 l 596 418 l 596 432 q 548 567 596 517 q 421 618 500 618 m 483 1271 l 649 1271 q 738 1245 713 1271 q 763 1183 763 1219 q 741 1108 763 1149 q 686 1026 719 1068 l 651 983 l 575 1022 l 647 1163 l 483 1163 l 483 1271 m 486 1058 l 658 857 l 583 796 l 417 951 l 250 796 l 178 857 l 350 1058 l 486 1058 z "},"ễ":{"ha":833,"x_min":83,"x_max":750,"o":"m 432 -17 q 285 10 350 -17 q 175 85 219 36 q 107 202 131 133 q 83 357 83 271 q 108 513 83 443 q 176 631 132 582 q 282 707 219 681 q 421 733 344 733 q 557 708 496 733 q 661 635 618 682 q 727 522 704 588 q 750 378 750 457 l 750 321 l 236 321 l 236 297 q 289 159 236 213 q 435 106 342 106 q 553 135 504 106 q 633 215 603 165 l 728 132 q 617 26 692 69 q 432 -17 543 -17 m 421 618 q 347 604 381 618 q 288 565 313 590 q 250 504 264 539 q 236 428 236 469 l 236 418 l 596 418 l 596 432 q 548 567 596 517 q 421 618 500 618 m 317 1263 q 376 1251 351 1263 q 425 1229 401 1240 q 481 1206 457 1214 q 528 1197 506 1197 q 569 1206 551 1197 q 608 1233 588 1215 l 663 1168 q 606 1112 642 1136 q 519 1088 571 1088 q 460 1099 485 1088 q 411 1121 435 1110 q 355 1144 379 1136 q 308 1153 331 1153 q 267 1144 285 1153 q 228 1117 249 1135 l 174 1182 q 230 1238 194 1214 q 317 1263 265 1263 m 486 1043 l 658 857 l 583 796 l 417 940 l 250 796 l 178 857 l 350 1043 l 486 1043 z "},"ə":{"ha":833,"x_min":83,"x_max":750,"o":"m 597 396 l 597 419 q 544 558 597 504 q 399 611 492 611 q 280 581 329 611 q 200 501 231 551 l 106 585 q 216 690 142 647 q 401 733 290 733 q 548 707 483 733 q 658 632 613 681 q 726 514 703 583 q 750 360 750 444 q 726 203 750 274 q 658 85 701 133 q 551 10 614 36 q 413 -17 489 -17 q 276 9 338 -17 q 172 82 215 35 q 106 194 129 129 q 83 339 83 260 l 83 396 l 597 396 m 238 285 q 285 149 238 200 q 413 99 333 99 q 487 113 453 99 q 545 152 521 126 q 583 213 569 178 q 597 289 597 247 l 597 299 l 238 299 l 238 285 z "},"ğ":{"ha":833,"x_min":82,"x_max":792,"o":"m 415 -294 q 259 -283 322 -294 q 156 -249 196 -271 q 99 -194 117 -226 q 82 -122 82 -162 q 115 -31 82 -64 q 207 17 147 1 l 207 31 q 149 69 171 44 q 128 135 128 94 q 164 215 128 188 q 257 256 200 242 l 257 263 q 156 349 192 293 q 119 482 119 404 q 140 585 119 539 q 199 665 161 632 q 291 715 238 697 q 411 733 344 733 q 528 717 475 733 l 788 717 l 788 608 l 663 608 q 694 550 685 582 q 703 482 703 518 q 682 378 703 425 q 623 299 661 332 q 531 249 585 267 q 411 232 478 232 q 322 240 364 232 q 272 217 297 233 q 247 171 247 200 q 279 129 247 138 q 358 121 311 121 l 519 121 q 728 66 664 121 q 792 -78 792 11 q 699 -242 792 -189 q 415 -294 606 -294 m 411 336 q 519 371 485 336 q 554 464 554 406 l 554 501 q 519 594 554 560 q 411 629 485 629 q 303 594 338 629 q 268 501 268 560 l 268 464 q 303 371 268 406 q 411 336 338 336 m 650 -87 q 621 -30 650 -51 q 515 -8 592 -8 l 267 -8 q 214 -89 214 -33 q 248 -158 214 -129 q 361 -187 282 -187 l 474 -187 q 605 -162 560 -187 q 650 -87 650 -136 m 417 813 q 317 834 358 813 q 248 888 276 856 q 202 960 219 921 q 174 1032 185 999 l 264 1075 l 293 1029 q 323 984 310 1004 q 349 951 336 964 q 378 931 363 938 q 417 924 394 924 q 484 951 460 924 q 540 1029 508 978 l 569 1075 l 660 1032 q 631 960 649 999 q 585 888 613 921 q 516 834 557 856 q 417 813 475 813 z "},"ĝ":{"ha":833,"x_min":82,"x_max":792,"o":"m 493 1075 l 660 867 l 579 808 l 415 969 l 250 808 l 174 867 l 340 1075 l 493 1075 m 415 -294 q 259 -283 322 -294 q 156 -249 196 -271 q 99 -194 117 -226 q 82 -122 82 -162 q 115 -31 82 -64 q 207 17 147 1 l 207 31 q 149 69 171 44 q 128 135 128 94 q 164 215 128 188 q 257 256 200 242 l 257 263 q 156 349 192 293 q 119 482 119 404 q 140 585 119 539 q 199 665 161 632 q 291 715 238 697 q 411 733 344 733 q 528 717 475 733 l 788 717 l 788 608 l 663 608 q 694 550 685 582 q 703 482 703 518 q 682 378 703 425 q 623 299 661 332 q 531 249 585 267 q 411 232 478 232 q 322 240 364 232 q 272 217 297 233 q 247 171 247 200 q 279 129 247 138 q 358 121 311 121 l 519 121 q 728 66 664 121 q 792 -78 792 11 q 699 -242 792 -189 q 415 -294 606 -294 m 411 336 q 519 371 485 336 q 554 464 554 406 l 554 501 q 519 594 554 560 q 411 629 485 629 q 303 594 338 629 q 268 501 268 560 l 268 464 q 303 371 268 406 q 411 336 338 336 m 650 -87 q 621 -30 650 -51 q 515 -8 592 -8 l 267 -8 q 214 -89 214 -33 q 248 -158 214 -129 q 361 -187 282 -187 l 474 -187 q 605 -162 560 -187 q 650 -87 650 -136 z "},"ģ":{"ha":833,"x_min":82,"x_max":792,"o":"m 792 -78 q 699 -242 792 -189 q 415 -294 606 -294 q 259 -283 322 -294 q 156 -249 196 -271 q 99 -194 117 -226 q 82 -122 82 -162 q 115 -31 82 -64 q 207 17 147 1 l 207 31 q 149 69 171 44 q 128 135 128 94 q 164 215 128 188 q 257 256 200 242 l 257 263 q 156 349 192 293 q 119 482 119 404 q 140 585 119 539 q 199 665 161 632 q 291 715 238 697 q 411 733 344 733 q 546 710 486 733 l 546 733 q 569 803 546 775 q 642 831 593 831 l 772 831 l 772 711 l 606 711 l 606 678 q 678 597 653 646 q 703 482 703 547 q 682 378 703 425 q 623 299 661 332 q 531 249 585 267 q 411 232 478 232 q 322 240 364 232 q 272 217 297 233 q 247 171 247 200 q 279 129 247 138 q 358 121 311 121 l 519 121 q 728 66 664 121 q 792 -78 792 11 m 650 -87 q 621 -30 650 -51 q 515 -8 592 -8 l 267 -8 q 214 -89 214 -33 q 248 -158 214 -129 q 361 -187 282 -187 l 474 -187 q 605 -162 560 -187 q 650 -87 650 -136 m 411 336 q 519 371 485 336 q 554 464 554 406 l 554 501 q 519 594 554 560 q 411 629 485 629 q 303 594 338 629 q 268 501 268 560 l 268 464 q 303 371 268 406 q 411 336 338 336 m 431 1089 l 532 1089 l 499 811 l 319 811 l 431 1089 z "},"ġ":{"ha":833,"x_min":82,"x_max":792,"o":"m 792 -78 q 699 -242 792 -189 q 415 -294 606 -294 q 259 -283 322 -294 q 156 -249 196 -271 q 99 -194 117 -226 q 82 -122 82 -162 q 115 -31 82 -64 q 207 17 147 1 l 207 31 q 149 69 171 44 q 128 135 128 94 q 164 215 128 188 q 257 256 200 242 l 257 263 q 156 349 192 293 q 119 482 119 404 q 140 585 119 539 q 199 665 161 632 q 291 715 238 697 q 411 733 344 733 q 546 710 486 733 l 546 733 q 569 803 546 775 q 642 831 593 831 l 772 831 l 772 711 l 606 711 l 606 678 q 678 597 653 646 q 703 482 703 547 q 682 378 703 425 q 623 299 661 332 q 531 249 585 267 q 411 232 478 232 q 322 240 364 232 q 272 217 297 233 q 247 171 247 200 q 279 129 247 138 q 358 121 311 121 l 519 121 q 728 66 664 121 q 792 -78 792 11 m 650 -87 q 621 -30 650 -51 q 515 -8 592 -8 l 267 -8 q 214 -89 214 -33 q 248 -158 214 -129 q 361 -187 282 -187 l 474 -187 q 605 -162 560 -187 q 650 -87 650 -136 m 411 336 q 519 371 485 336 q 554 464 554 406 l 554 501 q 519 594 554 560 q 411 629 485 629 q 303 594 338 629 q 268 501 268 560 l 268 464 q 303 371 268 406 q 411 336 338 336 m 413 832 q 333 856 356 832 q 310 914 310 879 l 310 944 q 333 1003 310 979 q 413 1026 356 1026 q 492 1003 469 1026 q 515 944 515 979 l 515 914 q 492 856 515 879 q 413 832 469 832 z "},"ħ":{"ha":833,"x_min":32,"x_max":724,"o":"m 117 0 l 117 828 l 32 828 l 32 942 l 117 942 l 117 1028 l 268 1028 l 268 942 l 472 942 l 472 828 l 268 828 l 268 594 l 275 594 q 303 648 286 622 q 346 692 321 674 q 404 722 371 711 q 482 733 438 733 q 657 663 590 733 q 724 461 724 592 l 724 0 l 572 0 l 572 439 q 424 610 572 610 q 367 602 394 610 q 317 579 339 594 q 281 540 294 564 q 268 486 268 517 l 268 0 l 117 0 z "},"ĥ":{"ha":833,"x_min":-50,"x_max":724,"o":"m 117 1028 l 268 1028 l 268 594 l 275 594 q 303 648 286 622 q 346 692 321 674 q 404 722 371 711 q 482 733 438 733 q 657 663 590 733 q 724 461 724 592 l 724 0 l 572 0 l 572 439 q 424 610 572 610 q 367 602 394 610 q 317 579 339 594 q 281 540 294 564 q 268 486 268 517 l 268 0 l 117 0 l 117 1028 m 269 1328 l 436 1119 l 356 1061 l 192 1222 l 26 1061 l -50 1119 l 117 1328 l 269 1328 z "},"ı":{"ha":833,"x_min":140,"x_max":765,"o":"m 140 122 l 385 122 l 385 594 l 140 594 l 140 717 l 536 717 l 536 122 l 765 122 l 765 0 l 140 0 l 140 122 z "},"í":{"ha":833,"x_min":140,"x_max":765,"o":"m 476 804 l 383 849 l 510 1099 l 640 1035 l 476 804 m 140 122 l 385 122 l 385 594 l 140 594 l 140 717 l 536 717 l 536 122 l 765 122 l 765 0 l 140 0 l 140 122 z "},"ĭ":{"ha":833,"x_min":140,"x_max":765,"o":"m 140 122 l 385 122 l 385 594 l 140 594 l 140 717 l 536 717 l 536 122 l 765 122 l 765 0 l 140 0 l 140 122 m 461 813 q 362 834 403 813 q 292 888 321 856 q 247 960 264 921 q 218 1032 229 999 l 308 1075 l 338 1029 q 367 984 354 1004 q 394 951 381 964 q 423 931 407 938 q 461 924 439 924 q 528 951 504 924 q 585 1029 553 978 l 614 1075 l 704 1032 q 675 960 693 999 q 629 888 657 921 q 560 834 601 856 q 461 813 519 813 z "},"ǐ":{"ha":833,"x_min":140,"x_max":765,"o":"m 140 122 l 385 122 l 385 594 l 140 594 l 140 717 l 536 717 l 536 122 l 765 122 l 765 0 l 140 0 l 140 122 m 385 819 l 218 1028 l 299 1086 l 464 925 l 629 1086 l 704 1028 l 538 819 l 385 819 z "},"î":{"ha":833,"x_min":140,"x_max":765,"o":"m 538 1075 l 704 867 l 624 808 l 460 969 l 294 808 l 218 867 l 385 1075 l 538 1075 m 140 122 l 385 122 l 385 594 l 140 594 l 140 717 l 536 717 l 536 122 l 765 122 l 765 0 l 140 0 l 140 122 z "},"ï":{"ha":833,"x_min":140,"x_max":765,"o":"m 322 843 q 250 864 271 843 q 229 917 229 885 l 229 943 q 250 996 229 975 q 322 1017 271 1017 q 394 996 374 1017 q 415 943 415 975 l 415 917 q 394 864 415 885 q 322 843 374 843 m 600 843 q 528 864 549 843 q 507 917 507 885 l 507 943 q 528 996 507 975 q 600 1017 549 1017 q 672 996 651 1017 q 693 943 693 975 l 693 917 q 672 864 693 885 q 600 843 651 843 m 140 122 l 385 122 l 385 594 l 140 594 l 140 717 l 536 717 l 536 122 l 765 122 l 765 0 l 140 0 l 140 122 z "},"ị":{"ha":833,"x_min":140,"x_max":765,"o":"m 461 847 q 380 871 403 847 q 357 929 357 894 l 357 958 q 380 1017 357 993 q 460 1040 403 1040 q 541 1017 518 1040 q 564 958 564 993 l 564 929 q 541 871 564 894 q 461 847 518 847 m 140 122 l 385 122 l 385 594 l 140 594 l 140 717 l 536 717 l 536 122 l 765 122 l 765 0 l 140 0 l 140 122 m 461 -257 q 389 -236 410 -257 q 368 -183 368 -215 l 368 -157 q 389 -104 368 -125 q 461 -83 410 -83 q 533 -104 513 -83 q 554 -157 554 -125 l 554 -183 q 533 -236 554 -215 q 461 -257 513 -257 z "},"ì":{"ha":833,"x_min":140,"x_max":765,"o":"m 140 122 l 385 122 l 385 594 l 140 594 l 140 717 l 536 717 l 536 122 l 765 122 l 765 0 l 140 0 l 140 122 m 282 1035 l 413 1099 l 539 849 l 446 804 l 282 1035 z "},"ỉ":{"ha":833,"x_min":140,"x_max":765,"o":"m 140 122 l 385 122 l 385 594 l 140 594 l 140 717 l 536 717 l 536 122 l 765 122 l 765 0 l 140 0 l 140 122 m 324 1079 l 494 1079 q 583 1053 558 1079 q 608 992 608 1028 q 588 917 608 957 q 536 836 568 876 l 500 792 l 419 831 l 490 968 l 324 968 l 324 1079 z "},"ī":{"ha":833,"x_min":140,"x_max":765,"o":"m 140 122 l 385 122 l 385 594 l 140 594 l 140 717 l 536 717 l 536 122 l 765 122 l 765 0 l 140 0 l 140 122 m 260 986 l 663 986 l 663 872 l 260 872 l 260 986 z "},"į":{"ha":833,"x_min":140,"x_max":801,"o":"m 654 -290 q 592 -284 621 -290 q 542 -264 564 -278 q 507 -228 519 -250 q 494 -176 494 -207 q 536 -83 494 -124 q 657 -4 578 -42 l 656 0 l 140 0 l 140 122 l 385 122 l 385 594 l 140 594 l 140 717 l 536 717 l 536 122 l 765 122 l 765 0 q 681 -57 713 -33 q 634 -99 650 -81 q 613 -129 618 -117 q 608 -153 608 -142 q 625 -192 608 -181 q 664 -203 642 -203 q 706 -192 688 -203 q 738 -165 724 -182 l 801 -228 q 749 -273 786 -256 q 654 -290 713 -290 m 461 847 q 380 871 403 847 q 357 929 357 894 l 357 958 q 380 1017 357 993 q 460 1040 403 1040 q 541 1017 518 1040 q 564 958 564 993 l 564 929 q 541 871 564 894 q 461 847 518 847 z "},"ĩ":{"ha":833,"x_min":140,"x_max":765,"o":"m 140 122 l 385 122 l 385 594 l 140 594 l 140 717 l 536 717 l 536 122 l 765 122 l 765 0 l 140 0 l 140 122 m 564 839 q 504 849 529 839 q 456 871 479 860 q 399 894 424 886 q 353 903 375 903 q 311 894 329 903 q 272 867 293 885 l 215 939 q 272 994 236 971 q 358 1018 307 1018 q 418 1008 393 1018 q 467 986 443 997 q 523 963 499 971 q 569 954 547 954 q 611 963 593 954 q 650 990 629 972 l 707 918 q 651 863 686 886 q 564 839 615 839 z "},"ĳ":{"ha":833,"x_min":100,"x_max":733,"o":"m 128 717 l 279 717 l 279 0 l 128 0 l 128 717 m 279 -156 l 554 -156 l 554 717 l 706 717 l 706 -96 q 661 -227 706 -176 q 522 -278 617 -278 l 279 -278 l 279 -156 m 204 847 q 123 871 146 847 q 100 929 100 894 l 100 958 q 123 1017 100 993 q 203 1040 146 1040 q 284 1017 261 1040 q 307 958 307 993 l 307 929 q 284 871 307 894 q 204 847 261 847 m 631 847 q 549 871 572 847 q 526 929 526 894 l 526 958 q 549 1017 526 993 q 629 1040 572 1040 q 710 1017 688 1040 q 733 958 733 993 l 733 929 q 710 871 733 894 q 631 847 688 847 z "},"ȷ":{"ha":833,"x_min":128,"x_max":604,"o":"m 136 -156 l 453 -156 l 453 594 l 128 594 l 128 717 l 604 717 l 604 -96 q 559 -227 604 -176 q 419 -278 514 -278 l 136 -278 l 136 -156 z "},"ĵ":{"ha":833,"x_min":128,"x_max":771,"o":"m 136 -156 l 453 -156 l 453 594 l 128 594 l 128 717 l 604 717 l 604 -96 q 559 -227 604 -176 q 419 -278 514 -278 l 136 -278 l 136 -156 m 604 1075 l 771 867 l 690 808 l 526 969 l 361 808 l 285 867 l 451 1075 l 604 1075 z "},"ķ":{"ha":833,"x_min":122,"x_max":806,"o":"m 351 -82 l 531 -82 l 419 -360 l 318 -360 l 351 -82 m 122 1028 l 274 1028 l 274 407 l 281 407 l 393 522 l 594 717 l 774 717 l 483 435 l 806 0 l 624 0 l 374 349 l 274 256 l 274 0 l 122 0 l 122 1028 z "},"ĸ":{"ha":833,"x_min":124,"x_max":808,"o":"m 381 338 l 274 238 l 274 0 l 124 0 l 124 717 l 274 717 l 274 385 l 282 385 l 399 514 l 599 717 l 776 717 l 488 429 l 808 0 l 626 0 l 381 338 z "},"ĺ":{"ha":833,"x_min":104,"x_max":731,"o":"m 104 122 l 342 122 l 342 906 l 104 906 l 104 1028 l 493 1028 l 493 122 l 731 122 l 731 0 l 104 0 l 104 122 m 432 1057 l 339 1101 l 465 1351 l 596 1288 l 432 1057 z "},"ľ":{"ha":833,"x_min":104,"x_max":781,"o":"m 703 750 l 597 750 l 606 1028 l 781 1028 l 703 750 m 104 122 l 342 122 l 342 906 l 104 906 l 104 1028 l 493 1028 l 493 122 l 731 122 l 731 0 l 104 0 l 104 122 z "},"ļ":{"ha":833,"x_min":104,"x_max":731,"o":"m 329 -82 l 508 -82 l 397 -360 l 296 -360 l 329 -82 m 104 122 l 342 122 l 342 906 l 104 906 l 104 1028 l 493 1028 l 493 122 l 731 122 l 731 0 l 104 0 l 104 122 z "},"ŀ":{"ha":833,"x_min":97,"x_max":814,"o":"m 97 122 l 335 122 l 335 906 l 97 906 l 97 1028 l 486 1028 l 486 122 l 724 122 l 724 0 l 97 0 l 97 122 m 711 329 q 631 353 654 329 q 608 411 608 376 l 608 442 q 631 500 608 476 q 711 524 654 524 q 791 500 768 524 q 814 442 814 476 l 814 411 q 791 353 814 376 q 711 329 768 329 z "},"ł":{"ha":833,"x_min":104,"x_max":729,"o":"m 104 122 l 342 122 l 342 382 l 143 317 l 143 435 l 342 499 l 342 906 l 104 906 l 104 1028 l 493 1028 l 493 543 l 690 608 l 690 490 l 493 426 l 493 122 l 729 122 l 729 0 l 104 0 l 104 122 z "},"ń":{"ha":833,"x_min":117,"x_max":724,"o":"m 435 804 l 342 849 l 468 1099 l 599 1035 l 435 804 m 117 0 l 117 717 l 268 717 l 268 594 l 275 594 q 303 648 286 622 q 346 692 321 674 q 404 722 371 711 q 482 733 438 733 q 657 663 590 733 q 724 461 724 592 l 724 0 l 572 0 l 572 439 q 424 610 572 610 q 367 602 394 610 q 317 579 339 594 q 281 540 294 564 q 268 486 268 517 l 268 0 l 117 0 z "},"ň":{"ha":833,"x_min":117,"x_max":724,"o":"m 343 819 l 176 1028 l 257 1086 l 422 925 l 588 1086 l 663 1028 l 496 819 l 343 819 m 117 0 l 117 717 l 268 717 l 268 594 l 275 594 q 303 648 286 622 q 346 692 321 674 q 404 722 371 711 q 482 733 438 733 q 657 663 590 733 q 724 461 724 592 l 724 0 l 572 0 l 572 439 q 424 610 572 610 q 367 602 394 610 q 317 579 339 594 q 281 540 294 564 q 268 486 268 517 l 268 0 l 117 0 z "},"ņ":{"ha":833,"x_min":117,"x_max":724,"o":"m 332 -82 l 511 -82 l 400 -360 l 299 -360 l 332 -82 m 117 0 l 117 717 l 268 717 l 268 594 l 275 594 q 303 648 286 622 q 346 692 321 674 q 404 722 371 711 q 482 733 438 733 q 657 663 590 733 q 724 461 724 592 l 724 0 l 572 0 l 572 439 q 424 610 572 610 q 367 602 394 610 q 317 579 339 594 q 281 540 294 564 q 268 486 268 517 l 268 0 l 117 0 z "},"ñ":{"ha":833,"x_min":117,"x_max":724,"o":"m 117 0 l 117 717 l 268 717 l 268 594 l 275 594 q 303 648 286 622 q 346 692 321 674 q 404 722 371 711 q 482 733 438 733 q 657 663 590 733 q 724 461 724 592 l 724 0 l 572 0 l 572 439 q 424 610 572 610 q 367 602 394 610 q 317 579 339 594 q 281 540 294 564 q 268 486 268 517 l 268 0 l 117 0 m 522 839 q 463 849 488 839 q 414 871 438 860 q 358 894 382 886 q 311 903 333 903 q 269 894 288 903 q 231 867 251 885 l 174 939 q 230 994 194 971 q 317 1018 265 1018 q 376 1008 351 1018 q 425 986 401 997 q 481 963 457 971 q 528 954 506 954 q 569 963 551 954 q 608 990 588 972 l 665 918 q 609 863 644 886 q 522 839 574 839 z "},"ŉ":{"ha":833,"x_min":0,"x_max":729,"o":"m 143 717 l 290 717 l 290 594 l 297 594 q 325 648 308 622 q 366 692 342 674 q 423 722 390 711 q 499 733 456 733 q 666 665 603 733 q 729 467 729 597 l 729 0 l 582 0 l 582 439 q 440 613 582 613 q 385 605 413 613 q 338 581 358 597 q 303 542 317 565 q 290 486 290 518 l 290 0 l 143 0 l 143 717 m 13 1028 l 164 1028 l 83 756 l 0 756 l 13 1028 z "},"ŋ":{"ha":833,"x_min":117,"x_max":724,"o":"m 268 -156 l 572 -156 l 572 439 q 424 610 572 610 q 367 602 394 610 q 317 579 339 594 q 281 540 294 564 q 268 486 268 517 l 268 0 l 117 0 l 117 717 l 268 717 l 268 594 l 275 594 q 303 648 286 622 q 346 692 321 674 q 404 722 371 711 q 482 733 438 733 q 657 663 590 733 q 724 461 724 592 l 724 -96 q 679 -227 724 -176 q 540 -278 635 -278 l 268 -278 l 268 -156 z "},"ó":{"ha":833,"x_min":76,"x_max":757,"o":"m 432 804 l 339 849 l 465 1099 l 596 1035 l 432 804 m 417 -17 q 274 10 338 -17 q 167 85 211 36 q 100 203 124 133 q 76 358 76 272 q 100 514 76 444 q 167 632 124 583 q 274 707 211 681 q 417 733 338 733 q 559 707 496 733 q 666 632 622 681 q 733 514 710 583 q 757 358 757 444 q 733 203 757 272 q 666 85 710 133 q 559 10 622 36 q 417 -17 496 -17 m 417 103 q 549 153 500 103 q 599 304 599 204 l 599 413 q 549 563 599 513 q 417 614 500 614 q 284 563 333 614 q 235 413 235 513 l 235 304 q 284 153 235 204 q 417 103 333 103 z "},"ŏ":{"ha":833,"x_min":76,"x_max":757,"o":"m 417 -17 q 274 10 338 -17 q 167 85 211 36 q 100 203 124 133 q 76 358 76 272 q 100 514 76 444 q 167 632 124 583 q 274 707 211 681 q 417 733 338 733 q 559 707 496 733 q 666 632 622 681 q 733 514 710 583 q 757 358 757 444 q 733 203 757 272 q 666 85 710 133 q 559 10 622 36 q 417 -17 496 -17 m 417 103 q 549 153 500 103 q 599 304 599 204 l 599 413 q 549 563 599 513 q 417 614 500 614 q 284 563 333 614 q 235 413 235 513 l 235 304 q 284 153 235 204 q 417 103 333 103 m 417 813 q 317 834 358 813 q 248 888 276 856 q 202 960 219 921 q 174 1032 185 999 l 264 1075 l 293 1029 q 323 984 310 1004 q 349 951 336 964 q 378 931 363 938 q 417 924 394 924 q 484 951 460 924 q 540 1029 508 978 l 569 1075 l 660 1032 q 631 960 649 999 q 585 888 613 921 q 516 834 557 856 q 417 813 475 813 z "},"ǒ":{"ha":833,"x_min":76,"x_max":757,"o":"m 417 -17 q 274 10 338 -17 q 167 85 211 36 q 100 203 124 133 q 76 358 76 272 q 100 514 76 444 q 167 632 124 583 q 274 707 211 681 q 417 733 338 733 q 559 707 496 733 q 666 632 622 681 q 733 514 710 583 q 757 358 757 444 q 733 203 757 272 q 666 85 710 133 q 559 10 622 36 q 417 -17 496 -17 m 417 103 q 549 153 500 103 q 599 304 599 204 l 599 413 q 549 563 599 513 q 417 614 500 614 q 284 563 333 614 q 235 413 235 513 l 235 304 q 284 153 235 204 q 417 103 333 103 m 340 819 l 174 1028 l 254 1086 l 419 925 l 585 1086 l 660 1028 l 493 819 l 340 819 z "},"ô":{"ha":833,"x_min":76,"x_max":757,"o":"m 493 1075 l 660 867 l 579 808 l 415 969 l 250 808 l 174 867 l 340 1075 l 493 1075 m 417 -17 q 274 10 338 -17 q 167 85 211 36 q 100 203 124 133 q 76 358 76 272 q 100 514 76 444 q 167 632 124 583 q 274 707 211 681 q 417 733 338 733 q 559 707 496 733 q 666 632 622 681 q 733 514 710 583 q 757 358 757 444 q 733 203 757 272 q 666 85 710 133 q 559 10 622 36 q 417 -17 496 -17 m 417 103 q 549 153 500 103 q 599 304 599 204 l 599 413 q 549 563 599 513 q 417 614 500 614 q 284 563 333 614 q 235 413 235 513 l 235 304 q 284 153 235 204 q 417 103 333 103 z "},"ö":{"ha":833,"x_min":76,"x_max":757,"o":"m 278 843 q 206 864 226 843 q 185 917 185 885 l 185 943 q 206 996 185 975 q 278 1017 226 1017 q 350 996 329 1017 q 371 943 371 975 l 371 917 q 350 864 371 885 q 278 843 329 843 m 556 843 q 483 864 504 843 q 463 917 463 885 l 463 943 q 483 996 463 975 q 556 1017 504 1017 q 628 996 607 1017 q 649 943 649 975 l 649 917 q 628 864 649 885 q 556 843 607 843 m 417 -17 q 274 10 338 -17 q 167 85 211 36 q 100 203 124 133 q 76 358 76 272 q 100 514 76 444 q 167 632 124 583 q 274 707 211 681 q 417 733 338 733 q 559 707 496 733 q 666 632 622 681 q 733 514 710 583 q 757 358 757 444 q 733 203 757 272 q 666 85 710 133 q 559 10 622 36 q 417 -17 496 -17 m 417 103 q 549 153 500 103 q 599 304 599 204 l 599 413 q 549 563 599 513 q 417 614 500 614 q 284 563 333 614 q 235 413 235 513 l 235 304 q 284 153 235 204 q 417 103 333 103 z "},"ọ":{"ha":833,"x_min":76,"x_max":757,"o":"m 417 -17 q 274 10 338 -17 q 167 85 211 36 q 100 203 124 133 q 76 358 76 272 q 100 514 76 444 q 167 632 124 583 q 274 707 211 681 q 417 733 338 733 q 559 707 496 733 q 666 632 622 681 q 733 514 710 583 q 757 358 757 444 q 733 203 757 272 q 666 85 710 133 q 559 10 622 36 q 417 -17 496 -17 m 417 103 q 549 153 500 103 q 599 304 599 204 l 599 413 q 549 563 599 513 q 417 614 500 614 q 284 563 333 614 q 235 413 235 513 l 235 304 q 284 153 235 204 q 417 103 333 103 m 417 -257 q 344 -236 365 -257 q 324 -183 324 -215 l 324 -157 q 344 -104 324 -125 q 417 -83 365 -83 q 489 -104 468 -83 q 510 -157 510 -125 l 510 -183 q 489 -236 510 -215 q 417 -257 468 -257 z "},"ò":{"ha":833,"x_min":76,"x_max":757,"o":"m 417 -17 q 274 10 338 -17 q 167 85 211 36 q 100 203 124 133 q 76 358 76 272 q 100 514 76 444 q 167 632 124 583 q 274 707 211 681 q 417 733 338 733 q 559 707 496 733 q 666 632 622 681 q 733 514 710 583 q 757 358 757 444 q 733 203 757 272 q 666 85 710 133 q 559 10 622 36 q 417 -17 496 -17 m 417 103 q 549 153 500 103 q 599 304 599 204 l 599 413 q 549 563 599 513 q 417 614 500 614 q 284 563 333 614 q 235 413 235 513 l 235 304 q 284 153 235 204 q 417 103 333 103 m 238 1035 l 368 1099 l 494 849 l 401 804 l 238 1035 z "},"ỏ":{"ha":833,"x_min":76,"x_max":757,"o":"m 417 -17 q 274 10 338 -17 q 167 85 211 36 q 100 203 124 133 q 76 358 76 272 q 100 514 76 444 q 167 632 124 583 q 274 707 211 681 q 417 733 338 733 q 559 707 496 733 q 666 632 622 681 q 733 514 710 583 q 757 358 757 444 q 733 203 757 272 q 666 85 710 133 q 559 10 622 36 q 417 -17 496 -17 m 417 103 q 549 153 500 103 q 599 304 599 204 l 599 413 q 549 563 599 513 q 417 614 500 614 q 284 563 333 614 q 235 413 235 513 l 235 304 q 284 153 235 204 q 417 103 333 103 m 279 1079 l 450 1079 q 539 1053 514 1079 q 564 992 564 1028 q 544 917 564 957 q 492 836 524 876 l 456 792 l 375 831 l 446 968 l 279 968 l 279 1079 z "},"ő":{"ha":833,"x_min":76,"x_max":757,"o":"m 306 804 l 219 844 l 346 1096 l 469 1035 l 306 804 m 554 804 l 468 844 l 594 1096 l 718 1035 l 554 804 m 417 -17 q 274 10 338 -17 q 167 85 211 36 q 100 203 124 133 q 76 358 76 272 q 100 514 76 444 q 167 632 124 583 q 274 707 211 681 q 417 733 338 733 q 559 707 496 733 q 666 632 622 681 q 733 514 710 583 q 757 358 757 444 q 733 203 757 272 q 666 85 710 133 q 559 10 622 36 q 417 -17 496 -17 m 417 103 q 549 153 500 103 q 599 304 599 204 l 599 413 q 549 563 599 513 q 417 614 500 614 q 284 563 333 614 q 235 413 235 513 l 235 304 q 284 153 235 204 q 417 103 333 103 z "},"ō":{"ha":833,"x_min":76,"x_max":757,"o":"m 215 986 l 618 986 l 618 872 l 215 872 l 215 986 m 417 -17 q 274 10 338 -17 q 167 85 211 36 q 100 203 124 133 q 76 358 76 272 q 100 514 76 444 q 167 632 124 583 q 274 707 211 681 q 417 733 338 733 q 559 707 496 733 q 666 632 622 681 q 733 514 710 583 q 757 358 757 444 q 733 203 757 272 q 666 85 710 133 q 559 10 622 36 q 417 -17 496 -17 m 417 103 q 549 153 500 103 q 599 304 599 204 l 599 413 q 549 563 599 513 q 417 614 500 614 q 284 563 333 614 q 235 413 235 513 l 235 304 q 284 153 235 204 q 417 103 333 103 z "},"ø":{"ha":833,"x_min":51,"x_max":782,"o":"m 51 -4 l 146 113 q 76 358 76 207 q 100 514 76 444 q 167 632 124 583 q 274 707 211 681 q 417 733 338 733 q 613 678 533 733 l 699 783 l 782 721 l 688 604 q 757 358 757 510 q 733 203 757 272 q 666 85 710 133 q 559 10 622 36 q 417 -17 496 -17 q 221 39 300 -17 l 135 -67 l 51 -4 m 417 614 q 284 563 333 614 q 235 413 235 513 l 235 310 q 237 263 235 286 q 246 224 239 240 l 535 576 q 417 614 490 614 m 417 103 q 549 153 500 103 q 599 304 599 204 l 599 407 q 597 453 599 431 q 588 493 594 476 l 299 140 q 351 112 321 121 q 417 103 381 103 z "},"ǿ":{"ha":833,"x_min":51,"x_max":782,"o":"m 51 -4 l 146 113 q 76 358 76 207 q 100 514 76 444 q 167 632 124 583 q 274 707 211 681 q 417 733 338 733 q 613 678 533 733 l 699 783 l 782 721 l 688 604 q 757 358 757 510 q 733 203 757 272 q 666 85 710 133 q 559 10 622 36 q 417 -17 496 -17 q 221 39 300 -17 l 135 -67 l 51 -4 m 417 614 q 284 563 333 614 q 235 413 235 513 l 235 310 q 237 263 235 286 q 246 224 239 240 l 535 576 q 417 614 490 614 m 417 103 q 549 153 500 103 q 599 304 599 204 l 599 407 q 597 453 599 431 q 588 493 594 476 l 299 140 q 351 112 321 121 q 417 103 381 103 m 432 804 l 339 849 l 465 1099 l 596 1035 l 432 804 z "},"õ":{"ha":833,"x_min":76,"x_max":757,"o":"m 417 -17 q 274 10 338 -17 q 167 85 211 36 q 100 203 124 133 q 76 358 76 272 q 100 514 76 444 q 167 632 124 583 q 274 707 211 681 q 417 733 338 733 q 559 707 496 733 q 666 632 622 681 q 733 514 710 583 q 757 358 757 444 q 733 203 757 272 q 666 85 710 133 q 559 10 622 36 q 417 -17 496 -17 m 417 103 q 549 153 500 103 q 599 304 599 204 l 599 413 q 549 563 599 513 q 417 614 500 614 q 284 563 333 614 q 235 413 235 513 l 235 304 q 284 153 235 204 q 417 103 333 103 m 519 839 q 460 849 485 839 q 411 871 435 860 q 355 894 379 886 q 308 903 331 903 q 267 894 285 903 q 228 867 249 885 l 171 939 q 227 994 192 971 q 314 1018 263 1018 q 374 1008 349 1018 q 422 986 399 997 q 478 963 454 971 q 525 954 503 954 q 567 963 549 954 q 606 990 585 972 l 663 918 q 606 863 642 886 q 519 839 571 839 z "},"ơ":{"ha":833,"x_min":76,"x_max":775,"o":"m 775 874 l 775 733 q 753 655 775 685 q 665 625 731 625 q 757 358 757 529 q 733 203 757 272 q 666 85 710 133 q 559 10 622 36 q 417 -17 496 -17 q 274 10 338 -17 q 167 85 211 36 q 100 203 124 133 q 76 358 76 272 q 100 514 76 444 q 167 632 124 583 q 274 707 211 681 q 417 733 338 733 q 532 717 479 733 l 646 717 l 646 874 l 775 874 m 417 103 q 549 153 500 103 q 599 304 599 204 l 599 413 q 549 563 599 513 q 417 614 500 614 q 284 563 333 614 q 235 413 235 513 l 235 304 q 284 153 235 204 q 417 103 333 103 z "},"ớ":{"ha":833,"x_min":76,"x_max":775,"o":"m 432 804 l 339 849 l 465 1099 l 596 1035 l 432 804 m 775 874 l 775 733 q 753 655 775 685 q 665 625 731 625 q 757 358 757 529 q 733 203 757 272 q 666 85 710 133 q 559 10 622 36 q 417 -17 496 -17 q 274 10 338 -17 q 167 85 211 36 q 100 203 124 133 q 76 358 76 272 q 100 514 76 444 q 167 632 124 583 q 274 707 211 681 q 417 733 338 733 q 532 717 479 733 l 646 717 l 646 874 l 775 874 m 417 103 q 549 153 500 103 q 599 304 599 204 l 599 413 q 549 563 599 513 q 417 614 500 614 q 284 563 333 614 q 235 413 235 513 l 235 304 q 284 153 235 204 q 417 103 333 103 z "},"ợ":{"ha":833,"x_min":76,"x_max":775,"o":"m 775 874 l 775 733 q 753 655 775 685 q 665 625 731 625 q 757 358 757 529 q 733 203 757 272 q 666 85 710 133 q 559 10 622 36 q 417 -17 496 -17 q 274 10 338 -17 q 167 85 211 36 q 100 203 124 133 q 76 358 76 272 q 100 514 76 444 q 167 632 124 583 q 274 707 211 681 q 417 733 338 733 q 532 717 479 733 l 646 717 l 646 874 l 775 874 m 417 103 q 549 153 500 103 q 599 304 599 204 l 599 413 q 549 563 599 513 q 417 614 500 614 q 284 563 333 614 q 235 413 235 513 l 235 304 q 284 153 235 204 q 417 103 333 103 m 417 -257 q 344 -236 365 -257 q 324 -183 324 -215 l 324 -157 q 344 -104 324 -125 q 417 -83 365 -83 q 489 -104 468 -83 q 510 -157 510 -125 l 510 -183 q 489 -236 510 -215 q 417 -257 468 -257 z "},"ờ":{"ha":833,"x_min":76,"x_max":775,"o":"m 775 874 l 775 733 q 753 655 775 685 q 665 625 731 625 q 757 358 757 529 q 733 203 757 272 q 666 85 710 133 q 559 10 622 36 q 417 -17 496 -17 q 274 10 338 -17 q 167 85 211 36 q 100 203 124 133 q 76 358 76 272 q 100 514 76 444 q 167 632 124 583 q 274 707 211 681 q 417 733 338 733 q 532 717 479 733 l 646 717 l 646 874 l 775 874 m 417 103 q 549 153 500 103 q 599 304 599 204 l 599 413 q 549 563 599 513 q 417 614 500 614 q 284 563 333 614 q 235 413 235 513 l 235 304 q 284 153 235 204 q 417 103 333 103 m 238 1035 l 368 1099 l 494 849 l 401 804 l 238 1035 z "},"ở":{"ha":833,"x_min":76,"x_max":775,"o":"m 775 874 l 775 733 q 753 655 775 685 q 665 625 731 625 q 757 358 757 529 q 733 203 757 272 q 666 85 710 133 q 559 10 622 36 q 417 -17 496 -17 q 274 10 338 -17 q 167 85 211 36 q 100 203 124 133 q 76 358 76 272 q 100 514 76 444 q 167 632 124 583 q 274 707 211 681 q 417 733 338 733 q 532 717 479 733 l 646 717 l 646 874 l 775 874 m 417 103 q 549 153 500 103 q 599 304 599 204 l 599 413 q 549 563 599 513 q 417 614 500 614 q 284 563 333 614 q 235 413 235 513 l 235 304 q 284 153 235 204 q 417 103 333 103 m 279 1079 l 450 1079 q 539 1053 514 1079 q 564 992 564 1028 q 544 917 564 957 q 492 836 524 876 l 456 792 l 375 831 l 446 968 l 279 968 l 279 1079 z "},"ỡ":{"ha":833,"x_min":76,"x_max":775,"o":"m 493 842 q 440 851 463 842 q 399 871 418 860 q 353 893 374 886 q 313 900 333 900 q 239 865 275 900 l 182 935 q 235 991 203 967 q 315 1015 268 1015 q 368 1006 346 1015 q 410 986 390 997 q 455 964 435 971 q 496 957 475 957 q 569 992 533 957 l 626 922 q 573 866 606 890 q 493 842 540 842 m 775 874 l 775 733 q 753 655 775 685 q 665 625 731 625 q 757 358 757 529 q 733 203 757 272 q 666 85 710 133 q 559 10 622 36 q 417 -17 496 -17 q 274 10 338 -17 q 167 85 211 36 q 100 203 124 133 q 76 358 76 272 q 100 514 76 444 q 167 632 124 583 q 274 707 211 681 q 417 733 338 733 q 532 717 479 733 l 646 717 l 646 874 l 775 874 m 417 103 q 549 153 500 103 q 599 304 599 204 l 599 413 q 549 563 599 513 q 417 614 500 614 q 284 563 333 614 q 235 413 235 513 l 235 304 q 284 153 235 204 q 417 103 333 103 z "},"ố":{"ha":833,"x_min":76,"x_max":806,"o":"m 642 996 l 556 1038 l 682 1288 l 806 1226 l 642 996 m 485 1058 l 657 857 l 582 796 l 415 951 l 249 796 l 176 857 l 349 1058 l 485 1058 m 417 -17 q 274 10 338 -17 q 167 85 211 36 q 100 203 124 133 q 76 358 76 272 q 100 514 76 444 q 167 632 124 583 q 274 707 211 681 q 417 733 338 733 q 559 707 496 733 q 666 632 622 681 q 733 514 710 583 q 757 358 757 444 q 733 203 757 272 q 666 85 710 133 q 559 10 622 36 q 417 -17 496 -17 m 417 103 q 549 153 500 103 q 599 304 599 204 l 599 413 q 549 563 599 513 q 417 614 500 614 q 284 563 333 614 q 235 413 235 513 l 235 304 q 284 153 235 204 q 417 103 333 103 z "},"ộ":{"ha":833,"x_min":76,"x_max":757,"o":"m 493 1075 l 660 867 l 579 808 l 415 969 l 250 808 l 174 867 l 340 1075 l 493 1075 m 417 -17 q 274 10 338 -17 q 167 85 211 36 q 100 203 124 133 q 76 358 76 272 q 100 514 76 444 q 167 632 124 583 q 274 707 211 681 q 417 733 338 733 q 559 707 496 733 q 666 632 622 681 q 733 514 710 583 q 757 358 757 444 q 733 203 757 272 q 666 85 710 133 q 559 10 622 36 q 417 -17 496 -17 m 417 103 q 549 153 500 103 q 599 304 599 204 l 599 413 q 549 563 599 513 q 417 614 500 614 q 284 563 333 614 q 235 413 235 513 l 235 304 q 284 153 235 204 q 417 103 333 103 m 417 -257 q 344 -236 365 -257 q 324 -183 324 -215 l 324 -157 q 344 -104 324 -125 q 417 -83 365 -83 q 489 -104 468 -83 q 510 -157 510 -125 l 510 -183 q 489 -236 510 -215 q 417 -257 468 -257 z "},"ồ":{"ha":833,"x_min":28,"x_max":757,"o":"m 28 1226 l 151 1288 l 278 1038 l 192 996 l 28 1226 m 485 1058 l 657 857 l 582 796 l 415 951 l 249 796 l 176 857 l 349 1058 l 485 1058 m 417 -17 q 274 10 338 -17 q 167 85 211 36 q 100 203 124 133 q 76 358 76 272 q 100 514 76 444 q 167 632 124 583 q 274 707 211 681 q 417 733 338 733 q 559 707 496 733 q 666 632 622 681 q 733 514 710 583 q 757 358 757 444 q 733 203 757 272 q 666 85 710 133 q 559 10 622 36 q 417 -17 496 -17 m 417 103 q 549 153 500 103 q 599 304 599 204 l 599 413 q 549 563 599 513 q 417 614 500 614 q 284 563 333 614 q 235 413 235 513 l 235 304 q 284 153 235 204 q 417 103 333 103 z "},"ổ":{"ha":833,"x_min":76,"x_max":761,"o":"m 482 1271 l 647 1271 q 736 1245 711 1271 q 761 1183 761 1219 q 740 1108 761 1149 q 685 1026 718 1068 l 650 983 l 574 1022 l 646 1163 l 482 1163 l 482 1271 m 485 1058 l 657 857 l 582 796 l 415 951 l 249 796 l 176 857 l 349 1058 l 485 1058 m 417 -17 q 274 10 338 -17 q 167 85 211 36 q 100 203 124 133 q 76 358 76 272 q 100 514 76 444 q 167 632 124 583 q 274 707 211 681 q 417 733 338 733 q 559 707 496 733 q 666 632 622 681 q 733 514 710 583 q 757 358 757 444 q 733 203 757 272 q 666 85 710 133 q 559 10 622 36 q 417 -17 496 -17 m 417 103 q 549 153 500 103 q 599 304 599 204 l 599 413 q 549 563 599 513 q 417 614 500 614 q 284 563 333 614 q 235 413 235 513 l 235 304 q 284 153 235 204 q 417 103 333 103 z "},"ỗ":{"ha":833,"x_min":76,"x_max":757,"o":"m 417 -17 q 274 10 338 -17 q 167 85 211 36 q 100 203 124 133 q 76 358 76 272 q 100 514 76 444 q 167 632 124 583 q 274 707 211 681 q 417 733 338 733 q 559 707 496 733 q 666 632 622 681 q 733 514 710 583 q 757 358 757 444 q 733 203 757 272 q 666 85 710 133 q 559 10 622 36 q 417 -17 496 -17 m 417 103 q 549 153 500 103 q 599 304 599 204 l 599 413 q 549 563 599 513 q 417 614 500 614 q 284 563 333 614 q 235 413 235 513 l 235 304 q 284 153 235 204 q 417 103 333 103 m 315 1263 q 375 1251 350 1263 q 424 1229 400 1240 q 480 1206 456 1214 q 526 1197 504 1197 q 568 1206 550 1197 q 607 1233 586 1215 l 661 1168 q 605 1112 640 1136 q 518 1088 569 1088 q 458 1099 483 1088 q 410 1121 433 1110 q 353 1144 378 1136 q 307 1153 329 1153 q 265 1144 283 1153 q 226 1117 247 1135 l 172 1182 q 228 1238 193 1214 q 315 1263 264 1263 m 485 1043 l 657 857 l 582 796 l 415 940 l 249 796 l 176 857 l 349 1043 l 485 1043 z "},"œ":{"ha":833,"x_min":18,"x_max":810,"o":"m 249 88 q 324 130 297 88 q 351 267 351 172 l 351 450 q 324 587 351 544 q 249 629 297 629 q 173 587 200 629 q 146 450 146 544 l 146 267 q 173 130 146 172 q 249 88 200 88 m 692 415 l 692 469 q 664 591 692 549 q 583 633 636 633 q 503 591 531 633 q 475 469 475 549 l 475 415 l 692 415 m 590 -17 q 488 10 533 -17 q 411 90 443 38 l 406 90 q 239 -17 350 -17 q 75 78 132 -17 q 18 358 18 172 q 75 639 18 544 q 240 733 132 733 q 413 615 363 733 l 417 615 q 492 706 447 678 q 593 733 538 733 q 753 649 697 733 q 810 408 810 565 l 810 325 l 475 325 l 475 296 q 505 147 475 204 q 592 90 535 90 q 660 125 636 90 q 696 204 683 160 l 800 167 q 773 98 790 131 q 730 40 756 65 q 669 -1 704 14 q 590 -17 635 -17 z "},"ŕ":{"ha":833,"x_min":106,"x_max":778,"o":"m 489 804 l 396 849 l 522 1099 l 653 1035 l 489 804 m 106 122 l 296 122 l 296 594 l 106 594 l 106 717 l 447 717 l 447 526 l 456 526 q 483 599 465 564 q 529 659 501 633 q 597 701 557 685 q 692 717 638 717 l 778 717 l 778 572 l 636 572 q 500 523 553 572 q 447 390 447 474 l 447 122 l 707 122 l 707 0 l 106 0 l 106 122 z "},"ř":{"ha":833,"x_min":106,"x_max":778,"o":"m 397 819 l 231 1028 l 311 1086 l 476 925 l 642 1086 l 717 1028 l 550 819 l 397 819 m 106 122 l 296 122 l 296 594 l 106 594 l 106 717 l 447 717 l 447 526 l 456 526 q 483 599 465 564 q 529 659 501 633 q 597 701 557 685 q 692 717 638 717 l 778 717 l 778 572 l 636 572 q 500 523 553 572 q 447 390 447 474 l 447 122 l 707 122 l 707 0 l 106 0 l 106 122 z "},"ŗ":{"ha":833,"x_min":106,"x_max":778,"o":"m 283 -82 l 463 -82 l 351 -360 l 250 -360 l 283 -82 m 106 122 l 296 122 l 296 594 l 106 594 l 106 717 l 447 717 l 447 526 l 456 526 q 483 599 465 564 q 529 659 501 633 q 597 701 557 685 q 692 717 638 717 l 778 717 l 778 572 l 636 572 q 500 523 553 572 q 447 390 447 474 l 447 122 l 707 122 l 707 0 l 106 0 l 106 122 z "},"ś":{"ha":833,"x_min":82,"x_max":733,"o":"m 432 804 l 339 849 l 465 1099 l 596 1035 l 432 804 m 418 -17 q 217 21 301 -17 q 82 121 133 58 l 175 204 q 281 126 222 153 q 421 99 340 99 q 540 124 494 99 q 585 201 585 149 q 576 239 585 224 q 553 264 568 254 q 517 279 538 274 q 475 288 497 285 l 361 306 q 276 324 319 311 q 199 359 233 336 q 144 418 165 382 q 122 510 122 454 q 206 676 122 619 q 428 733 290 733 q 601 703 528 733 q 722 621 674 674 l 638 532 q 558 591 610 564 q 422 618 507 618 q 271 522 271 618 q 303 459 271 476 q 381 436 336 442 l 494 418 q 580 400 538 411 q 656 366 622 389 q 712 307 690 343 q 733 215 733 271 q 649 45 733 107 q 418 -17 565 -17 z "},"š":{"ha":833,"x_min":82,"x_max":733,"o":"m 340 819 l 174 1028 l 254 1086 l 419 925 l 585 1086 l 660 1028 l 493 819 l 340 819 m 418 -17 q 217 21 301 -17 q 82 121 133 58 l 175 204 q 281 126 222 153 q 421 99 340 99 q 540 124 494 99 q 585 201 585 149 q 576 239 585 224 q 553 264 568 254 q 517 279 538 274 q 475 288 497 285 l 361 306 q 276 324 319 311 q 199 359 233 336 q 144 418 165 382 q 122 510 122 454 q 206 676 122 619 q 428 733 290 733 q 601 703 528 733 q 722 621 674 674 l 638 532 q 558 591 610 564 q 422 618 507 618 q 271 522 271 618 q 303 459 271 476 q 381 436 336 442 l 494 418 q 580 400 538 411 q 656 366 622 389 q 712 307 690 343 q 733 215 733 271 q 649 45 733 107 q 418 -17 565 -17 z "},"ş":{"ha":833,"x_min":82,"x_max":733,"o":"m 429 -290 q 330 -271 367 -290 q 276 -232 293 -251 l 335 -167 q 369 -194 347 -182 q 422 -206 390 -206 q 466 -196 449 -206 q 483 -165 483 -186 q 464 -133 483 -149 q 385 -110 444 -117 l 350 -106 l 368 -14 q 199 29 271 -7 q 82 121 128 65 l 175 204 q 281 126 222 153 q 421 99 340 99 q 540 124 494 99 q 585 201 585 149 q 576 239 585 224 q 553 264 568 254 q 517 279 538 274 q 475 288 497 285 l 361 306 q 276 324 319 311 q 199 359 233 336 q 144 418 165 382 q 122 510 122 454 q 206 676 122 619 q 428 733 290 733 q 601 703 528 733 q 722 621 674 674 l 638 532 q 558 591 610 564 q 422 618 507 618 q 271 522 271 618 q 303 459 271 476 q 381 436 336 442 l 494 418 q 580 400 538 411 q 656 366 622 389 q 712 307 690 343 q 733 215 733 271 q 657 51 733 111 q 446 -17 581 -10 l 433 -81 l 439 -86 q 469 -79 454 -82 q 497 -76 483 -76 q 567 -99 539 -76 q 596 -171 596 -122 q 582 -225 596 -203 q 545 -262 568 -247 q 492 -283 522 -276 q 429 -290 463 -290 z "},"ŝ":{"ha":833,"x_min":82,"x_max":733,"o":"m 493 1075 l 660 867 l 579 808 l 415 969 l 250 808 l 174 867 l 340 1075 l 493 1075 m 418 -17 q 217 21 301 -17 q 82 121 133 58 l 175 204 q 281 126 222 153 q 421 99 340 99 q 540 124 494 99 q 585 201 585 149 q 576 239 585 224 q 553 264 568 254 q 517 279 538 274 q 475 288 497 285 l 361 306 q 276 324 319 311 q 199 359 233 336 q 144 418 165 382 q 122 510 122 454 q 206 676 122 619 q 428 733 290 733 q 601 703 528 733 q 722 621 674 674 l 638 532 q 558 591 610 564 q 422 618 507 618 q 271 522 271 618 q 303 459 271 476 q 381 436 336 442 l 494 418 q 580 400 538 411 q 656 366 622 389 q 712 307 690 343 q 733 215 733 271 q 649 45 733 107 q 418 -17 565 -17 z "},"ș":{"ha":833,"x_min":82,"x_max":733,"o":"m 328 -82 l 507 -82 l 396 -360 l 294 -360 l 328 -82 m 418 -17 q 217 21 301 -17 q 82 121 133 58 l 175 204 q 281 126 222 153 q 421 99 340 99 q 540 124 494 99 q 585 201 585 149 q 576 239 585 224 q 553 264 568 254 q 517 279 538 274 q 475 288 497 285 l 361 306 q 276 324 319 311 q 199 359 233 336 q 144 418 165 382 q 122 510 122 454 q 206 676 122 619 q 428 733 290 733 q 601 703 528 733 q 722 621 674 674 l 638 532 q 558 591 610 564 q 422 618 507 618 q 271 522 271 618 q 303 459 271 476 q 381 436 336 442 l 494 418 q 580 400 538 411 q 656 366 622 389 q 712 307 690 343 q 733 215 733 271 q 649 45 733 107 q 418 -17 565 -17 z "},"ſ":{"ha":833,"x_min":94,"x_max":763,"o":"m 108 122 l 338 122 l 338 594 l 94 594 l 94 717 l 338 717 l 338 846 q 382 977 338 926 q 521 1028 426 1028 l 763 1028 l 763 906 l 489 906 l 489 122 l 731 122 l 731 0 l 108 0 l 108 122 z "},"ß":{"ha":833,"x_min":117,"x_max":796,"o":"m 117 0 l 117 846 q 161 977 117 926 q 301 1028 206 1028 l 504 1028 l 504 908 l 265 908 l 265 717 l 738 717 l 738 592 l 518 294 q 722 214 649 281 q 796 21 796 147 q 697 -201 796 -125 q 432 -278 599 -278 l 340 -278 l 340 -158 l 426 -158 q 588 -119 535 -158 q 640 4 640 -81 l 640 38 q 585 156 640 121 q 408 192 529 192 l 382 192 l 382 311 l 593 597 l 265 597 l 265 0 l 117 0 z "},"ŧ":{"ha":833,"x_min":56,"x_max":733,"o":"m 733 0 l 460 0 q 321 51 365 0 q 276 182 276 101 l 276 322 l 138 322 l 138 433 l 276 433 l 276 594 l 56 594 l 56 717 l 213 717 q 269 733 253 717 q 286 790 286 749 l 286 969 l 428 969 l 428 717 l 733 717 l 733 594 l 428 594 l 428 433 l 654 433 l 654 322 l 428 322 l 428 122 l 733 122 l 733 0 z "},"ť":{"ha":833,"x_min":56,"x_max":733,"o":"m 649 789 l 543 789 l 551 1067 l 726 1067 l 649 789 m 460 0 q 321 51 365 0 q 276 182 276 101 l 276 594 l 56 594 l 56 717 l 213 717 q 269 733 253 717 q 286 790 286 749 l 286 969 l 428 969 l 428 717 l 733 717 l 733 594 l 428 594 l 428 122 l 733 122 l 733 0 l 460 0 z "},"ț":{"ha":833,"x_min":56,"x_max":733,"o":"m 425 -82 l 604 -82 l 493 -360 l 392 -360 l 425 -82 m 460 0 q 321 51 365 0 q 276 182 276 101 l 276 594 l 56 594 l 56 717 l 213 717 q 269 733 253 717 q 286 790 286 749 l 286 969 l 428 969 l 428 717 l 733 717 l 733 594 l 428 594 l 428 122 l 733 122 l 733 0 l 460 0 z "},"ţ":{"ha":833,"x_min":56,"x_max":733,"o":"m 531 -290 q 431 -271 468 -290 q 378 -232 394 -251 l 436 -167 q 470 -194 449 -182 q 524 -206 492 -206 q 567 -196 550 -206 q 585 -165 585 -186 q 565 -133 585 -149 q 486 -110 546 -117 l 451 -106 l 472 0 l 460 0 q 321 51 365 0 q 276 182 276 101 l 276 594 l 56 594 l 56 717 l 213 717 q 269 733 253 717 q 286 790 286 749 l 286 969 l 428 969 l 428 717 l 733 717 l 733 594 l 428 594 l 428 122 l 733 122 l 733 0 l 551 0 l 535 -81 l 540 -86 q 570 -79 556 -82 q 600 -76 585 -76 q 669 -99 640 -76 q 697 -171 697 -122 q 683 -225 697 -203 q 647 -262 669 -247 q 594 -283 624 -276 q 531 -290 564 -290 z "},"þ":{"ha":833,"x_min":110,"x_max":763,"o":"m 110 1028 l 261 1028 l 261 594 l 269 594 q 354 697 301 660 q 486 733 407 733 q 688 639 613 733 q 763 358 763 544 q 688 78 763 172 q 486 -17 613 -17 q 354 20 407 -17 q 269 122 301 57 l 261 122 l 261 -278 l 110 -278 l 110 1028 m 424 107 q 556 160 510 107 q 603 300 603 213 l 603 417 q 556 557 603 504 q 424 610 510 610 q 361 601 390 610 q 310 576 332 593 q 274 535 288 560 q 261 478 261 511 l 261 239 q 274 181 261 206 q 310 140 288 157 q 361 115 332 124 q 424 107 390 107 z "},"ú":{"ha":833,"x_min":110,"x_max":717,"o":"m 431 804 l 338 849 l 464 1099 l 594 1035 l 431 804 m 565 122 l 558 122 q 530 69 547 94 q 488 24 513 43 q 429 -6 463 6 q 351 -17 396 -17 q 176 54 243 -17 q 110 256 110 125 l 110 717 l 261 717 l 261 278 q 410 107 261 107 q 467 115 439 107 q 517 138 494 122 q 552 176 539 153 q 565 231 565 199 l 565 717 l 717 717 l 717 0 l 565 0 l 565 122 z "},"ŭ":{"ha":833,"x_min":110,"x_max":717,"o":"m 565 122 l 558 122 q 530 69 547 94 q 488 24 513 43 q 429 -6 463 6 q 351 -17 396 -17 q 176 54 243 -17 q 110 256 110 125 l 110 717 l 261 717 l 261 278 q 410 107 261 107 q 467 115 439 107 q 517 138 494 122 q 552 176 539 153 q 565 231 565 199 l 565 717 l 717 717 l 717 0 l 565 0 l 565 122 m 415 813 q 316 834 357 813 q 247 888 275 856 q 201 960 218 921 q 172 1032 183 999 l 263 1075 l 292 1029 q 322 984 308 1004 q 348 951 335 964 q 377 931 361 938 q 415 924 393 924 q 483 951 458 924 q 539 1029 507 978 l 568 1075 l 658 1032 q 629 960 647 999 q 583 888 611 921 q 515 834 556 856 q 415 813 474 813 z "},"ǔ":{"ha":833,"x_min":110,"x_max":717,"o":"m 565 122 l 558 122 q 530 69 547 94 q 488 24 513 43 q 429 -6 463 6 q 351 -17 396 -17 q 176 54 243 -17 q 110 256 110 125 l 110 717 l 261 717 l 261 278 q 410 107 261 107 q 467 115 439 107 q 517 138 494 122 q 552 176 539 153 q 565 231 565 199 l 565 717 l 717 717 l 717 0 l 565 0 l 565 122 m 338 819 l 171 1028 l 251 1086 l 417 925 l 582 1086 l 657 1028 l 490 819 l 338 819 z "},"û":{"ha":833,"x_min":110,"x_max":717,"o":"m 492 1075 l 658 867 l 578 808 l 414 969 l 249 808 l 172 867 l 339 1075 l 492 1075 m 565 122 l 558 122 q 530 69 547 94 q 488 24 513 43 q 429 -6 463 6 q 351 -17 396 -17 q 176 54 243 -17 q 110 256 110 125 l 110 717 l 261 717 l 261 278 q 410 107 261 107 q 467 115 439 107 q 517 138 494 122 q 552 176 539 153 q 565 231 565 199 l 565 717 l 717 717 l 717 0 l 565 0 l 565 122 z "},"ü":{"ha":833,"x_min":110,"x_max":717,"o":"m 276 843 q 204 864 225 843 q 183 917 183 885 l 183 943 q 204 996 183 975 q 276 1017 225 1017 q 349 996 328 1017 q 369 943 369 975 l 369 917 q 349 864 369 885 q 276 843 328 843 m 554 843 q 482 864 503 843 q 461 917 461 885 l 461 943 q 482 996 461 975 q 554 1017 503 1017 q 626 996 606 1017 q 647 943 647 975 l 647 917 q 626 864 647 885 q 554 843 606 843 m 565 122 l 558 122 q 530 69 547 94 q 488 24 513 43 q 429 -6 463 6 q 351 -17 396 -17 q 176 54 243 -17 q 110 256 110 125 l 110 717 l 261 717 l 261 278 q 410 107 261 107 q 467 115 439 107 q 517 138 494 122 q 552 176 539 153 q 565 231 565 199 l 565 717 l 717 717 l 717 0 l 565 0 l 565 122 z "},"ụ":{"ha":833,"x_min":110,"x_max":717,"o":"m 565 122 l 558 122 q 530 69 547 94 q 488 24 513 43 q 429 -6 463 6 q 351 -17 396 -17 q 176 54 243 -17 q 110 256 110 125 l 110 717 l 261 717 l 261 278 q 410 107 261 107 q 467 115 439 107 q 517 138 494 122 q 552 176 539 153 q 565 231 565 199 l 565 717 l 717 717 l 717 0 l 565 0 l 565 122 m 413 -257 q 340 -236 361 -257 q 319 -183 319 -215 l 319 -157 q 340 -104 319 -125 q 413 -83 361 -83 q 485 -104 464 -83 q 506 -157 506 -125 l 506 -183 q 485 -236 506 -215 q 413 -257 464 -257 z "},"ù":{"ha":833,"x_min":110,"x_max":717,"o":"m 565 122 l 558 122 q 530 69 547 94 q 488 24 513 43 q 429 -6 463 6 q 351 -17 396 -17 q 176 54 243 -17 q 110 256 110 125 l 110 717 l 261 717 l 261 278 q 410 107 261 107 q 467 115 439 107 q 517 138 494 122 q 552 176 539 153 q 565 231 565 199 l 565 717 l 717 717 l 717 0 l 565 0 l 565 122 m 236 1035 l 367 1099 l 493 849 l 400 804 l 236 1035 z "},"ủ":{"ha":833,"x_min":110,"x_max":717,"o":"m 565 122 l 558 122 q 530 69 547 94 q 488 24 513 43 q 429 -6 463 6 q 351 -17 396 -17 q 176 54 243 -17 q 110 256 110 125 l 110 717 l 261 717 l 261 278 q 410 107 261 107 q 467 115 439 107 q 517 138 494 122 q 552 176 539 153 q 565 231 565 199 l 565 717 l 717 717 l 717 0 l 565 0 l 565 122 m 275 1079 l 446 1079 q 535 1053 510 1079 q 560 992 560 1028 q 540 917 560 957 q 488 836 519 876 l 451 792 l 371 831 l 442 968 l 275 968 l 275 1079 z "},"ű":{"ha":833,"x_min":110,"x_max":717,"o":"m 565 122 l 558 122 q 530 69 547 94 q 488 24 513 43 q 429 -6 463 6 q 351 -17 396 -17 q 176 54 243 -17 q 110 256 110 125 l 110 717 l 261 717 l 261 278 q 410 107 261 107 q 467 115 439 107 q 517 138 494 122 q 552 176 539 153 q 565 231 565 199 l 565 717 l 717 717 l 717 0 l 565 0 l 565 122 m 304 804 l 218 844 l 344 1096 l 468 1035 l 304 804 m 553 804 l 467 844 l 593 1096 l 717 1035 l 553 804 z "},"ū":{"ha":833,"x_min":110,"x_max":717,"o":"m 565 122 l 558 122 q 530 69 547 94 q 488 24 513 43 q 429 -6 463 6 q 351 -17 396 -17 q 176 54 243 -17 q 110 256 110 125 l 110 717 l 261 717 l 261 278 q 410 107 261 107 q 467 115 439 107 q 517 138 494 122 q 552 176 539 153 q 565 231 565 199 l 565 717 l 717 717 l 717 0 l 565 0 l 565 122 m 214 986 l 617 986 l 617 872 l 214 872 l 214 986 z "},"ų":{"ha":833,"x_min":110,"x_max":751,"o":"m 717 0 q 633 -57 664 -33 q 585 -99 601 -81 q 563 -129 568 -117 q 558 -153 558 -142 q 576 -192 558 -181 q 615 -203 593 -203 q 657 -192 639 -203 q 689 -165 675 -182 l 751 -228 q 700 -273 736 -256 q 606 -290 664 -290 q 544 -284 572 -290 q 493 -264 515 -278 q 458 -228 471 -250 q 446 -176 446 -207 q 488 -83 446 -124 q 608 -4 529 -42 l 607 0 l 565 0 l 565 122 l 558 122 q 530 69 547 94 q 488 24 513 43 q 429 -6 463 6 q 351 -17 396 -17 q 176 54 243 -17 q 110 256 110 125 l 110 717 l 261 717 l 261 278 q 410 107 261 107 q 467 115 439 107 q 517 138 494 122 q 552 176 539 153 q 565 231 565 199 l 565 717 l 717 717 l 717 0 z "},"ů":{"ha":833,"x_min":110,"x_max":717,"o":"m 415 785 q 344 798 378 785 q 288 834 311 811 q 250 890 264 857 q 236 960 236 922 q 250 1031 236 999 q 288 1086 264 1063 q 344 1123 311 1110 q 415 1136 378 1136 q 486 1123 453 1136 q 543 1086 519 1110 q 581 1031 567 1063 q 594 960 594 999 q 581 890 594 922 q 543 834 567 857 q 486 798 519 811 q 415 785 453 785 m 415 868 q 492 942 492 868 l 492 979 q 415 1053 492 1053 q 339 979 339 1053 l 339 942 q 415 868 339 868 m 565 122 l 558 122 q 530 69 547 94 q 488 24 513 43 q 429 -6 463 6 q 351 -17 396 -17 q 176 54 243 -17 q 110 256 110 125 l 110 717 l 261 717 l 261 278 q 410 107 261 107 q 467 115 439 107 q 517 138 494 122 q 552 176 539 153 q 565 231 565 199 l 565 717 l 717 717 l 717 0 l 565 0 l 565 122 z "},"ũ":{"ha":833,"x_min":110,"x_max":717,"o":"m 565 122 l 558 122 q 530 69 547 94 q 488 24 513 43 q 429 -6 463 6 q 351 -17 396 -17 q 176 54 243 -17 q 110 256 110 125 l 110 717 l 261 717 l 261 278 q 410 107 261 107 q 467 115 439 107 q 517 138 494 122 q 552 176 539 153 q 565 231 565 199 l 565 717 l 717 717 l 717 0 l 565 0 l 565 122 m 518 839 q 458 849 483 839 q 410 871 433 860 q 353 894 378 886 q 307 903 329 903 q 265 894 283 903 q 226 867 247 885 l 169 939 q 226 994 190 971 q 313 1018 261 1018 q 372 1008 347 1018 q 421 986 397 997 q 477 963 453 971 q 524 954 501 954 q 565 963 547 954 q 604 990 583 972 l 661 918 q 605 863 640 886 q 518 839 569 839 z "},"ư":{"ha":833,"x_min":110,"x_max":822,"o":"m 822 732 q 801 651 822 681 q 717 622 779 622 l 717 0 l 565 0 l 565 122 l 558 122 q 530 69 547 94 q 488 24 513 43 q 429 -6 463 6 q 351 -17 396 -17 q 176 54 243 -17 q 110 256 110 125 l 110 717 l 261 717 l 261 278 q 410 107 261 107 q 467 115 439 107 q 517 138 494 122 q 552 176 539 153 q 565 231 565 199 l 565 717 l 692 717 l 692 874 l 822 874 l 822 732 z "},"ứ":{"ha":833,"x_min":110,"x_max":822,"o":"m 431 804 l 338 849 l 464 1099 l 594 1035 l 431 804 m 822 732 q 801 651 822 681 q 717 622 779 622 l 717 0 l 565 0 l 565 122 l 558 122 q 530 69 547 94 q 488 24 513 43 q 429 -6 463 6 q 351 -17 396 -17 q 176 54 243 -17 q 110 256 110 125 l 110 717 l 261 717 l 261 278 q 410 107 261 107 q 467 115 439 107 q 517 138 494 122 q 552 176 539 153 q 565 231 565 199 l 565 717 l 692 717 l 692 874 l 822 874 l 822 732 z "},"ự":{"ha":833,"x_min":110,"x_max":822,"o":"m 822 732 q 801 651 822 681 q 717 622 779 622 l 717 0 l 565 0 l 565 122 l 558 122 q 530 69 547 94 q 488 24 513 43 q 429 -6 463 6 q 351 -17 396 -17 q 176 54 243 -17 q 110 256 110 125 l 110 717 l 261 717 l 261 278 q 410 107 261 107 q 467 115 439 107 q 517 138 494 122 q 552 176 539 153 q 565 231 565 199 l 565 717 l 692 717 l 692 874 l 822 874 l 822 732 m 413 -257 q 340 -236 361 -257 q 319 -183 319 -215 l 319 -157 q 340 -104 319 -125 q 413 -83 361 -83 q 485 -104 464 -83 q 506 -157 506 -125 l 506 -183 q 485 -236 506 -215 q 413 -257 464 -257 z "},"ừ":{"ha":833,"x_min":110,"x_max":822,"o":"m 236 1035 l 367 1099 l 493 849 l 400 804 l 236 1035 m 822 732 q 801 651 822 681 q 717 622 779 622 l 717 0 l 565 0 l 565 122 l 558 122 q 530 69 547 94 q 488 24 513 43 q 429 -6 463 6 q 351 -17 396 -17 q 176 54 243 -17 q 110 256 110 125 l 110 717 l 261 717 l 261 278 q 410 107 261 107 q 467 115 439 107 q 517 138 494 122 q 552 176 539 153 q 565 231 565 199 l 565 717 l 692 717 l 692 874 l 822 874 l 822 732 z "},"ử":{"ha":833,"x_min":110,"x_max":822,"o":"m 275 1079 l 446 1079 q 535 1053 510 1079 q 560 992 560 1028 q 540 917 560 957 q 488 836 519 876 l 451 792 l 371 831 l 442 968 l 275 968 l 275 1079 m 822 732 q 801 651 822 681 q 717 622 779 622 l 717 0 l 565 0 l 565 122 l 558 122 q 530 69 547 94 q 488 24 513 43 q 429 -6 463 6 q 351 -17 396 -17 q 176 54 243 -17 q 110 256 110 125 l 110 717 l 261 717 l 261 278 q 410 107 261 107 q 467 115 439 107 q 517 138 494 122 q 552 176 539 153 q 565 231 565 199 l 565 717 l 692 717 l 692 874 l 822 874 l 822 732 z "},"ữ":{"ha":833,"x_min":110,"x_max":822,"o":"m 497 842 q 444 851 467 842 q 403 871 422 860 q 358 893 378 886 q 317 900 338 900 q 243 865 279 900 l 186 935 q 240 991 207 967 q 319 1015 272 1015 q 372 1006 350 1015 q 414 986 394 997 q 459 964 439 971 q 500 957 479 957 q 574 992 538 957 l 631 922 q 577 866 610 890 q 497 842 544 842 m 822 732 q 801 651 822 681 q 717 622 779 622 l 717 0 l 565 0 l 565 122 l 558 122 q 530 69 547 94 q 488 24 513 43 q 429 -6 463 6 q 351 -17 396 -17 q 176 54 243 -17 q 110 256 110 125 l 110 717 l 261 717 l 261 278 q 410 107 261 107 q 467 115 439 107 q 517 138 494 122 q 552 176 539 153 q 565 231 565 199 l 565 717 l 692 717 l 692 874 l 822 874 l 822 732 z "},"ǖ":{"ha":833,"x_min":110,"x_max":717,"o":"m 565 122 l 558 122 q 530 69 547 94 q 488 24 513 43 q 429 -6 463 6 q 351 -17 396 -17 q 176 54 243 -17 q 110 256 110 125 l 110 717 l 261 717 l 261 278 q 410 107 261 107 q 467 115 439 107 q 517 138 494 122 q 552 176 539 153 q 565 231 565 199 l 565 717 l 717 717 l 717 0 l 565 0 l 565 122 m 211 1178 l 614 1178 l 614 1063 l 211 1063 l 211 1178 m 268 818 q 196 839 217 818 q 175 892 175 860 l 175 918 q 196 971 175 950 q 268 992 217 992 q 340 971 319 992 q 361 918 361 950 l 361 892 q 340 839 361 860 q 268 818 319 818 m 557 818 q 485 839 506 818 q 464 892 464 860 l 464 918 q 485 971 464 950 q 557 992 506 992 q 629 971 608 992 q 650 918 650 950 l 650 892 q 629 839 650 860 q 557 818 608 818 z "},"ǘ":{"ha":833,"x_min":110,"x_max":717,"o":"m 565 122 l 558 122 q 530 69 547 94 q 488 24 513 43 q 429 -6 463 6 q 351 -17 396 -17 q 176 54 243 -17 q 110 256 110 125 l 110 717 l 261 717 l 261 278 q 410 107 261 107 q 467 115 439 107 q 517 138 494 122 q 552 176 539 153 q 565 231 565 199 l 565 717 l 717 717 l 717 0 l 565 0 l 565 122 m 428 996 l 343 1038 l 468 1288 l 592 1226 l 428 996 m 268 818 q 196 839 217 818 q 175 892 175 860 l 175 918 q 196 971 175 950 q 268 992 217 992 q 340 971 319 992 q 361 918 361 950 l 361 892 q 340 839 361 860 q 268 818 319 818 m 557 818 q 485 839 506 818 q 464 892 464 860 l 464 918 q 485 971 464 950 q 557 992 506 992 q 629 971 608 992 q 650 918 650 950 l 650 892 q 629 839 650 860 q 557 818 608 818 z "},"ǜ":{"ha":833,"x_min":110,"x_max":717,"o":"m 565 122 l 558 122 q 530 69 547 94 q 488 24 513 43 q 429 -6 463 6 q 351 -17 396 -17 q 176 54 243 -17 q 110 256 110 125 l 110 717 l 261 717 l 261 278 q 410 107 261 107 q 467 115 439 107 q 517 138 494 122 q 552 176 539 153 q 565 231 565 199 l 565 717 l 717 717 l 717 0 l 565 0 l 565 122 m 233 1226 l 357 1288 l 482 1038 l 397 996 l 233 1226 m 268 818 q 196 839 217 818 q 175 892 175 860 l 175 918 q 196 971 175 950 q 268 992 217 992 q 340 971 319 992 q 361 918 361 950 l 361 892 q 340 839 361 860 q 268 818 319 818 m 557 818 q 485 839 506 818 q 464 892 464 860 l 464 918 q 485 971 464 950 q 557 992 506 992 q 629 971 608 992 q 650 918 650 950 l 650 892 q 629 839 650 860 q 557 818 608 818 z "},"ǚ":{"ha":833,"x_min":110,"x_max":717,"o":"m 565 122 l 558 122 q 530 69 547 94 q 488 24 513 43 q 429 -6 463 6 q 351 -17 396 -17 q 176 54 243 -17 q 110 256 110 125 l 110 717 l 261 717 l 261 278 q 410 107 261 107 q 467 115 439 107 q 517 138 494 122 q 552 176 539 153 q 565 231 565 199 l 565 717 l 717 717 l 717 0 l 565 0 l 565 122 m 350 1024 l 172 1225 l 247 1288 l 414 1133 l 581 1288 l 653 1225 l 475 1024 l 350 1024 m 268 818 q 196 839 217 818 q 175 892 175 860 l 175 918 q 196 971 175 950 q 268 992 217 992 q 340 971 319 992 q 361 918 361 950 l 361 892 q 340 839 361 860 q 268 818 319 818 m 557 818 q 485 839 506 818 q 464 892 464 860 l 464 918 q 485 971 464 950 q 557 992 506 992 q 629 971 608 992 q 650 918 650 950 l 650 892 q 629 839 650 860 q 557 818 608 818 z "},"ẃ":{"ha":833,"x_min":28,"x_max":806,"o":"m 432 804 l 339 849 l 465 1099 l 596 1035 l 432 804 m 28 717 l 157 717 l 226 114 l 239 114 l 346 717 l 493 717 l 599 114 l 611 114 l 682 717 l 806 717 l 706 0 l 519 0 l 424 556 l 411 556 l 314 0 l 128 0 l 28 717 z "},"ŵ":{"ha":833,"x_min":28,"x_max":806,"o":"m 493 1075 l 660 867 l 579 808 l 415 969 l 250 808 l 174 867 l 340 1075 l 493 1075 m 28 717 l 157 717 l 226 114 l 239 114 l 346 717 l 493 717 l 599 114 l 611 114 l 682 717 l 806 717 l 706 0 l 519 0 l 424 556 l 411 556 l 314 0 l 128 0 l 28 717 z "},"ẅ":{"ha":833,"x_min":28,"x_max":806,"o":"m 278 843 q 206 864 226 843 q 185 917 185 885 l 185 943 q 206 996 185 975 q 278 1017 226 1017 q 350 996 329 1017 q 371 943 371 975 l 371 917 q 350 864 371 885 q 278 843 329 843 m 556 843 q 483 864 504 843 q 463 917 463 885 l 463 943 q 483 996 463 975 q 556 1017 504 1017 q 628 996 607 1017 q 649 943 649 975 l 649 917 q 628 864 649 885 q 556 843 607 843 m 28 717 l 157 717 l 226 114 l 239 114 l 346 717 l 493 717 l 599 114 l 611 114 l 682 717 l 806 717 l 706 0 l 519 0 l 424 556 l 411 556 l 314 0 l 128 0 l 28 717 z "},"ẁ":{"ha":833,"x_min":28,"x_max":806,"o":"m 28 717 l 157 717 l 226 114 l 239 114 l 346 717 l 493 717 l 599 114 l 611 114 l 682 717 l 806 717 l 706 0 l 519 0 l 424 556 l 411 556 l 314 0 l 128 0 l 28 717 m 238 1035 l 368 1099 l 494 849 l 401 804 l 238 1035 z "},"ý":{"ha":833,"x_min":54,"x_max":779,"o":"m 626 717 l 779 717 l 432 -139 q 359 -243 404 -208 q 229 -278 314 -278 l 108 -278 l 108 -156 l 278 -156 l 343 10 l 54 717 l 213 717 l 326 417 l 415 171 l 424 171 l 513 417 l 626 717 m 433 804 l 340 849 l 467 1099 l 597 1035 l 433 804 z "},"ŷ":{"ha":833,"x_min":54,"x_max":779,"o":"m 626 717 l 779 717 l 432 -139 q 359 -243 404 -208 q 229 -278 314 -278 l 108 -278 l 108 -156 l 278 -156 l 343 10 l 54 717 l 213 717 l 326 417 l 415 171 l 424 171 l 513 417 l 626 717 m 494 1075 l 661 867 l 581 808 l 417 969 l 251 808 l 175 867 l 342 1075 l 494 1075 z "},"ÿ":{"ha":833,"x_min":54,"x_max":779,"o":"m 626 717 l 779 717 l 432 -139 q 359 -243 404 -208 q 229 -278 314 -278 l 108 -278 l 108 -156 l 278 -156 l 343 10 l 54 717 l 213 717 l 326 417 l 415 171 l 424 171 l 513 417 l 626 717 m 279 843 q 207 864 228 843 q 186 917 186 885 l 186 943 q 207 996 186 975 q 279 1017 228 1017 q 351 996 331 1017 q 372 943 372 975 l 372 917 q 351 864 372 885 q 279 843 331 843 m 557 843 q 485 864 506 843 q 464 917 464 885 l 464 943 q 485 996 464 975 q 557 1017 506 1017 q 629 996 608 1017 q 650 943 650 975 l 650 917 q 629 864 650 885 q 557 843 608 843 z "},"ỵ":{"ha":833,"x_min":54,"x_max":779,"o":"m 626 717 l 779 717 l 432 -139 q 359 -243 404 -208 q 229 -278 314 -278 l 108 -278 l 108 -156 l 278 -156 l 343 10 l 54 717 l 213 717 l 326 417 l 415 171 l 424 171 l 513 417 l 626 717 m 651 -257 q 579 -236 600 -257 q 558 -183 558 -215 l 558 -157 q 579 -104 558 -125 q 651 -83 600 -83 q 724 -104 703 -83 q 744 -157 744 -125 l 744 -183 q 724 -236 744 -215 q 651 -257 703 -257 z "},"ỳ":{"ha":833,"x_min":54,"x_max":779,"o":"m 626 717 l 779 717 l 432 -139 q 359 -243 404 -208 q 229 -278 314 -278 l 108 -278 l 108 -156 l 278 -156 l 343 10 l 54 717 l 213 717 l 326 417 l 415 171 l 424 171 l 513 417 l 626 717 m 239 1035 l 369 1099 l 496 849 l 403 804 l 239 1035 z "},"ỷ":{"ha":833,"x_min":54,"x_max":779,"o":"m 626 717 l 779 717 l 432 -139 q 359 -243 404 -208 q 229 -278 314 -278 l 108 -278 l 108 -156 l 278 -156 l 343 10 l 54 717 l 213 717 l 326 417 l 415 171 l 424 171 l 513 417 l 626 717 m 281 1079 l 451 1079 q 540 1053 515 1079 q 565 992 565 1028 q 545 917 565 957 q 493 836 525 876 l 457 792 l 376 831 l 447 968 l 281 968 l 281 1079 z "},"ỹ":{"ha":833,"x_min":54,"x_max":779,"o":"m 626 717 l 779 717 l 432 -139 q 359 -243 404 -208 q 229 -278 314 -278 l 108 -278 l 108 -156 l 278 -156 l 343 10 l 54 717 l 213 717 l 326 417 l 415 171 l 424 171 l 513 417 l 626 717 m 521 839 q 461 849 486 839 q 413 871 436 860 q 356 894 381 886 q 310 903 332 903 q 268 894 286 903 q 229 867 250 885 l 172 939 q 228 994 193 971 q 315 1018 264 1018 q 375 1008 350 1018 q 424 986 400 997 q 480 963 456 971 q 526 954 504 954 q 568 963 550 954 q 607 990 586 972 l 664 918 q 608 863 643 886 q 521 839 572 839 z "},"ź":{"ha":833,"x_min":107,"x_max":726,"o":"m 432 804 l 339 849 l 465 1099 l 596 1035 l 432 804 m 107 0 l 107 133 l 543 594 l 122 594 l 122 717 l 713 717 l 713 583 l 276 122 l 726 122 l 726 0 l 107 0 z "},"ž":{"ha":833,"x_min":107,"x_max":726,"o":"m 340 819 l 174 1028 l 254 1086 l 419 925 l 585 1086 l 660 1028 l 493 819 l 340 819 m 107 0 l 107 133 l 543 594 l 122 594 l 122 717 l 713 717 l 713 583 l 276 122 l 726 122 l 726 0 l 107 0 z "},"ż":{"ha":833,"x_min":107,"x_max":726,"o":"m 107 0 l 107 133 l 543 594 l 122 594 l 122 717 l 713 717 l 713 583 l 276 122 l 726 122 l 726 0 l 107 0 m 417 832 q 337 856 360 832 q 314 914 314 879 l 314 944 q 337 1003 314 979 q 417 1026 360 1026 q 497 1003 474 1026 q 519 944 519 979 l 519 914 q 497 856 519 879 q 417 832 474 832 z "},"Á":{"ha":833,"x_min":28,"x_max":807,"o":"m 642 0 l 568 258 l 260 258 l 186 0 l 28 0 l 311 969 l 524 969 l 807 0 l 642 0 m 419 813 l 408 813 l 289 388 l 539 388 l 419 813 m 432 1040 l 339 1085 l 465 1335 l 596 1271 l 432 1040 z "},"Ă":{"ha":833,"x_min":28,"x_max":807,"o":"m 642 0 l 568 258 l 260 258 l 186 0 l 28 0 l 311 969 l 524 969 l 807 0 l 642 0 m 419 813 l 408 813 l 289 388 l 539 388 l 419 813 m 417 1049 q 317 1070 358 1049 q 248 1124 276 1092 q 202 1196 219 1157 q 174 1268 185 1235 l 264 1311 l 293 1265 q 323 1220 310 1240 q 349 1187 336 1200 q 378 1167 363 1174 q 417 1160 394 1160 q 484 1187 460 1160 q 540 1265 508 1214 l 569 1311 l 660 1268 q 631 1196 649 1235 q 585 1124 613 1157 q 516 1070 557 1092 q 417 1049 475 1049 z "},"Ǎ":{"ha":833,"x_min":28,"x_max":807,"o":"m 642 0 l 568 258 l 260 258 l 186 0 l 28 0 l 311 969 l 524 969 l 807 0 l 642 0 m 419 813 l 408 813 l 289 388 l 539 388 l 419 813 m 340 1056 l 174 1264 l 254 1322 l 418 1161 l 583 1322 l 660 1264 l 493 1056 l 340 1056 z "},"Â":{"ha":833,"x_min":28,"x_max":807,"o":"m 642 0 l 568 258 l 260 258 l 186 0 l 28 0 l 311 969 l 524 969 l 807 0 l 642 0 m 419 813 l 408 813 l 289 388 l 539 388 l 419 813 m 493 1311 l 660 1103 l 579 1044 l 415 1206 l 250 1044 l 174 1103 l 340 1311 l 493 1311 z "},"Ä":{"ha":833,"x_min":28,"x_max":807,"o":"m 642 0 l 568 258 l 260 258 l 186 0 l 28 0 l 311 969 l 524 969 l 807 0 l 642 0 m 419 813 l 408 813 l 289 388 l 539 388 l 419 813 m 278 1079 q 206 1100 226 1079 q 185 1153 185 1121 l 185 1179 q 206 1232 185 1211 q 278 1253 226 1253 q 350 1232 329 1253 q 371 1179 371 1211 l 371 1153 q 350 1100 371 1121 q 278 1079 329 1079 m 556 1079 q 483 1100 504 1079 q 463 1153 463 1121 l 463 1179 q 483 1232 463 1211 q 556 1253 504 1253 q 628 1232 607 1253 q 649 1179 649 1211 l 649 1153 q 628 1100 649 1121 q 556 1079 607 1079 z "},"Ạ":{"ha":833,"x_min":28,"x_max":807,"o":"m 642 0 l 568 258 l 260 258 l 186 0 l 28 0 l 311 969 l 524 969 l 807 0 l 642 0 m 419 813 l 408 813 l 289 388 l 539 388 l 419 813 m 417 -257 q 344 -236 365 -257 q 324 -183 324 -215 l 324 -157 q 344 -104 324 -125 q 417 -83 365 -83 q 489 -104 468 -83 q 510 -157 510 -125 l 510 -183 q 489 -236 510 -215 q 417 -257 468 -257 z "},"À":{"ha":833,"x_min":28,"x_max":807,"o":"m 642 0 l 568 258 l 260 258 l 186 0 l 28 0 l 311 969 l 524 969 l 807 0 l 642 0 m 419 813 l 408 813 l 289 388 l 539 388 l 419 813 m 238 1271 l 368 1335 l 494 1085 l 401 1040 l 238 1271 z "},"Ả":{"ha":833,"x_min":28,"x_max":807,"o":"m 642 0 l 568 258 l 260 258 l 186 0 l 28 0 l 311 969 l 524 969 l 807 0 l 642 0 m 419 813 l 408 813 l 289 388 l 539 388 l 419 813 m 279 1315 l 450 1315 q 539 1290 514 1315 q 564 1228 564 1264 q 544 1153 564 1193 q 492 1072 524 1113 l 456 1028 l 375 1067 l 446 1204 l 279 1204 l 279 1315 z "},"Ā":{"ha":833,"x_min":28,"x_max":807,"o":"m 642 0 l 568 258 l 260 258 l 186 0 l 28 0 l 311 969 l 524 969 l 807 0 l 642 0 m 419 813 l 408 813 l 289 388 l 539 388 l 419 813 m 215 1222 l 618 1222 l 618 1108 l 215 1108 l 215 1222 z "},"Ą":{"ha":833,"x_min":28,"x_max":843,"o":"m 311 969 l 524 969 l 807 0 q 723 -57 754 -33 q 676 -99 692 -81 q 655 -129 660 -117 q 650 -153 650 -142 q 667 -192 650 -181 q 706 -203 683 -203 q 747 -192 729 -203 q 779 -165 765 -182 l 843 -228 q 791 -273 828 -256 q 696 -290 754 -290 q 634 -284 663 -290 q 583 -264 606 -278 q 549 -228 561 -250 q 536 -176 536 -207 q 578 -83 536 -124 q 697 -4 619 -42 l 696 0 l 642 0 l 568 258 l 260 258 l 186 0 l 28 0 l 311 969 m 419 813 l 408 813 l 289 388 l 539 388 l 419 813 z "},"Å":{"ha":833,"x_min":28,"x_max":807,"o":"m 642 0 l 568 258 l 260 258 l 186 0 l 28 0 l 311 969 l 524 969 l 807 0 l 642 0 m 419 813 l 408 813 l 289 388 l 539 388 l 419 813 m 417 1021 q 346 1034 379 1021 q 289 1070 313 1047 q 251 1126 265 1093 q 238 1196 238 1158 q 251 1267 238 1235 q 289 1322 265 1299 q 346 1359 313 1346 q 417 1372 379 1372 q 488 1359 454 1372 q 544 1322 521 1346 q 582 1267 568 1299 q 596 1196 596 1235 q 582 1126 596 1158 q 544 1070 568 1093 q 488 1034 521 1047 q 417 1021 454 1021 m 417 1104 q 493 1178 493 1104 l 493 1215 q 417 1289 493 1289 q 340 1215 340 1289 l 340 1178 q 417 1104 340 1104 z "},"Ǻ":{"ha":833,"x_min":28,"x_max":807,"o":"m 642 0 l 568 258 l 260 258 l 186 0 l 28 0 l 311 969 l 524 969 l 807 0 l 642 0 m 419 813 l 408 813 l 289 388 l 539 388 l 419 813 m 424 1364 l 356 1413 l 489 1572 l 589 1506 l 424 1364 m 417 1015 q 346 1027 379 1015 q 288 1060 313 1039 q 249 1112 263 1082 q 235 1178 235 1142 q 249 1245 235 1215 q 288 1297 263 1275 q 346 1330 313 1318 q 417 1342 379 1342 q 488 1330 454 1342 q 546 1297 521 1318 q 585 1245 571 1275 q 599 1178 599 1215 q 585 1112 599 1142 q 546 1060 571 1082 q 488 1027 521 1039 q 417 1015 454 1015 m 417 1096 q 475 1113 454 1096 q 496 1167 496 1131 l 496 1190 q 475 1244 496 1226 q 417 1261 454 1261 q 358 1244 379 1261 q 338 1190 338 1226 l 338 1167 q 358 1113 338 1131 q 417 1096 379 1096 z "},"Ã":{"ha":833,"x_min":28,"x_max":807,"o":"m 642 0 l 568 258 l 260 258 l 186 0 l 28 0 l 311 969 l 524 969 l 807 0 l 642 0 m 419 813 l 408 813 l 289 388 l 539 388 l 419 813 m 519 1075 q 460 1085 485 1075 q 411 1107 435 1096 q 355 1131 379 1122 q 308 1139 331 1139 q 267 1130 285 1139 q 228 1103 249 1121 l 171 1175 q 227 1231 192 1207 q 314 1254 263 1254 q 374 1244 349 1254 q 422 1222 399 1233 q 478 1199 454 1207 q 525 1190 503 1190 q 567 1199 549 1190 q 606 1226 585 1208 l 663 1154 q 606 1099 642 1122 q 519 1075 571 1075 z "},"Ắ":{"ha":833,"x_min":28,"x_max":807,"o":"m 642 0 l 568 258 l 260 258 l 186 0 l 28 0 l 311 969 l 524 969 l 807 0 l 642 0 m 419 813 l 408 813 l 289 388 l 539 388 l 419 813 m 417 1036 q 317 1054 358 1036 q 245 1101 275 1072 q 197 1165 215 1129 q 165 1235 178 1200 l 247 1281 l 276 1239 q 342 1166 313 1186 q 417 1146 372 1146 q 491 1166 461 1146 q 557 1239 521 1186 l 586 1281 l 668 1235 q 637 1165 656 1200 q 588 1101 618 1129 q 517 1054 558 1072 q 417 1036 475 1036 m 433 1229 l 347 1269 l 474 1521 l 597 1460 l 433 1229 z "},"Ặ":{"ha":833,"x_min":28,"x_max":807,"o":"m 642 0 l 568 258 l 260 258 l 186 0 l 28 0 l 311 969 l 524 969 l 807 0 l 642 0 m 419 813 l 408 813 l 289 388 l 539 388 l 419 813 m 417 1049 q 317 1070 358 1049 q 248 1124 276 1092 q 202 1196 219 1157 q 174 1268 185 1235 l 264 1311 l 293 1265 q 323 1220 310 1240 q 349 1187 336 1200 q 378 1167 363 1174 q 417 1160 394 1160 q 484 1187 460 1160 q 540 1265 508 1214 l 569 1311 l 660 1268 q 631 1196 649 1235 q 585 1124 613 1157 q 516 1070 557 1092 q 417 1049 475 1049 m 417 -257 q 344 -236 365 -257 q 324 -183 324 -215 l 324 -157 q 344 -104 324 -125 q 417 -83 365 -83 q 489 -104 468 -83 q 510 -157 510 -125 l 510 -183 q 489 -236 510 -215 q 417 -257 468 -257 z "},"Ằ":{"ha":833,"x_min":28,"x_max":807,"o":"m 642 0 l 568 258 l 260 258 l 186 0 l 28 0 l 311 969 l 524 969 l 807 0 l 642 0 m 419 813 l 408 813 l 289 388 l 539 388 l 419 813 m 417 1036 q 317 1054 358 1036 q 245 1101 275 1072 q 197 1165 215 1129 q 165 1235 178 1200 l 247 1281 l 276 1239 q 342 1166 313 1186 q 417 1146 372 1146 q 491 1166 461 1146 q 557 1239 521 1186 l 586 1281 l 668 1235 q 637 1165 656 1200 q 588 1101 618 1129 q 517 1054 558 1072 q 417 1036 475 1036 m 236 1460 l 360 1521 l 486 1269 l 400 1229 l 236 1460 z "},"Ẳ":{"ha":833,"x_min":28,"x_max":807,"o":"m 642 0 l 568 258 l 260 258 l 186 0 l 28 0 l 311 969 l 524 969 l 807 0 l 642 0 m 419 813 l 408 813 l 289 388 l 539 388 l 419 813 m 272 1503 l 428 1503 q 517 1477 492 1503 q 542 1417 542 1451 q 520 1342 542 1382 q 465 1260 499 1301 l 431 1217 l 354 1254 l 426 1394 l 272 1394 l 272 1503 m 417 1036 q 317 1054 358 1036 q 245 1101 275 1072 q 197 1165 215 1129 q 165 1235 178 1200 l 247 1281 l 276 1239 q 342 1166 313 1186 q 417 1146 372 1146 q 491 1166 461 1146 q 557 1239 521 1186 l 586 1281 l 668 1235 q 637 1165 656 1200 q 588 1101 618 1129 q 517 1054 558 1072 q 417 1036 475 1036 z "},"Ẵ":{"ha":833,"x_min":28,"x_max":807,"o":"m 642 0 l 568 258 l 260 258 l 186 0 l 28 0 l 311 969 l 524 969 l 807 0 l 642 0 m 419 813 l 408 813 l 289 388 l 539 388 l 419 813 m 518 1310 q 458 1321 483 1310 q 410 1343 433 1332 q 353 1367 378 1358 q 307 1375 329 1375 q 265 1366 283 1375 q 226 1339 247 1357 l 172 1404 q 228 1460 193 1436 q 315 1485 264 1485 q 375 1474 350 1485 q 424 1451 400 1463 q 480 1428 456 1436 q 526 1419 504 1419 q 568 1428 550 1419 q 607 1456 586 1438 l 661 1390 q 605 1334 640 1358 q 518 1310 569 1310 m 417 1036 q 317 1054 358 1036 q 245 1101 275 1072 q 197 1165 215 1129 q 165 1235 178 1200 l 247 1281 l 276 1239 q 342 1166 313 1186 q 417 1146 372 1146 q 491 1166 461 1146 q 557 1239 521 1186 l 586 1281 l 668 1235 q 637 1165 656 1200 q 588 1101 618 1129 q 517 1054 558 1072 q 417 1036 475 1036 z "},"Ấ":{"ha":833,"x_min":28,"x_max":807,"o":"m 642 0 l 568 258 l 260 258 l 186 0 l 28 0 l 311 969 l 524 969 l 807 0 l 642 0 m 419 813 l 408 813 l 289 388 l 539 388 l 419 813 m 642 1232 l 556 1274 l 682 1524 l 806 1463 l 642 1232 m 485 1294 l 657 1093 l 582 1032 l 415 1188 l 249 1032 l 176 1093 l 349 1294 l 485 1294 z "},"Ậ":{"ha":833,"x_min":28,"x_max":807,"o":"m 642 0 l 568 258 l 260 258 l 186 0 l 28 0 l 311 969 l 524 969 l 807 0 l 642 0 m 419 813 l 408 813 l 289 388 l 539 388 l 419 813 m 493 1311 l 660 1103 l 579 1044 l 415 1206 l 250 1044 l 174 1103 l 340 1311 l 493 1311 m 417 -257 q 344 -236 365 -257 q 324 -183 324 -215 l 324 -157 q 344 -104 324 -125 q 417 -83 365 -83 q 489 -104 468 -83 q 510 -157 510 -125 l 510 -183 q 489 -236 510 -215 q 417 -257 468 -257 z "},"Ầ":{"ha":833,"x_min":28,"x_max":807,"o":"m 642 0 l 568 258 l 260 258 l 186 0 l 28 0 l 311 969 l 524 969 l 807 0 l 642 0 m 419 813 l 408 813 l 289 388 l 539 388 l 419 813 m 28 1463 l 151 1524 l 278 1274 l 192 1232 l 28 1463 m 485 1294 l 657 1093 l 582 1032 l 415 1188 l 249 1032 l 176 1093 l 349 1294 l 485 1294 z "},"Ẩ":{"ha":833,"x_min":28,"x_max":807,"o":"m 642 0 l 568 258 l 260 258 l 186 0 l 28 0 l 311 969 l 524 969 l 807 0 l 642 0 m 419 813 l 408 813 l 289 388 l 539 388 l 419 813 m 482 1507 l 647 1507 q 736 1481 711 1507 q 761 1419 761 1456 q 740 1344 761 1385 q 685 1263 718 1304 l 650 1219 l 574 1258 l 646 1399 l 482 1399 l 482 1507 m 485 1294 l 657 1093 l 582 1032 l 415 1188 l 249 1032 l 176 1093 l 349 1294 l 485 1294 z "},"Ẫ":{"ha":833,"x_min":28,"x_max":807,"o":"m 642 0 l 568 258 l 260 258 l 186 0 l 28 0 l 311 969 l 524 969 l 807 0 l 642 0 m 419 813 l 408 813 l 289 388 l 539 388 l 419 813 m 315 1499 q 375 1488 350 1499 q 424 1465 400 1476 q 480 1442 456 1450 q 526 1433 504 1433 q 568 1442 550 1433 q 607 1469 586 1451 l 661 1404 q 605 1348 640 1372 q 518 1324 569 1324 q 458 1335 483 1324 q 410 1357 433 1346 q 353 1381 378 1372 q 307 1389 329 1389 q 265 1380 283 1389 q 226 1353 247 1371 l 172 1418 q 228 1474 193 1450 q 315 1499 264 1499 m 485 1279 l 657 1093 l 582 1032 l 415 1176 l 249 1032 l 176 1093 l 349 1279 l 485 1279 z "},"Æ":{"ha":833,"x_min":14,"x_max":785,"o":"m 414 260 l 231 260 l 167 0 l 14 0 l 272 969 l 785 969 l 785 849 l 560 849 l 560 551 l 769 551 l 769 431 l 560 431 l 560 121 l 785 121 l 785 0 l 414 0 l 414 260 m 376 861 l 258 381 l 414 381 l 414 861 l 376 861 z "},"Ǽ":{"ha":833,"x_min":14,"x_max":785,"o":"m 414 260 l 231 260 l 167 0 l 14 0 l 272 969 l 785 969 l 785 849 l 560 849 l 560 551 l 769 551 l 769 431 l 560 431 l 560 121 l 785 121 l 785 0 l 414 0 l 414 260 m 376 861 l 258 381 l 414 381 l 414 861 l 376 861 m 543 1040 l 450 1085 l 576 1335 l 707 1271 l 543 1040 z "},"Ć":{"ha":833,"x_min":81,"x_max":763,"o":"m 444 -17 q 170 114 260 -17 q 81 485 81 244 q 170 856 81 725 q 444 986 260 986 q 567 967 515 986 q 657 916 619 949 q 720 840 694 883 q 763 746 746 796 l 622 699 q 597 761 611 732 q 563 811 583 790 q 513 844 542 832 q 443 857 485 857 q 293 778 340 857 q 246 567 246 700 l 246 403 q 293 191 246 269 q 443 113 340 113 q 513 125 485 113 q 563 158 542 138 q 597 208 583 179 q 622 271 611 238 l 763 224 q 720 130 746 174 q 657 53 694 86 q 567 2 619 21 q 444 -17 515 -17 m 461 1040 l 368 1085 l 494 1335 l 625 1271 l 461 1040 z "},"Č":{"ha":833,"x_min":81,"x_max":763,"o":"m 444 -17 q 170 114 260 -17 q 81 485 81 244 q 170 856 81 725 q 444 986 260 986 q 567 967 515 986 q 657 916 619 949 q 720 840 694 883 q 763 746 746 796 l 622 699 q 597 761 611 732 q 563 811 583 790 q 513 844 542 832 q 443 857 485 857 q 293 778 340 857 q 246 567 246 700 l 246 403 q 293 191 246 269 q 443 113 340 113 q 513 125 485 113 q 563 158 542 138 q 597 208 583 179 q 622 271 611 238 l 763 224 q 720 130 746 174 q 657 53 694 86 q 567 2 619 21 q 444 -17 515 -17 m 369 1056 l 203 1264 l 283 1322 l 447 1161 l 613 1322 l 689 1264 l 522 1056 l 369 1056 z "},"Ç":{"ha":833,"x_min":81,"x_max":763,"o":"m 443 857 q 293 778 340 857 q 246 567 246 700 l 246 403 q 258 283 246 336 q 293 192 269 229 q 354 133 317 154 q 443 113 392 113 q 513 125 485 113 q 563 158 542 138 q 597 208 583 179 q 622 271 611 238 l 763 224 q 722 132 746 175 q 661 57 697 89 q 576 6 625 25 q 460 -17 526 -14 l 447 -81 l 453 -86 q 483 -79 468 -82 q 511 -76 497 -76 q 581 -99 553 -76 q 610 -171 610 -122 q 596 -225 610 -203 q 559 -262 582 -247 q 506 -283 536 -276 q 443 -290 476 -290 q 343 -271 379 -290 q 290 -232 307 -251 l 349 -167 q 383 -194 361 -182 q 436 -206 404 -206 q 480 -196 463 -206 q 497 -165 497 -186 q 478 -133 497 -149 q 399 -110 458 -117 l 364 -106 l 382 -12 q 154 137 228 10 q 81 485 81 264 q 170 856 81 725 q 444 986 260 986 q 567 967 515 986 q 657 916 619 949 q 720 840 694 883 q 763 746 746 796 l 622 699 q 597 761 611 732 q 563 811 583 790 q 513 844 542 832 q 443 857 485 857 z "},"Ĉ":{"ha":833,"x_min":81,"x_max":763,"o":"m 444 -17 q 170 114 260 -17 q 81 485 81 244 q 170 856 81 725 q 444 986 260 986 q 567 967 515 986 q 657 916 619 949 q 720 840 694 883 q 763 746 746 796 l 622 699 q 597 761 611 732 q 563 811 583 790 q 513 844 542 832 q 443 857 485 857 q 293 778 340 857 q 246 567 246 700 l 246 403 q 293 191 246 269 q 443 113 340 113 q 513 125 485 113 q 563 158 542 138 q 597 208 583 179 q 622 271 611 238 l 763 224 q 720 130 746 174 q 657 53 694 86 q 567 2 619 21 q 444 -17 515 -17 m 522 1311 l 689 1103 l 608 1044 l 444 1206 l 279 1044 l 203 1103 l 369 1311 l 522 1311 z "},"Ċ":{"ha":833,"x_min":81,"x_max":763,"o":"m 446 1068 q 366 1092 389 1068 q 343 1150 343 1115 l 343 1181 q 366 1239 343 1215 q 446 1263 389 1263 q 526 1239 503 1263 q 549 1181 549 1215 l 549 1150 q 526 1092 549 1115 q 446 1068 503 1068 m 444 -17 q 170 114 260 -17 q 81 485 81 244 q 170 856 81 725 q 444 986 260 986 q 567 967 515 986 q 657 916 619 949 q 720 840 694 883 q 763 746 746 796 l 622 699 q 597 761 611 732 q 563 811 583 790 q 513 844 542 832 q 443 857 485 857 q 293 778 340 857 q 246 567 246 700 l 246 403 q 293 191 246 269 q 443 113 340 113 q 513 125 485 113 q 563 158 542 138 q 597 208 583 179 q 622 271 611 238 l 763 224 q 720 130 746 174 q 657 53 694 86 q 567 2 619 21 q 444 -17 515 -17 z "},"Ď":{"ha":833,"x_min":114,"x_max":768,"o":"m 114 969 l 403 969 q 678 846 589 969 q 768 485 768 722 q 678 124 768 247 q 403 0 589 0 l 114 0 l 114 969 m 393 128 q 552 199 500 128 q 604 404 604 271 l 604 565 q 552 770 604 699 q 393 842 500 842 l 268 842 l 268 128 l 393 128 m 311 1056 l 144 1264 l 225 1322 l 389 1161 l 554 1322 l 631 1264 l 464 1056 l 311 1056 z "},"Đ":{"ha":833,"x_min":24,"x_max":768,"o":"m 122 453 l 24 453 l 24 571 l 122 571 l 122 969 l 403 969 q 678 846 589 969 q 768 485 768 722 q 678 124 768 247 q 403 0 589 0 l 122 0 l 122 453 m 393 128 q 552 199 500 128 q 604 404 604 271 l 604 565 q 552 770 604 699 q 393 842 500 842 l 276 842 l 276 567 l 454 567 l 454 456 l 276 456 l 276 128 l 393 128 z "},"Ð":{"ha":833,"x_min":24,"x_max":768,"o":"m 122 453 l 24 453 l 24 571 l 122 571 l 122 969 l 403 969 q 678 846 589 969 q 768 485 768 722 q 678 124 768 247 q 403 0 589 0 l 122 0 l 122 453 m 393 128 q 552 199 500 128 q 604 404 604 271 l 604 565 q 552 770 604 699 q 393 842 500 842 l 276 842 l 276 567 l 454 567 l 454 456 l 276 456 l 276 128 l 393 128 z "},"É":{"ha":833,"x_min":119,"x_max":726,"o":"m 119 0 l 119 969 l 726 969 l 726 839 l 275 839 l 275 557 l 710 557 l 710 426 l 275 426 l 275 131 l 726 131 l 726 0 l 119 0 m 438 1040 l 344 1085 l 471 1335 l 601 1271 l 438 1040 z "},"Ĕ":{"ha":833,"x_min":119,"x_max":726,"o":"m 119 0 l 119 969 l 726 969 l 726 839 l 275 839 l 275 557 l 710 557 l 710 426 l 275 426 l 275 131 l 726 131 l 726 0 l 119 0 m 422 1049 q 323 1070 364 1049 q 253 1124 282 1092 q 208 1196 225 1157 q 179 1268 190 1235 l 269 1311 l 299 1265 q 328 1220 315 1240 q 355 1187 342 1200 q 384 1167 368 1174 q 422 1160 400 1160 q 490 1187 465 1160 q 546 1265 514 1214 l 575 1311 l 665 1268 q 636 1196 654 1235 q 590 1124 618 1157 q 522 1070 563 1092 q 422 1049 481 1049 z "},"Ě":{"ha":833,"x_min":119,"x_max":726,"o":"m 119 0 l 119 969 l 726 969 l 726 839 l 275 839 l 275 557 l 710 557 l 710 426 l 275 426 l 275 131 l 726 131 l 726 0 l 119 0 m 346 1056 l 179 1264 l 260 1322 l 424 1161 l 589 1322 l 665 1264 l 499 1056 l 346 1056 z "},"Ê":{"ha":833,"x_min":119,"x_max":726,"o":"m 499 1311 l 665 1103 l 585 1044 l 421 1206 l 256 1044 l 179 1103 l 346 1311 l 499 1311 m 119 0 l 119 969 l 726 969 l 726 839 l 275 839 l 275 557 l 710 557 l 710 426 l 275 426 l 275 131 l 726 131 l 726 0 l 119 0 z "},"Ë":{"ha":833,"x_min":119,"x_max":726,"o":"m 119 0 l 119 969 l 726 969 l 726 839 l 275 839 l 275 557 l 710 557 l 710 426 l 275 426 l 275 131 l 726 131 l 726 0 l 119 0 m 283 1079 q 211 1100 232 1079 q 190 1153 190 1121 l 190 1179 q 211 1232 190 1211 q 283 1253 232 1253 q 356 1232 335 1253 q 376 1179 376 1211 l 376 1153 q 356 1100 376 1121 q 283 1079 335 1079 m 561 1079 q 489 1100 510 1079 q 468 1153 468 1121 l 468 1179 q 489 1232 468 1211 q 561 1253 510 1253 q 633 1232 613 1253 q 654 1179 654 1211 l 654 1153 q 633 1100 654 1121 q 561 1079 613 1079 z "},"Ė":{"ha":833,"x_min":119,"x_max":726,"o":"m 422 1068 q 342 1092 365 1068 q 319 1150 319 1115 l 319 1181 q 342 1239 319 1215 q 422 1263 365 1263 q 502 1239 479 1263 q 525 1181 525 1215 l 525 1150 q 502 1092 525 1115 q 422 1068 479 1068 m 119 0 l 119 969 l 726 969 l 726 839 l 275 839 l 275 557 l 710 557 l 710 426 l 275 426 l 275 131 l 726 131 l 726 0 l 119 0 z "},"Ẹ":{"ha":833,"x_min":119,"x_max":726,"o":"m 119 0 l 119 969 l 726 969 l 726 839 l 275 839 l 275 557 l 710 557 l 710 426 l 275 426 l 275 131 l 726 131 l 726 0 l 119 0 m 422 -257 q 350 -236 371 -257 q 329 -183 329 -215 l 329 -157 q 350 -104 329 -125 q 422 -83 371 -83 q 494 -104 474 -83 q 515 -157 515 -125 l 515 -183 q 494 -236 515 -215 q 422 -257 474 -257 z "},"È":{"ha":833,"x_min":119,"x_max":726,"o":"m 243 1271 l 374 1335 l 500 1085 l 407 1040 l 243 1271 m 119 0 l 119 969 l 726 969 l 726 839 l 275 839 l 275 557 l 710 557 l 710 426 l 275 426 l 275 131 l 726 131 l 726 0 l 119 0 z "},"Ẻ":{"ha":833,"x_min":119,"x_max":726,"o":"m 119 0 l 119 969 l 726 969 l 726 839 l 275 839 l 275 557 l 710 557 l 710 426 l 275 426 l 275 131 l 726 131 l 726 0 l 119 0 m 285 1315 l 456 1315 q 544 1290 519 1315 q 569 1228 569 1264 q 549 1153 569 1193 q 497 1072 529 1113 l 461 1028 l 381 1067 l 451 1204 l 285 1204 l 285 1315 z "},"Ē":{"ha":833,"x_min":119,"x_max":726,"o":"m 119 0 l 119 969 l 726 969 l 726 839 l 275 839 l 275 557 l 710 557 l 710 426 l 275 426 l 275 131 l 726 131 l 726 0 l 119 0 m 221 1222 l 624 1222 l 624 1108 l 221 1108 l 221 1222 z "},"Ę":{"ha":833,"x_min":119,"x_max":763,"o":"m 119 969 l 726 969 l 726 839 l 275 839 l 275 557 l 710 557 l 710 426 l 275 426 l 275 131 l 726 131 l 726 0 q 642 -57 674 -33 q 595 -99 611 -81 q 574 -129 579 -117 q 569 -153 569 -142 q 586 -192 569 -181 q 625 -203 603 -203 q 667 -192 649 -203 q 699 -165 685 -182 l 763 -228 q 710 -273 747 -256 q 615 -290 674 -290 q 553 -284 582 -290 q 503 -264 525 -278 q 468 -228 481 -250 q 456 -176 456 -207 q 497 -83 456 -124 q 617 -4 539 -42 l 615 0 l 119 0 l 119 969 z "},"Ẽ":{"ha":833,"x_min":119,"x_max":726,"o":"m 119 0 l 119 969 l 726 969 l 726 839 l 275 839 l 275 557 l 710 557 l 710 426 l 275 426 l 275 131 l 726 131 l 726 0 l 119 0 m 525 1075 q 465 1085 490 1075 q 417 1107 440 1096 q 360 1131 385 1122 q 314 1139 336 1139 q 272 1130 290 1139 q 233 1103 254 1121 l 176 1175 q 233 1231 197 1207 q 319 1254 268 1254 q 379 1244 354 1254 q 428 1222 404 1233 q 484 1199 460 1207 q 531 1190 508 1190 q 572 1199 554 1190 q 611 1226 590 1208 l 668 1154 q 612 1099 647 1122 q 525 1075 576 1075 z "},"Ế":{"ha":833,"x_min":119,"x_max":811,"o":"m 119 0 l 119 969 l 726 969 l 726 839 l 275 839 l 275 557 l 710 557 l 710 426 l 275 426 l 275 131 l 726 131 l 726 0 l 119 0 m 647 1232 l 561 1274 l 688 1524 l 811 1463 l 647 1232 m 490 1294 l 663 1093 l 588 1032 l 421 1188 l 254 1032 l 182 1093 l 354 1294 l 490 1294 z "},"Ệ":{"ha":833,"x_min":119,"x_max":726,"o":"m 499 1311 l 665 1103 l 585 1044 l 421 1206 l 256 1044 l 179 1103 l 346 1311 l 499 1311 m 119 0 l 119 969 l 726 969 l 726 839 l 275 839 l 275 557 l 710 557 l 710 426 l 275 426 l 275 131 l 726 131 l 726 0 l 119 0 m 422 -257 q 350 -236 371 -257 q 329 -183 329 -215 l 329 -157 q 350 -104 329 -125 q 422 -83 371 -83 q 494 -104 474 -83 q 515 -157 515 -125 l 515 -183 q 494 -236 515 -215 q 422 -257 474 -257 z "},"Ề":{"ha":833,"x_min":33,"x_max":726,"o":"m 33 1463 l 157 1524 l 283 1274 l 197 1232 l 33 1463 m 490 1294 l 663 1093 l 588 1032 l 421 1188 l 254 1032 l 182 1093 l 354 1294 l 490 1294 m 119 0 l 119 969 l 726 969 l 726 839 l 275 839 l 275 557 l 710 557 l 710 426 l 275 426 l 275 131 l 726 131 l 726 0 l 119 0 z "},"Ể":{"ha":833,"x_min":119,"x_max":767,"o":"m 488 1507 l 653 1507 q 742 1481 717 1507 q 767 1419 767 1456 q 745 1344 767 1385 q 690 1263 724 1304 l 656 1219 l 579 1258 l 651 1399 l 488 1399 l 488 1507 m 490 1294 l 663 1093 l 588 1032 l 421 1188 l 254 1032 l 182 1093 l 354 1294 l 490 1294 m 119 0 l 119 969 l 726 969 l 726 839 l 275 839 l 275 557 l 710 557 l 710 426 l 275 426 l 275 131 l 726 131 l 726 0 l 119 0 z "},"Ễ":{"ha":833,"x_min":119,"x_max":726,"o":"m 119 0 l 119 969 l 726 969 l 726 839 l 275 839 l 275 557 l 710 557 l 710 426 l 275 426 l 275 131 l 726 131 l 726 0 l 119 0 m 321 1499 q 381 1488 356 1499 q 429 1465 406 1476 q 485 1442 461 1450 q 532 1433 510 1433 q 574 1442 556 1433 q 613 1469 592 1451 l 667 1404 q 610 1348 646 1372 q 524 1324 575 1324 q 464 1335 489 1324 q 415 1357 439 1346 q 359 1381 383 1372 q 313 1389 335 1389 q 271 1380 289 1389 q 232 1353 253 1371 l 178 1418 q 234 1474 199 1450 q 321 1499 269 1499 m 490 1279 l 663 1093 l 588 1032 l 421 1176 l 254 1032 l 182 1093 l 354 1279 l 490 1279 z "},"Ə":{"ha":833,"x_min":61,"x_max":772,"o":"m 417 -17 q 258 17 325 -17 q 147 115 190 51 q 82 272 103 179 q 61 485 61 365 l 61 532 l 611 532 l 611 565 q 601 685 611 631 q 566 777 590 739 q 503 836 542 815 q 407 857 464 857 q 288 817 339 857 q 208 674 238 776 l 76 728 q 192 920 108 854 q 411 986 276 986 q 575 952 507 986 q 687 853 643 918 q 751 696 731 789 q 772 486 772 603 q 751 274 772 367 q 687 116 731 181 q 576 17 643 51 q 417 -17 508 -17 m 415 111 q 506 132 469 111 q 567 190 543 153 q 601 282 590 228 q 611 403 611 336 l 611 413 l 221 413 l 221 403 q 231 282 221 336 q 265 190 242 228 q 325 132 288 153 q 415 111 363 111 z "},"Ğ":{"ha":833,"x_min":65,"x_max":739,"o":"m 597 133 l 588 133 q 558 77 575 104 q 515 29 540 50 q 453 -4 489 8 q 369 -17 417 -17 q 142 113 218 -17 q 65 478 65 242 q 153 856 65 725 q 421 986 240 986 q 545 967 492 986 q 636 915 599 947 q 699 838 674 882 q 739 746 724 794 l 599 699 q 574 759 588 731 q 540 810 560 788 q 491 844 519 832 q 422 857 463 857 q 276 778 321 857 q 231 567 231 700 l 231 413 q 240 290 231 346 q 273 195 250 235 q 333 133 296 156 q 422 111 369 111 q 552 162 507 111 q 597 292 597 213 l 597 379 l 410 379 l 410 496 l 739 496 l 739 0 l 597 0 l 597 133 m 421 1049 q 322 1070 363 1049 q 252 1124 281 1092 q 206 1196 224 1157 q 178 1268 189 1235 l 268 1311 l 297 1265 q 327 1220 314 1240 q 353 1187 340 1200 q 383 1167 367 1174 q 421 1160 399 1160 q 488 1187 464 1160 q 544 1265 513 1214 l 574 1311 l 664 1268 q 635 1196 653 1235 q 589 1124 617 1157 q 520 1070 561 1092 q 421 1049 479 1049 z "},"Ĝ":{"ha":833,"x_min":65,"x_max":739,"o":"m 497 1311 l 664 1103 l 583 1044 l 419 1206 l 254 1044 l 178 1103 l 344 1311 l 497 1311 m 597 133 l 588 133 q 558 77 575 104 q 515 29 540 50 q 453 -4 489 8 q 369 -17 417 -17 q 142 113 218 -17 q 65 478 65 242 q 153 856 65 725 q 421 986 240 986 q 545 967 492 986 q 636 915 599 947 q 699 838 674 882 q 739 746 724 794 l 599 699 q 574 759 588 731 q 540 810 560 788 q 491 844 519 832 q 422 857 463 857 q 276 778 321 857 q 231 567 231 700 l 231 413 q 240 290 231 346 q 273 195 250 235 q 333 133 296 156 q 422 111 369 111 q 552 162 507 111 q 597 292 597 213 l 597 379 l 410 379 l 410 496 l 739 496 l 739 0 l 597 0 l 597 133 z "},"Ģ":{"ha":833,"x_min":65,"x_max":739,"o":"m 328 -82 l 507 -82 l 396 -360 l 294 -360 l 328 -82 m 597 133 l 588 133 q 558 77 575 104 q 515 29 540 50 q 453 -4 489 8 q 369 -17 417 -17 q 142 113 218 -17 q 65 478 65 242 q 153 856 65 725 q 421 986 240 986 q 545 967 492 986 q 636 915 599 947 q 699 838 674 882 q 739 746 724 794 l 599 699 q 574 759 588 731 q 540 810 560 788 q 491 844 519 832 q 422 857 463 857 q 276 778 321 857 q 231 567 231 700 l 231 413 q 240 290 231 346 q 273 195 250 235 q 333 133 296 156 q 422 111 369 111 q 552 162 507 111 q 597 292 597 213 l 597 379 l 410 379 l 410 496 l 739 496 l 739 0 l 597 0 l 597 133 z "},"Ġ":{"ha":833,"x_min":65,"x_max":739,"o":"m 421 1068 q 341 1092 364 1068 q 318 1150 318 1115 l 318 1181 q 341 1239 318 1215 q 421 1263 364 1263 q 501 1239 478 1263 q 524 1181 524 1215 l 524 1150 q 501 1092 524 1115 q 421 1068 478 1068 m 597 133 l 588 133 q 558 77 575 104 q 515 29 540 50 q 453 -4 489 8 q 369 -17 417 -17 q 142 113 218 -17 q 65 478 65 242 q 153 856 65 725 q 421 986 240 986 q 545 967 492 986 q 636 915 599 947 q 699 838 674 882 q 739 746 724 794 l 599 699 q 574 759 588 731 q 540 810 560 788 q 491 844 519 832 q 422 857 463 857 q 276 778 321 857 q 231 567 231 700 l 231 413 q 240 290 231 346 q 273 195 250 235 q 333 133 296 156 q 422 111 369 111 q 552 162 507 111 q 597 292 597 213 l 597 379 l 410 379 l 410 496 l 739 496 l 739 0 l 597 0 l 597 133 z "},"Ħ":{"ha":833,"x_min":11,"x_max":822,"o":"m 578 426 l 256 426 l 256 0 l 100 0 l 100 713 l 11 713 l 11 831 l 100 831 l 100 969 l 256 969 l 256 826 l 578 826 l 578 969 l 733 969 l 733 831 l 822 831 l 822 713 l 733 713 l 733 0 l 578 0 l 578 426 m 578 557 l 578 717 l 256 717 l 256 557 l 578 557 z "},"Ĥ":{"ha":833,"x_min":100,"x_max":733,"o":"m 578 426 l 256 426 l 256 0 l 100 0 l 100 969 l 256 969 l 256 557 l 578 557 l 578 969 l 733 969 l 733 0 l 578 0 l 578 426 m 493 1311 l 660 1103 l 579 1044 l 415 1206 l 250 1044 l 174 1103 l 340 1311 l 493 1311 z "},"Í":{"ha":833,"x_min":111,"x_max":722,"o":"m 111 0 l 111 118 l 339 118 l 339 851 l 111 851 l 111 969 l 722 969 l 722 851 l 494 851 l 494 118 l 722 118 l 722 0 l 111 0 m 432 1040 l 339 1085 l 465 1335 l 596 1271 l 432 1040 z "},"Ĭ":{"ha":833,"x_min":111,"x_max":722,"o":"m 111 0 l 111 118 l 339 118 l 339 851 l 111 851 l 111 969 l 722 969 l 722 851 l 494 851 l 494 118 l 722 118 l 722 0 l 111 0 m 417 1049 q 317 1070 358 1049 q 248 1124 276 1092 q 202 1196 219 1157 q 174 1268 185 1235 l 264 1311 l 293 1265 q 323 1220 310 1240 q 349 1187 336 1200 q 378 1167 363 1174 q 417 1160 394 1160 q 484 1187 460 1160 q 540 1265 508 1214 l 569 1311 l 660 1268 q 631 1196 649 1235 q 585 1124 613 1157 q 516 1070 557 1092 q 417 1049 475 1049 z "},"Ǐ":{"ha":833,"x_min":111,"x_max":722,"o":"m 111 0 l 111 118 l 339 118 l 339 851 l 111 851 l 111 969 l 722 969 l 722 851 l 494 851 l 494 118 l 722 118 l 722 0 l 111 0 m 340 1056 l 174 1264 l 254 1322 l 418 1161 l 583 1322 l 660 1264 l 493 1056 l 340 1056 z "},"Î":{"ha":833,"x_min":111,"x_max":722,"o":"m 111 0 l 111 118 l 339 118 l 339 851 l 111 851 l 111 969 l 722 969 l 722 851 l 494 851 l 494 118 l 722 118 l 722 0 l 111 0 m 493 1311 l 660 1103 l 579 1044 l 415 1206 l 250 1044 l 174 1103 l 340 1311 l 493 1311 z "},"Ï":{"ha":833,"x_min":111,"x_max":722,"o":"m 111 0 l 111 118 l 339 118 l 339 851 l 111 851 l 111 969 l 722 969 l 722 851 l 494 851 l 494 118 l 722 118 l 722 0 l 111 0 m 278 1079 q 206 1100 226 1079 q 185 1153 185 1121 l 185 1179 q 206 1232 185 1211 q 278 1253 226 1253 q 350 1232 329 1253 q 371 1179 371 1211 l 371 1153 q 350 1100 371 1121 q 278 1079 329 1079 m 556 1079 q 483 1100 504 1079 q 463 1153 463 1121 l 463 1179 q 483 1232 463 1211 q 556 1253 504 1253 q 628 1232 607 1253 q 649 1179 649 1211 l 649 1153 q 628 1100 649 1121 q 556 1079 607 1079 z "},"İ":{"ha":833,"x_min":111,"x_max":722,"o":"m 111 0 l 111 118 l 339 118 l 339 851 l 111 851 l 111 969 l 722 969 l 722 851 l 494 851 l 494 118 l 722 118 l 722 0 l 111 0 m 417 1068 q 337 1092 360 1068 q 314 1150 314 1115 l 314 1181 q 337 1239 314 1215 q 417 1263 360 1263 q 497 1239 474 1263 q 519 1181 519 1215 l 519 1150 q 497 1092 519 1115 q 417 1068 474 1068 z "},"Ị":{"ha":833,"x_min":111,"x_max":722,"o":"m 111 0 l 111 118 l 339 118 l 339 851 l 111 851 l 111 969 l 722 969 l 722 851 l 494 851 l 494 118 l 722 118 l 722 0 l 111 0 m 417 -257 q 344 -236 365 -257 q 324 -183 324 -215 l 324 -157 q 344 -104 324 -125 q 417 -83 365 -83 q 489 -104 468 -83 q 510 -157 510 -125 l 510 -183 q 489 -236 510 -215 q 417 -257 468 -257 z "},"Ì":{"ha":833,"x_min":111,"x_max":722,"o":"m 111 0 l 111 118 l 339 118 l 339 851 l 111 851 l 111 969 l 722 969 l 722 851 l 494 851 l 494 118 l 722 118 l 722 0 l 111 0 m 238 1271 l 368 1335 l 494 1085 l 401 1040 l 238 1271 z "},"Ỉ":{"ha":833,"x_min":111,"x_max":722,"o":"m 111 0 l 111 118 l 339 118 l 339 851 l 111 851 l 111 969 l 722 969 l 722 851 l 494 851 l 494 118 l 722 118 l 722 0 l 111 0 m 279 1315 l 450 1315 q 539 1290 514 1315 q 564 1228 564 1264 q 544 1153 564 1193 q 492 1072 524 1113 l 456 1028 l 375 1067 l 446 1204 l 279 1204 l 279 1315 z "},"Ī":{"ha":833,"x_min":111,"x_max":722,"o":"m 111 0 l 111 118 l 339 118 l 339 851 l 111 851 l 111 969 l 722 969 l 722 851 l 494 851 l 494 118 l 722 118 l 722 0 l 111 0 m 215 1222 l 618 1222 l 618 1108 l 215 1108 l 215 1222 z "},"Į":{"ha":833,"x_min":111,"x_max":758,"o":"m 111 118 l 339 118 l 339 851 l 111 851 l 111 969 l 722 969 l 722 851 l 494 851 l 494 118 l 722 118 l 722 0 q 638 -57 669 -33 q 591 -99 607 -81 q 570 -129 575 -117 q 565 -153 565 -142 q 582 -192 565 -181 q 621 -203 599 -203 q 663 -192 644 -203 q 694 -165 681 -182 l 758 -228 q 706 -273 743 -256 q 611 -290 669 -290 q 549 -284 578 -290 q 499 -264 521 -278 q 464 -228 476 -250 q 451 -176 451 -207 q 493 -83 451 -124 q 614 -4 535 -42 l 611 0 l 111 0 l 111 118 z "},"Ĩ":{"ha":833,"x_min":111,"x_max":722,"o":"m 111 0 l 111 118 l 339 118 l 339 851 l 111 851 l 111 969 l 722 969 l 722 851 l 494 851 l 494 118 l 722 118 l 722 0 l 111 0 m 519 1075 q 460 1085 485 1075 q 411 1107 435 1096 q 355 1131 379 1122 q 308 1139 331 1139 q 267 1130 285 1139 q 228 1103 249 1121 l 171 1175 q 227 1231 192 1207 q 314 1254 263 1254 q 374 1244 349 1254 q 422 1222 399 1233 q 478 1199 454 1207 q 525 1190 503 1190 q 567 1199 549 1190 q 606 1226 585 1208 l 663 1154 q 606 1099 642 1122 q 519 1075 571 1075 z "},"Ĳ":{"ha":833,"x_min":99,"x_max":718,"o":"m 718 969 l 718 268 q 696 150 718 203 q 633 60 674 97 q 535 3 593 24 q 407 -17 478 -17 q 199 48 276 -17 q 99 222 121 113 l 251 258 q 268 203 257 229 q 298 158 279 178 q 344 126 317 138 q 410 114 371 114 q 522 156 482 114 q 563 289 563 199 l 563 969 l 718 969 m 108 969 l 264 969 l 264 414 l 108 414 l 108 969 z "},"Ĵ":{"ha":833,"x_min":82,"x_max":685,"o":"m 685 969 l 685 260 q 663 146 685 197 q 602 58 642 94 q 507 3 563 22 q 383 -17 451 -17 q 180 47 256 -17 q 82 224 104 111 l 229 254 q 276 154 242 194 q 385 114 311 114 q 491 155 453 114 q 529 281 529 196 l 529 839 l 192 839 l 192 969 l 685 969 m 515 1311 l 682 1103 l 601 1044 l 438 1206 l 272 1044 l 196 1103 l 363 1311 l 515 1311 z "},"Ķ":{"ha":833,"x_min":108,"x_max":818,"o":"m 361 -82 l 540 -82 l 429 -360 l 328 -360 l 361 -82 m 381 446 l 264 300 l 264 0 l 108 0 l 108 969 l 264 969 l 264 506 l 271 506 l 389 667 l 626 969 l 806 969 l 486 561 l 818 0 l 640 0 l 381 446 z "},"Ĺ":{"ha":833,"x_min":150,"x_max":747,"o":"m 246 1040 l 153 1085 l 279 1335 l 410 1271 l 246 1040 m 150 0 l 150 969 l 306 969 l 306 131 l 747 131 l 747 0 l 150 0 z "},"Ľ":{"ha":833,"x_min":150,"x_max":747,"o":"m 525 750 l 419 750 l 428 1028 l 603 1028 l 525 750 m 150 0 l 150 969 l 306 969 l 306 131 l 747 131 l 747 0 l 150 0 z "},"Ļ":{"ha":833,"x_min":150,"x_max":747,"o":"m 360 -82 l 539 -82 l 428 -360 l 326 -360 l 360 -82 m 150 0 l 150 969 l 306 969 l 306 131 l 747 131 l 747 0 l 150 0 z "},"Ŀ":{"ha":833,"x_min":150,"x_max":747,"o":"m 150 0 l 150 969 l 306 969 l 306 131 l 747 131 l 747 0 l 150 0 m 610 357 q 530 381 553 357 q 507 439 507 404 l 507 469 q 530 528 507 504 q 610 551 553 551 q 690 528 667 551 q 713 469 713 504 l 713 439 q 690 381 713 404 q 610 357 667 357 z "},"Ł":{"ha":833,"x_min":51,"x_max":747,"o":"m 747 0 l 157 0 l 157 361 l 51 326 l 51 447 l 157 482 l 157 969 l 313 969 l 313 528 l 590 619 l 590 497 l 313 406 l 313 131 l 747 131 l 747 0 z "},"Ń":{"ha":833,"x_min":100,"x_max":733,"o":"m 432 1040 l 339 1085 l 465 1335 l 596 1271 l 432 1040 m 249 746 l 236 746 l 236 0 l 100 0 l 100 969 l 300 969 l 585 224 l 597 224 l 597 969 l 733 969 l 733 0 l 533 0 l 249 746 z "},"Ň":{"ha":833,"x_min":100,"x_max":733,"o":"m 249 746 l 236 746 l 236 0 l 100 0 l 100 969 l 300 969 l 585 224 l 597 224 l 597 969 l 733 969 l 733 0 l 533 0 l 249 746 m 340 1056 l 174 1264 l 254 1322 l 418 1161 l 583 1322 l 660 1264 l 493 1056 l 340 1056 z "},"Ņ":{"ha":833,"x_min":100,"x_max":733,"o":"m 329 -82 l 508 -82 l 397 -360 l 296 -360 l 329 -82 m 249 746 l 236 746 l 236 0 l 100 0 l 100 969 l 300 969 l 585 224 l 597 224 l 597 969 l 733 969 l 733 0 l 533 0 l 249 746 z "},"Ñ":{"ha":833,"x_min":100,"x_max":733,"o":"m 519 1075 q 460 1085 485 1075 q 411 1107 435 1096 q 355 1131 379 1122 q 308 1139 331 1139 q 267 1130 285 1139 q 228 1103 249 1121 l 171 1175 q 227 1231 192 1207 q 314 1254 263 1254 q 374 1244 349 1254 q 422 1222 399 1233 q 478 1199 454 1207 q 525 1190 503 1190 q 567 1199 549 1190 q 606 1226 585 1208 l 663 1154 q 606 1099 642 1122 q 519 1075 571 1075 m 249 746 l 236 746 l 236 0 l 100 0 l 100 969 l 300 969 l 585 224 l 597 224 l 597 969 l 733 969 l 733 0 l 533 0 l 249 746 z "},"Ŋ":{"ha":833,"x_min":100,"x_max":733,"o":"m 100 0 l 100 969 l 300 969 l 585 224 l 597 224 l 597 969 l 733 969 l 733 -96 q 689 -227 733 -176 q 550 -278 644 -278 l 238 -278 l 238 -158 l 592 -158 l 592 0 l 533 0 l 249 746 l 236 746 l 236 0 l 100 0 z "},"Ó":{"ha":833,"x_min":61,"x_max":772,"o":"m 432 1040 l 339 1085 l 465 1335 l 596 1271 l 432 1040 m 417 -17 q 258 17 325 -17 q 147 115 190 51 q 82 272 103 179 q 61 485 61 365 q 82 697 61 603 q 147 854 103 790 q 258 952 190 918 q 417 986 325 986 q 576 952 508 986 q 687 854 643 918 q 751 697 731 790 q 772 485 772 603 q 751 272 772 365 q 687 115 731 179 q 576 17 643 51 q 417 -17 508 -17 m 417 113 q 564 191 521 113 q 607 404 607 269 l 607 567 q 564 778 607 700 q 417 857 521 857 q 269 778 313 857 q 226 567 226 700 l 226 403 q 269 191 226 269 q 417 113 313 113 z "},"Ŏ":{"ha":833,"x_min":61,"x_max":772,"o":"m 417 -17 q 258 17 325 -17 q 147 115 190 51 q 82 272 103 179 q 61 485 61 365 q 82 697 61 603 q 147 854 103 790 q 258 952 190 918 q 417 986 325 986 q 576 952 508 986 q 687 854 643 918 q 751 697 731 790 q 772 485 772 603 q 751 272 772 365 q 687 115 731 179 q 576 17 643 51 q 417 -17 508 -17 m 417 113 q 564 191 521 113 q 607 404 607 269 l 607 567 q 564 778 607 700 q 417 857 521 857 q 269 778 313 857 q 226 567 226 700 l 226 403 q 269 191 226 269 q 417 113 313 113 m 417 1049 q 317 1070 358 1049 q 248 1124 276 1092 q 202 1196 219 1157 q 174 1268 185 1235 l 264 1311 l 293 1265 q 323 1220 310 1240 q 349 1187 336 1200 q 378 1167 363 1174 q 417 1160 394 1160 q 484 1187 460 1160 q 540 1265 508 1214 l 569 1311 l 660 1268 q 631 1196 649 1235 q 585 1124 613 1157 q 516 1070 557 1092 q 417 1049 475 1049 z "},"Ǒ":{"ha":833,"x_min":61,"x_max":772,"o":"m 417 -17 q 258 17 325 -17 q 147 115 190 51 q 82 272 103 179 q 61 485 61 365 q 82 697 61 603 q 147 854 103 790 q 258 952 190 918 q 417 986 325 986 q 576 952 508 986 q 687 854 643 918 q 751 697 731 790 q 772 485 772 603 q 751 272 772 365 q 687 115 731 179 q 576 17 643 51 q 417 -17 508 -17 m 417 113 q 564 191 521 113 q 607 404 607 269 l 607 567 q 564 778 607 700 q 417 857 521 857 q 269 778 313 857 q 226 567 226 700 l 226 403 q 269 191 226 269 q 417 113 313 113 m 340 1056 l 174 1264 l 254 1322 l 418 1161 l 583 1322 l 660 1264 l 493 1056 l 340 1056 z "},"Ô":{"ha":833,"x_min":61,"x_max":772,"o":"m 493 1311 l 660 1103 l 579 1044 l 415 1206 l 250 1044 l 174 1103 l 340 1311 l 493 1311 m 417 -17 q 258 17 325 -17 q 147 115 190 51 q 82 272 103 179 q 61 485 61 365 q 82 697 61 603 q 147 854 103 790 q 258 952 190 918 q 417 986 325 986 q 576 952 508 986 q 687 854 643 918 q 751 697 731 790 q 772 485 772 603 q 751 272 772 365 q 687 115 731 179 q 576 17 643 51 q 417 -17 508 -17 m 417 113 q 564 191 521 113 q 607 404 607 269 l 607 567 q 564 778 607 700 q 417 857 521 857 q 269 778 313 857 q 226 567 226 700 l 226 403 q 269 191 226 269 q 417 113 313 113 z "},"Ö":{"ha":833,"x_min":61,"x_max":772,"o":"m 417 -17 q 258 17 325 -17 q 147 115 190 51 q 82 272 103 179 q 61 485 61 365 q 82 697 61 603 q 147 854 103 790 q 258 952 190 918 q 417 986 325 986 q 576 952 508 986 q 687 854 643 918 q 751 697 731 790 q 772 485 772 603 q 751 272 772 365 q 687 115 731 179 q 576 17 643 51 q 417 -17 508 -17 m 417 113 q 564 191 521 113 q 607 404 607 269 l 607 567 q 564 778 607 700 q 417 857 521 857 q 269 778 313 857 q 226 567 226 700 l 226 403 q 269 191 226 269 q 417 113 313 113 m 278 1079 q 206 1100 226 1079 q 185 1153 185 1121 l 185 1179 q 206 1232 185 1211 q 278 1253 226 1253 q 350 1232 329 1253 q 371 1179 371 1211 l 371 1153 q 350 1100 371 1121 q 278 1079 329 1079 m 556 1079 q 483 1100 504 1079 q 463 1153 463 1121 l 463 1179 q 483 1232 463 1211 q 556 1253 504 1253 q 628 1232 607 1253 q 649 1179 649 1211 l 649 1153 q 628 1100 649 1121 q 556 1079 607 1079 z "},"Ọ":{"ha":833,"x_min":61,"x_max":772,"o":"m 417 -17 q 258 17 325 -17 q 147 115 190 51 q 82 272 103 179 q 61 485 61 365 q 82 697 61 603 q 147 854 103 790 q 258 952 190 918 q 417 986 325 986 q 576 952 508 986 q 687 854 643 918 q 751 697 731 790 q 772 485 772 603 q 751 272 772 365 q 687 115 731 179 q 576 17 643 51 q 417 -17 508 -17 m 417 113 q 564 191 521 113 q 607 404 607 269 l 607 567 q 564 778 607 700 q 417 857 521 857 q 269 778 313 857 q 226 567 226 700 l 226 403 q 269 191 226 269 q 417 113 313 113 m 417 -257 q 344 -236 365 -257 q 324 -183 324 -215 l 324 -157 q 344 -104 324 -125 q 417 -83 365 -83 q 489 -104 468 -83 q 510 -157 510 -125 l 510 -183 q 489 -236 510 -215 q 417 -257 468 -257 z "},"Ò":{"ha":833,"x_min":61,"x_max":772,"o":"m 238 1271 l 368 1335 l 494 1085 l 401 1040 l 238 1271 m 417 -17 q 258 17 325 -17 q 147 115 190 51 q 82 272 103 179 q 61 485 61 365 q 82 697 61 603 q 147 854 103 790 q 258 952 190 918 q 417 986 325 986 q 576 952 508 986 q 687 854 643 918 q 751 697 731 790 q 772 485 772 603 q 751 272 772 365 q 687 115 731 179 q 576 17 643 51 q 417 -17 508 -17 m 417 113 q 564 191 521 113 q 607 404 607 269 l 607 567 q 564 778 607 700 q 417 857 521 857 q 269 778 313 857 q 226 567 226 700 l 226 403 q 269 191 226 269 q 417 113 313 113 z "},"Ỏ":{"ha":833,"x_min":61,"x_max":772,"o":"m 279 1315 l 450 1315 q 539 1290 514 1315 q 564 1228 564 1264 q 544 1153 564 1193 q 492 1072 524 1113 l 456 1028 l 375 1067 l 446 1204 l 279 1204 l 279 1315 m 417 -17 q 258 17 325 -17 q 147 115 190 51 q 82 272 103 179 q 61 485 61 365 q 82 697 61 603 q 147 854 103 790 q 258 952 190 918 q 417 986 325 986 q 576 952 508 986 q 687 854 643 918 q 751 697 731 790 q 772 485 772 603 q 751 272 772 365 q 687 115 731 179 q 576 17 643 51 q 417 -17 508 -17 m 417 113 q 564 191 521 113 q 607 404 607 269 l 607 567 q 564 778 607 700 q 417 857 521 857 q 269 778 313 857 q 226 567 226 700 l 226 403 q 269 191 226 269 q 417 113 313 113 z "},"Ő":{"ha":833,"x_min":61,"x_max":772,"o":"m 306 1040 l 219 1081 l 346 1332 l 469 1271 l 306 1040 m 554 1040 l 468 1081 l 594 1332 l 718 1271 l 554 1040 m 417 -17 q 258 17 325 -17 q 147 115 190 51 q 82 272 103 179 q 61 485 61 365 q 82 697 61 603 q 147 854 103 790 q 258 952 190 918 q 417 986 325 986 q 576 952 508 986 q 687 854 643 918 q 751 697 731 790 q 772 485 772 603 q 751 272 772 365 q 687 115 731 179 q 576 17 643 51 q 417 -17 508 -17 m 417 113 q 564 191 521 113 q 607 404 607 269 l 607 567 q 564 778 607 700 q 417 857 521 857 q 269 778 313 857 q 226 567 226 700 l 226 403 q 269 191 226 269 q 417 113 313 113 z "},"Ō":{"ha":833,"x_min":61,"x_max":772,"o":"m 417 -17 q 258 17 325 -17 q 147 115 190 51 q 82 272 103 179 q 61 485 61 365 q 82 697 61 603 q 147 854 103 790 q 258 952 190 918 q 417 986 325 986 q 576 952 508 986 q 687 854 643 918 q 751 697 731 790 q 772 485 772 603 q 751 272 772 365 q 687 115 731 179 q 576 17 643 51 q 417 -17 508 -17 m 417 113 q 564 191 521 113 q 607 404 607 269 l 607 567 q 564 778 607 700 q 417 857 521 857 q 269 778 313 857 q 226 567 226 700 l 226 403 q 269 191 226 269 q 417 113 313 113 m 215 1222 l 618 1222 l 618 1108 l 215 1108 l 215 1222 z "},"Ø":{"ha":833,"x_min":49,"x_max":785,"o":"m 417 -17 q 221 40 296 -17 l 153 -74 l 49 -14 l 136 131 q 79 283 97 194 q 61 485 61 372 q 82 697 61 603 q 147 854 103 790 q 258 952 190 918 q 417 986 325 986 q 613 929 538 986 l 681 1043 l 785 983 l 697 838 q 754 685 736 774 q 772 485 772 597 q 751 272 772 365 q 687 115 731 179 q 576 17 643 51 q 417 -17 508 -17 m 226 403 q 228 340 226 369 q 238 282 231 310 l 544 806 q 417 857 497 857 q 269 778 313 857 q 226 567 226 700 l 226 403 m 417 113 q 564 191 521 113 q 607 403 607 269 l 607 567 q 605 630 607 600 q 596 688 603 660 l 289 164 q 417 113 336 113 z "}}}
